<?xml version="1.0" standalone="no"?>
<!DOCTYPE svg PUBLIC "-//W3C//DTD SVG 20010904//EN"
 "http://www.w3.org/TR/2001/REC-SVG-20010904/DTD/svg10.dtd">
<svg version="1.0" xmlns="http://www.w3.org/2000/svg"
 width="512.000000pt" height="512.000000pt" viewBox="0 0 512.000000 512.000000"
 preserveAspectRatio="xMidYMid meet">
<metadata>
Created by potrace 1.14, written by Peter Selinger 2001-2017
</metadata>
<g transform="translate(0.000000,512.000000) scale(0.100000,-0.100000)"
fill="#000000" stroke="none">
<path d="M714 4688 c-44 -49 -48 -179 -8 -263 35 -74 243 -280 369 -366 46
-32 45 -45 -2 -19 -92 51 -169 104 -290 202 -76 62 -106 71 -123 37 -15 -27 2
-136 30 -195 34 -69 127 -145 260 -211 38 -18 57 -32 45 -32 -25 -1 -102 27
-177 64 -47 23 -60 26 -73 15 -22 -19 -18 -68 13 -130 40 -81 109 -119 247
-136 l60 -7 -78 -12 c-42 -6 -82 -16 -88 -22 -30 -30 35 -108 118 -139 39 -15
49 -15 103 -2 33 8 60 14 60 13 0 0 -10 -43 -21 -95 -27 -118 -29 -284 -5
-423 52 -294 219 -745 433 -1165 224 -440 497 -906 796 -1360 111 -168 143
-210 153 -201 43 36 412 543 559 769 406 622 626 1049 775 1500 115 349 147
649 96 889 -9 41 -14 76 -12 79 3 2 19 -1 37 -7 18 -6 50 -11 72 -11 82 0 181
74 175 129 -3 24 -9 27 -65 36 -34 6 -64 13 -68 16 -3 4 23 10 57 13 129 14
218 85 237 191 8 40 6 53 -6 67 -14 16 -18 16 -56 -4 -57 -28 -164 -68 -185
-68 -9 0 16 18 55 39 179 95 251 177 272 312 9 52 8 67 -4 86 -21 32 -40 29
-94 -15 -126 -104 -249 -191 -322 -227 l-34 -16 26 23 c15 13 75 64 134 113
121 101 211 198 246 265 20 37 24 60 24 130 0 117 -35 174 -95 155 -11 -4 -61
-67 -111 -142 -168 -253 -247 -335 -449 -468 l-126 -83 -81 76 c-209 200 -478
336 -768 388 -148 27 -416 25 -550 -4 -279 -60 -539 -193 -729 -373 l-84 -79
-99 61 c-223 141 -300 219 -478 488 -80 119 -94 136 -121 139 -21 2 -36 -4
-50 -20z m2070 -777 c273 -72 490 -266 596 -536 70 -176 85 -295 55 -440 -75
-360 -330 -635 -665 -715 -117 -27 -293 -27 -410 0 -290 69 -525 284 -619 566
-151 450 72 924 513 1095 160 62 363 73 530 30z"/>
<path d="M2476 3795 c-162 -34 -308 -99 -423 -189 -117 -91 -205 -229 -176
-274 13 -21 43 -28 43 -10 1 26 71 108 110 128 47 24 103 26 124 4 19 -18 19
-19 5 -84 -8 -39 -8 -68 1 -118 21 -112 70 -183 70 -102 0 37 43 154 75 202
29 44 114 93 240 139 75 27 105 32 181 33 84 1 94 -1 140 -29 51 -32 104 -106
125 -175 18 -59 23 -234 9 -333 -17 -125 -73 -327 -111 -397 -51 -96 -120
-158 -239 -217 -93 -46 -101 -52 -70 -52 19 0 70 6 112 13 324 58 530 234 605
516 37 141 17 344 -51 510 -77 192 -235 351 -418 422 -70 27 -253 34 -352 13z"/>
<path d="M2570 3337 c-80 -26 -152 -140 -135 -216 16 -72 90 -120 186 -121 44
0 64 6 102 30 45 28 87 80 87 108 0 10 -11 12 -46 6 -39 -5 -49 -3 -70 17 -37
35 -33 83 11 125 19 18 35 35 35 37 0 10 -65 27 -99 26 -20 -1 -52 -6 -71 -12z"/>
<path d="M1979 3275 c-29 -16 -59 -86 -59 -138 0 -96 107 -143 157 -68 27 40
25 57 -5 53 -40 -6 -57 72 -25 117 15 23 15 25 -2 37 -23 17 -33 17 -66 -1z"/>
<path d="M2213 3034 c-6 -16 -36 -58 -66 -93 -57 -65 -74 -103 -62 -143 8 -27
95 -158 105 -158 4 0 10 30 13 66 7 74 19 94 50 91 49 -5 43 182 -7 240 l-23
26 -10 -29z"/>
</g>
</svg>
