<?xml version="1.0" standalone="no"?>
<!DOCTYPE svg PUBLIC "-//W3C//DTD SVG 1.1//EN" "http://www.w3.org/Graphics/SVG/1.1/DTD/svg11.dtd" >
<svg xmlns="http://www.w3.org/2000/svg" xmlns:xlink="http://www.w3.org/1999/xlink" version="1.1">
<metadata>
Created by FontForge 20170731 at Fri May 19 22:59:47 2023
 By Aleksey,,,
Copyright 2020-2023 Google LLC.  All Rights Reserved.
</metadata>
<defs>
<font id="MaterialSymbolsRounded24pt-Light" horiz-adv-x="960" >
  <font-face 
    font-family="Material Symbols Rounded 24pt Light"
    font-weight="300"
    font-stretch="normal"
    units-per-em="960"
    panose-1="5 10 1 3 1 2 2 2 2 2"
    ascent="768"
    descent="-192"
    cap-height="683"
    bbox="0 -91 960 960"
    underline-thickness="0"
    underline-position="0"
    unicode-range="U+000D-F8FF"
  />
<missing-glyph 
d="M200 0v960h560v-960h-560zM280 124l178 356l-178 358v-714zM680 124v714l-178 -356zM302 80h356l-178 356zM480 526l176 354h-352z" />
    <glyph glyph-name="bluetooth_searching" unicode="BLUETOOTH_SEARCHING" 
d="M640 426l-40 41q-6 6 -6 13t6 13l40 40q11 11 22 8t14 -17q3 -11 4 -21.5t1 -22.5t-1 -23t-4 -23q-3 -14 -14 -16t-22 8zM743 324q-5 5 -7 13.5t2 15.5q14 30 21.5 62t7.5 65t-7.5 65t-21.5 61q-4 8 -2 16.5t8 14.5q10 10 23 7.5t20 -16.5q16 -35 24.5 -72t8.5 -76
t-8.5 -75.5t-24.5 -70.5q-7 -15 -20 -18t-24 8zM376 408l-173 -173q-8 -8 -20.5 -8.5t-21.5 8.5t-9 21t9 21l203 203l-203 203q-8 8 -8.5 20.5t8.5 21.5t21.5 9t20.5 -9l173 -173v270q0 13 8 21.5t20 8.5q8 0 15.5 -3.5t13.5 -9.5l162 -162q6 -5 8 -11.5t2 -13.5t-2 -13.5
t-8 -11.5l-147 -147l147 -147q6 -5 8 -11.5t2 -13.5t-2 -13.5t-8 -11.5l-162 -162q-6 -6 -13.5 -9.5t-15.5 -3.5q-12 0 -20 8.5t-8 21.5v270zM436 552l100 100l-100 99v-199zM436 209l100 99l-100 100v-199z" />
    <glyph glyph-name="error" unicode="ERROR_CIRCLE_ROUNDED" 
d="M480 291q14 0 23 9t9 23t-9 23t-23 9t-23 -9t-9 -23t9 -23t23 -9zM480 437q13 0 21.5 8.5t8.5 21.5v180q0 13 -8.5 21.5t-21.5 8.5t-21.5 -8.5t-8.5 -21.5v-180q0 -13 8.5 -21.5t21.5 -8.5zM480 100q-79 0 -148.5 30t-120.5 81t-81 120.5t-30 148.5t30 148.5t81 120.5
t120.5 81t148.5 30t148.5 -30t120.5 -81t81 -120.5t30 -148.5t-30 -148.5t-81 -120.5t-120.5 -81t-148.5 -30zM480 160q134 0 227 93t93 227t-93 227t-227 93t-227 -93t-93 -227t93 -227t227 -93zM480 480v0v0v0v0v0v0v0v0z" />
    <glyph glyph-name="add_alert" unicode="ADD_ALERT" 
d="M480 365q13 0 21.5 9t8.5 21v50h50q13 0 21.5 9t8.5 21q0 13 -8.5 21.5t-21.5 8.5h-50v50q0 13 -8.5 21.5t-21.5 8.5t-21.5 -8.5t-8.5 -21.5v-50h-50q-13 0 -21.5 -8.5t-8.5 -21.5q0 -12 8.5 -21t21.5 -9h50v-50q0 -12 8.5 -21t21.5 -9zM200 205q-13 0 -21.5 9t-8.5 21
q0 13 8.5 21.5t21.5 8.5h50v290q0 80 50 143.5t130 81.5v28q0 21 14.5 35.5t35.5 14.5t35.5 -14.5t14.5 -35.5v-28q80 -18 130 -81.5t50 -143.5v-290h50q13 0 21.5 -8.5t8.5 -21.5q0 -12 -8.5 -21t-21.5 -9h-560zM480 495v0v0v0v0v0v0v0zM480 88q-30 0 -51 21t-21 51h144
q0 -30 -21 -51t-51 -21zM310 265h340v290q0 71 -50 120.5t-120 49.5t-120 -49.5t-50 -120.5v-290z" />
    <glyph glyph-name="notification_important" unicode="NOTIFICATION_IMPORTANT" 
d="M480 432q13 0 21.5 9t8.5 21v136q0 13 -8.5 21.5t-21.5 8.5t-21.5 -8.5t-8.5 -21.5v-136q0 -12 8.5 -21t21.5 -9zM480 324q14 0 23 9t9 23t-9 23t-23 9t-23 -9t-9 -23t9 -23t23 -9zM200 205q-13 0 -21.5 9t-8.5 21q0 13 8.5 21.5t21.5 8.5h50v290q0 80 50 143.5t130 81.5
v28q0 21 14.5 35.5t35.5 14.5t35.5 -14.5t14.5 -35.5v-28q80 -18 130 -81.5t50 -143.5v-290h50q13 0 21.5 -8.5t8.5 -21.5q0 -12 -8.5 -21t-21.5 -9h-560zM480 495v0v0v0v0v0v0v0zM480 88q-30 0 -51 21t-21 51h144q0 -30 -21 -51t-51 -21zM310 265h340v290q0 71 -50 120.5
t-120 49.5t-120 -49.5t-50 -120.5v-290z" />
    <glyph glyph-name="qr_code_2" unicode="QR_CODE_&#x32;" 
d="M520 139v76h76v-76h-76zM444 215v189h76v-189h-76zM745 343v137h76v-137h-76zM668 480v76h77v-76h-77zM215 404v76h77v-76h-77zM139 480v76h76v-76h-76zM480 745v76h76v-76h-76zM187 640h133v133h-133v-133zM175 592q-15 0 -25.5 10.5t-10.5 25.5v157q0 15 10.5 25.5
t25.5 10.5h157q15 0 25.5 -10.5t10.5 -25.5v-157q0 -15 -10.5 -25.5t-25.5 -10.5h-157zM187 187h136v133h-136v-133zM175 139q-15 0 -25.5 10.5t-10.5 25.5v157q0 15 10.5 25.5t25.5 10.5h160q15 0 25.5 -10.5t10.5 -25.5v-157q0 -15 -10.5 -25.5t-25.5 -10.5h-160zM640 640
h133v133h-133v-133zM628 592q-15 0 -25.5 10.5t-10.5 25.5v157q0 15 10.5 25.5t25.5 10.5h157q15 0 25.5 -10.5t10.5 -25.5v-157q0 -15 -10.5 -25.5t-25.5 -10.5h-157zM668 139v128h-76v76h153v-128h76v-76h-153zM520 404v76h148v-76h-148zM368 404v76h-76v76h228v-76h-76
v-76h-76zM404 592v153h76v-77h76v-76h-152zM226 679v55h55v-55h-55zM228 228v56h56v-56h-56zM679 679v55h55v-55h-55z" />
    <glyph glyph-name="flutter_dash" unicode="FLUTTER_DASH" 
d="M309 332q-2 3 18.5 28.5t47.5 54.5q30 34 71 75q11 17 30.5 17t32.5 -15q11 -15 8 -33.5t-21 -27.5q-50 -30 -90 -53q-35 -20 -64.5 -35t-32.5 -11zM434 73q-5 0 -9.5 2t-7.5 6q-3 6 -7 15.5t-4 22.5q0 9 1 16t3 14q-25 5 -42 25t-17 47q0 5 2 19q-68 24 -110 76.5
t-54 136.5q-5 -5 -10.5 -8t-12.5 -3q-14 0 -34.5 21t-20.5 90q0 64 37 115t74 51q12 0 15 -10.5t3 -20.5q35 50 88 82t117 40q6 26 27 41.5t45 15.5v-37q4 5 9 9t12 6.5t16 2.5t16 -2.5t12 -6.5t9 -9q-14 0 -23.5 -8t-11.5 -21q50 -13 92 -42.5t72 -70.5q0 10 3 20.5
t15 10.5q37 0 74 -51t37 -115q0 -69 -20.5 -90t-34.5 -21q-6 0 -12 2.5t-11 7.5q-13 -93 -63.5 -148t-133.5 -73q3 -13 12.5 -21t22.5 -8v0h21q7 0 11.5 -3.5t6.5 -9.5q5 -14 16.5 -27t21.5 -22q7 -6 6.5 -14.5t-7.5 -13.5q-10 -7 -25.5 -12.5t-41.5 -7.5q-5 0 -9 1.5
t-7 6.5q-4 5 -7.5 15t-3.5 23q0 8 1 15l2 14q-22 5 -37 20.5t-20 36.5q-13 -1 -27 -2t-30 -1q-24 0 -46.5 2t-43.5 7l-2 -9q0 -16 10.5 -26.5t26.5 -10.5v0h21q6 0 11 -4t6 -9q5 -15 16.5 -28t21.5 -21q7 -6 7 -15t-8 -13q-10 -8 -25.5 -13.5t-40.5 -7.5zM729 434q5 19 7 39
t2 43q0 107 -75.5 183t-182.5 76t-182.5 -76t-75.5 -183q0 -22 2 -42.5t7 -38.5q5 19 12.5 36.5t17.5 33.5q-6 13 -9 27t-3 30q0 58 40.5 98.5t98.5 40.5q26 0 50 -10t42 -26q18 16 41.5 26t50.5 10q58 0 98.5 -40.5t40.5 -98.5q0 -16 -3.5 -30t-9.5 -27q10 -16 18 -33.5
t13 -37.5zM480 258q80 0 135 25t86 74q0 3 0.5 6t0.5 5q0 28 -6.5 54t-19.5 49q-20 -21 -46 -34t-58 -13q-7 0 -14.5 0.5t-14.5 2.5q4 7 6.5 14t3.5 14q1 2 1 4v4q5 -1 9 -1.5t9 -0.5q43 0 72.5 29.5t29.5 71.5q0 43 -29.5 72.5t-72.5 29.5q-19 0 -36 -7t-31 -20l-25 -22
l-25 22q-14 13 -31 20t-36 7q-43 0 -72.5 -29.5t-29.5 -72.5q0 -37 23.5 -64.5t58.5 -34.5l-27 -31q-17 6 -31.5 16t-25.5 23q-13 -23 -19.5 -49t-6.5 -54v-9q32 -50 87 -75.5t135 -25.5zM572 498q-23 0 -39 19t-16 45q0 27 16 46t39 19t39.5 -19t16.5 -46q0 -26 -16.5 -45
t-39.5 -19zM586 581q6 0 10 4t4 10q0 5 -4 9t-10 4t-10 -4t-4 -9q0 -7 4.5 -10.5t9.5 -3.5zM388 498q-23 0 -39.5 19t-16.5 45q0 27 16.5 46t39.5 19t39 -19t16 -46q0 -26 -16 -45t-39 -19zM401 581q7 0 10.5 4t3.5 10q0 5 -4 9t-9 4q-7 0 -10.5 -4t-3.5 -9q0 -7 4 -10.5
t9 -3.5z" />
    <glyph glyph-name="align_vertical_top" unicode="ALIGN_VERTICAL_TOP" 
d="M130 790q-13 0 -21.5 9t-8.5 21q0 13 8.5 21.5t21.5 8.5h700q13 0 21.5 -8.5t8.5 -21.5q0 -12 -8.5 -21t-21.5 -9h-700zM344 110q-21 0 -35.5 15t-14.5 35v488q0 21 14.5 36t35.5 15t36 -15t15 -36v-488q0 -20 -15 -35t-36 -15zM616 350q-21 0 -36 15t-15 35v248
q0 21 15 36t36 15t35.5 -15t14.5 -36v-248q0 -20 -14.5 -35t-35.5 -15z" />
    <glyph glyph-name="align_horizontal_left" unicode="ALIGN_HORIZONTAL_LEFT" 
d="M145 100q-12 0 -21 8.5t-9 21.5v700q0 13 9 21.5t21 8.5q13 0 21.5 -8.5t8.5 -21.5v-700q0 -13 -8.5 -21.5t-21.5 -8.5zM317 565q-20 0 -35 15t-15 36t15 35.5t35 14.5h477q21 0 36 -14.5t15 -35.5t-15 -36t-36 -15h-477zM317 294q-20 0 -35 14.5t-15 35.5t15 36t35 15
h237q21 0 36 -15t15 -36t-15 -35.5t-36 -14.5h-237z" />
    <glyph glyph-name="align_horizontal_center" unicode="ALIGN_HORIZONTAL_CENTER" 
d="M480 100q-13 0 -21.5 8.5t-8.5 21.5v164h-140q-20 0 -35 14.5t-15 35.5t15 36t35 15h140v170h-260q-20 0 -35 15t-15 36t15 35.5t35 14.5h260v164q0 13 8.5 21.5t21.5 8.5t21.5 -8.5t8.5 -21.5v-164h260q20 0 35 -14.5t15 -35.5t-15 -36t-35 -15h-260v-170h140
q20 0 35 -15t15 -36t-15 -35.5t-35 -14.5h-140v-164q0 -13 -8.5 -21.5t-21.5 -8.5z" />
    <glyph glyph-name="align_horizontal_right" unicode="ALIGN_HORIZONTAL_RIGHT" 
d="M815 100q-13 0 -21.5 8.5t-8.5 21.5v700q0 13 8.5 21.5t21.5 8.5q12 0 21 -8.5t9 -21.5v-700q0 -13 -9 -21.5t-21 -8.5zM166 565q-21 0 -36 15t-15 36t15 35.5t36 14.5h477q20 0 35 -14.5t15 -35.5t-15 -36t-35 -15h-477zM406 294q-21 0 -36 14.5t-15 35.5t15 36t36 15
h237q20 0 35 -15t15 -36t-15 -35.5t-35 -14.5h-237z" />
    <glyph glyph-name="align_vertical_center" unicode="ALIGN_VERTICAL_CENTER" 
d="M342 140q-20 0 -35 15t-15 35v260h-162q-13 0 -21.5 8.5t-8.5 21.5t8.5 21.5t21.5 8.5h162v260q0 20 15 35t35 15q21 0 36 -15t15 -35v-260h174v140q0 20 15 35t36 15q20 0 35 -15t15 -35v-140h162q13 0 21.5 -8.5t8.5 -21.5t-8.5 -21.5t-21.5 -8.5h-162v-140
q0 -20 -15 -35t-35 -15q-21 0 -36 15t-15 35v140h-174v-260q0 -20 -15 -35t-36 -15z" />
    <glyph glyph-name="team_dashboard" unicode="TEAM_DASHBOARD" 
d="M212 140q-30 0 -51 21t-21 51v536q0 30 21 51t51 21h536q30 0 51 -21t21 -51v-536q0 -30 -21 -51t-51 -21h-536zM410 200v250h-210v-238q0 -5 3.5 -8.5t8.5 -3.5h198zM470 200h278q5 0 8.5 3.5t3.5 8.5v238h-290v-250zM200 510h560v238q0 5 -3.5 8.5t-8.5 3.5h-536
q-5 0 -8.5 -3.5t-3.5 -8.5v-238z" />
    <glyph glyph-name="horizontal_distribute" unicode="HORIZONTAL_DISTRIBUTE" 
d="M130 90q-13 0 -21.5 8.5t-8.5 21.5v720q0 13 8.5 21.5t21.5 8.5t21.5 -8.5t8.5 -21.5v-720q0 -13 -8.5 -21.5t-21.5 -8.5zM480 290q-21 0 -35.5 14.5t-14.5 35.5v280q0 21 14.5 35.5t35.5 14.5t35.5 -14.5t14.5 -35.5v-280q0 -21 -14.5 -35.5t-35.5 -14.5zM830 90
q-13 0 -21.5 8.5t-8.5 21.5v720q0 13 8.5 21.5t21.5 8.5t21.5 -8.5t8.5 -21.5v-720q0 -13 -8.5 -21.5t-21.5 -8.5z" />
    <glyph glyph-name="align_vertical_bottom" unicode="ALIGN_VERTICAL_BOTTOM" 
d="M130 110q-13 0 -21.5 8.5t-8.5 21.5t8.5 21.5t21.5 8.5h700q13 0 21.5 -8.5t8.5 -21.5t-8.5 -21.5t-21.5 -8.5h-700zM344 262q-21 0 -35.5 14.5t-14.5 35.5v488q0 21 14.5 35.5t35.5 14.5t36 -14.5t15 -35.5v-488q0 -21 -15 -35.5t-36 -14.5zM616 262q-21 0 -36 14.5
t-15 35.5v248q0 21 15 35.5t36 14.5t35.5 -14.5t14.5 -35.5v-248q0 -21 -14.5 -35.5t-35.5 -14.5z" />
    <glyph glyph-name="bring_your_own_ip" unicode="BRING_YOUR_OWN_IP" 
d="M480 100q-78 0 -147.5 30t-121 81.5t-81.5 121t-30 147.5q0 79 30 148t81.5 120.5t121 81.5t147.5 30q17 0 34.5 -2t33.5 -4v-180q-12 35 -29.5 66t-38.5 59q-29 -37 -50.5 -79.5t-35.5 -92.5h154v-60h-167q-4 -22 -6 -43t-2 -44t2 -44t6 -43h198q4 22 6 43t2 44
q0 19 -1.5 36.5t-3.5 35.5h60q2 -18 3.5 -36t1.5 -36q0 -22 -2 -43.5t-6 -43.5h149q6 20 9 42t3 45q0 19 -2 36.5t-6 35.5h61q3 -17 5 -35.5t2 -36.5q0 -78 -30 -147.5t-81.5 -121t-120.5 -81.5t-148 -30zM172 393h149q-4 22 -6 43.5t-2 43.5t2 43.5t6 43.5h-149
q-6 -20 -9 -42t-3 -45t3 -45t9 -42zM403 171q-23 34 -41.5 76t-28.5 86h-136q32 -62 85 -104.5t121 -57.5zM197 627h136q11 44 29 85.5t41 76.5q-70 -16 -122 -57.5t-84 -104.5zM480 161q31 40 51.5 81.5t34.5 90.5h-172q14 -50 34.5 -91.5t51.5 -80.5zM557 171
q68 15 121 57.5t85 104.5h-136q-12 -44 -30 -86.5t-40 -75.5zM640 640v220h220v-220h-220zM754 754h71v71h-71v-71z" />
    <glyph glyph-name="discover_tune" unicode="DISCOVER_TUNE" 
d="M530 610v60h120v160h60v-160h120v-60h-300zM650 130v380h60v-380h-60zM250 130v160h-120v60h300v-60h-120v-160h-60zM250 450v380h60v-380h-60z" />
    <glyph glyph-name="album" unicode="ALBUM" 
d="M480 320q67 0 113.5 46.5t46.5 113.5t-46.5 113.5t-113.5 46.5t-113.5 -46.5t-46.5 -113.5t46.5 -113.5t113.5 -46.5zM480 440q-17 0 -28.5 11.5t-11.5 28.5t11.5 28.5t28.5 11.5t28.5 -11.5t11.5 -28.5t-11.5 -28.5t-28.5 -11.5zM480 100q-79 0 -148.5 30t-120.5 81
t-81 120.5t-30 148.5t30 148.5t81 120.5t120.5 81t148.5 30t148.5 -30t120.5 -81t81 -120.5t30 -148.5t-30 -148.5t-81 -120.5t-120.5 -81t-148.5 -30zM480 160q134 0 227 93t93 227t-93 227t-227 93t-227 -93t-93 -227t93 -227t227 -93zM480 480v0v0v0v0v0v0v0v0z" />
    <glyph glyph-name="av_timer" unicode="AV_TIMER" 
d="M480 140q-70 0 -132 27t-108 73t-73 108t-27 132q0 73 27.5 136t75.5 108q11 11 26 10.5t25 -10.5l213 -213q9 -8 9 -21t-9 -21q-8 -9 -20.5 -9t-21.5 9l-195 195q-31 -36 -50.5 -81.5t-19.5 -102.5q0 -116 82 -198t198 -82t198 82t82 198q0 106 -69.5 185.5t-180.5 92.5
v-48q0 -13 -8.5 -21.5t-21.5 -8.5t-21.5 8.5t-8.5 21.5v80q0 13 8.5 21.5t21.5 8.5q70 0 132 -27t108 -73t73 -108t27 -132t-27 -132t-73 -108t-108 -73t-132 -27zM480 245q-15 0 -25 10t-10 25t10 25t25 10t25 -10t10 -25t-10 -25t-25 -10zM680 445q-15 0 -25 10t-10 25
t10 25t25 10t25 -10t10 -25t-10 -25t-25 -10zM280 445q-15 0 -25 10t-10 25t10 25t25 10t25 -10t10 -25t-10 -25t-25 -10z" />
    <glyph glyph-name="closed_caption" unicode="CLOSED_CAPTION_OFF" 
d="M212 180q-30 0 -51 21t-21 51v456q0 30 21 51t51 21h536q30 0 51 -21t21 -51v-456q0 -30 -21 -51t-51 -21h-536zM212 240h536q4 0 8 4t4 8v456q0 4 -4 8t-8 4h-536q-4 0 -8 -4t-4 -8v-456q0 -4 4 -8t8 -4zM295 366h105q17 0 29.5 12t12.5 30v12q0 7 -5 12t-13 5h-13
q-7 0 -12 -5t-5 -12v0q0 -2 -2 -4t-4 -2h-80q-3 0 -4.5 2t-1.5 4v120q0 2 1.5 4t4.5 2h80q2 0 4 -2t2 -4v0q0 -7 5 -12t12 -5h13q8 0 13 5t5 12v12q0 18 -12.5 30t-29.5 12h-105q-17 0 -29 -12t-12 -30v-144q0 -18 12 -30t29 -12zM665 594h-105q-17 0 -29.5 -12t-12.5 -30
v-144q0 -18 12.5 -30t29.5 -12h105q17 0 29 12t12 30v12q0 7 -5 12t-12 5h-13q-8 0 -13 -5t-5 -12v0q0 -2 -1.5 -4t-4.5 -2h-80q-2 0 -4 2t-2 4v120q0 2 2 4t4 2h80q3 0 4.5 -2t1.5 -4v0q0 -7 5 -12t13 -5h13q7 0 12 5t5 12v12q0 18 -12 30t-29 12zM200 240v4v8v456v8v4v0
v-4v-8v-456v-8v-4v0z" />
    <glyph glyph-name="equalizer" unicode="EQUALIZER" 
d="M240 170q-29 0 -49.5 20.5t-20.5 49.5v160q0 29 20.5 49.5t49.5 20.5t49.5 -20.5t20.5 -49.5v-160q0 -29 -20.5 -49.5t-49.5 -20.5zM480 170q-29 0 -49.5 20.5t-20.5 49.5v480q0 29 20.5 49.5t49.5 20.5t49.5 -20.5t20.5 -49.5v-480q0 -29 -20.5 -49.5t-49.5 -20.5z
M720 170q-29 0 -49.5 20.5t-20.5 49.5v280q0 29 20.5 49.5t49.5 20.5t49.5 -20.5t20.5 -49.5v-280q0 -29 -20.5 -49.5t-49.5 -20.5z" />
    <glyph glyph-name="explicit" unicode="EXPLICIT" 
d="M430 350v100h130q13 0 21.5 8.5t8.5 21.5t-8.5 21.5t-21.5 8.5h-130v100h130q13 0 21.5 8.5t8.5 21.5t-8.5 21.5t-21.5 8.5h-160q-13 0 -21.5 -8.5t-8.5 -21.5v-320q0 -13 8.5 -21.5t21.5 -8.5h160q13 0 21.5 8.5t8.5 21.5t-8.5 21.5t-21.5 8.5h-130zM212 140
q-30 0 -51 21t-21 51v536q0 30 21 51t51 21h536q30 0 51 -21t21 -51v-536q0 -30 -21 -51t-51 -21h-536zM212 200h536q4 0 8 4t4 8v536q0 4 -4 8t-8 4h-536q-4 0 -8 -4t-4 -8v-536q0 -4 4 -8t8 -4zM200 760v0v-3.5v-8.5v-536v-8.5v-3.5v0v3.5v8.5v536v8.5v3.5z" />
    <glyph glyph-name="fast_forward" unicode="FAST_FORWARD" 
d="M188 305q-18 -13 -37 -2t-19 32v290q0 21 19 32t37 -2l217 -145q17 -11 17 -30t-17 -30zM566 305q-18 -13 -37 -2t-19 32v290q0 21 19 32t37 -2l217 -145q17 -11 17 -30t-17 -30zM192 480v0v0v0zM570 480v0v0v0zM192 380l151 100l-151 100v-200zM570 380l150 100
l-150 100v-200z" />
    <glyph glyph-name="fast_rewind" unicode="FAST_REWIND" 
d="M772 305l-217 145q-17 11 -17 30t17 30l217 145q18 13 37 2t19 -32v-290q0 -21 -19 -32t-37 2zM394 305l-217 145q-17 11 -17 30t17 30l217 145q18 13 37 2t19 -32v-290q0 -21 -19 -32t-37 2zM390 480v0v0v0zM768 480v0v0v0zM390 380v200l-150 -100zM768 380v200
l-151 -100z" />
    <glyph glyph-name="gamepad" unicode="GAMEPAD" 
d="M480 654v0v0v0v0v0zM654 480v0v0v0v0v0zM306 480v0v0v0v0v0zM480 306v0v0v0v0v0zM455 594l-64 64q-6 5 -8.5 11.5t-2.5 14.5v140q0 15 10.5 25.5t25.5 10.5h128q15 0 25.5 -10.5t10.5 -25.5v-140q0 -8 -2.5 -14.5t-8.5 -11.5l-64 -64q-11 -11 -25 -11t-25 11zM684 380
q-8 0 -14.5 2.5t-11.5 8.5l-64 64q-11 11 -11 25t11 25l64 64q5 6 11.5 8.5t14.5 2.5h140q15 0 25.5 -10.5t10.5 -25.5v-128q0 -15 -10.5 -25.5t-25.5 -10.5h-140zM136 380q-15 0 -25.5 10.5t-10.5 25.5v128q0 15 10.5 25.5t25.5 10.5h140q8 0 14.5 -2.5t11.5 -8.5l64 -64
q11 -11 11 -25t-11 -25l-64 -64q-5 -6 -11.5 -8.5t-14.5 -2.5h-140zM416 100q-15 0 -25.5 10.5t-10.5 25.5v140q0 8 2.5 14.5t8.5 11.5l64 64q11 11 25 11t25 -11l64 -64q6 -5 8.5 -11.5t2.5 -14.5v-140q0 -15 -10.5 -25.5t-25.5 -10.5h-128zM480 654l40 40v106h-80v-106z
M160 440h106l40 40l-40 40h-106v-80zM440 160h80v106l-40 40l-40 -40v-106zM694 440h106v80h-106l-40 -40z" />
    <glyph glyph-name="hearing" unicode="HEARING" 
d="M681 90q-57 0 -95 30.5t-58 88.5q-16 47 -33.5 69t-72.5 66q-62 49 -96.5 110.5t-34.5 145.5q0 115 77.5 192.5t192.5 77.5q105 0 179 -64t88 -163q2 -13 -6.5 -23t-22.5 -10q-11 0 -19.5 7.5t-11.5 19.5q-11 75 -69 124t-138 49q-88 0 -149 -60.5t-61 -149.5
q0 -70 29.5 -121.5t80.5 -89.5q49 -37 76.5 -71t43.5 -78q15 -45 37 -67.5t63 -22.5q28 0 50.5 15.5t32.5 40.5q5 11 13 17.5t18 6.5q15 0 24 -10.5t5 -24.5q-14 -46 -53 -75.5t-90 -29.5zM226 331q-45 56 -70 124.5t-25 144.5q0 77 26 147t71 126q9 10 21.5 11.5t22.5 -7.5
q8 -9 9 -21t-8 -22q-39 -49 -60.5 -108t-21.5 -126q0 -65 21.5 -124t60.5 -108q9 -10 8.5 -22t-9.5 -21q-10 -9 -23.5 -7t-22.5 13zM561 508q-39 0 -65.5 27t-26.5 65q0 39 26.5 65.5t65.5 26.5t66 -26.5t27 -65.5q0 -38 -27 -65t-66 -27z" />
    <glyph glyph-name="high_quality" unicode="HIGH_QUALITY" 
d="M590 366v-36q0 -10 7 -17t17 -7t17 7t7 17v36h28q18 0 30 12t12 30v144q0 18 -12 30t-30 12h-104q-18 0 -30 -12t-12 -30v-144q0 -18 12 -30t30 -12h28zM300 446h92v-56q0 -10 7 -17t17 -7t17 7t7 17v180q0 10 -7 17t-17 7t-17 -7t-7 -17v-76h-92v76q0 10 -7 17t-17 7
t-17 -7t-7 -17v-180q0 -10 7 -17t17 -7t17 7t7 17v56zM574 414q-2 0 -4 2t-2 4v120q0 2 2 4t4 2h80q2 0 4 -2t2 -4v-120q0 -2 -2 -4t-4 -2h-80zM172 180q-30 0 -51 21t-21 51v456q0 30 21 51t51 21h616q30 0 51 -21t21 -51v-456q0 -30 -21 -51t-51 -21h-616zM172 240h616
q4 0 8 4t4 8v456q0 4 -4 8t-8 4h-616q-4 0 -8 -4t-4 -8v-456q0 -4 4 -8t8 -4zM160 240v4v8v456v8v4v0v-4v-8v-456v-8v-4v0z" />
    <glyph glyph-name="autorenew" unicode="AUTORENEW" 
d="M230 478q0 -18 2.5 -35t8.5 -34q3 -13 -1.5 -24.5t-15.5 -16.5q-12 -6 -23.5 -1.5t-15.5 17.5q-8 23 -11.5 46.5t-3.5 47.5q0 130 90.5 221t219.5 91h31l-53 53q-8 8 -8 20.5t8 21.5q9 9 21.5 9t20.5 -9l100 -100q11 -11 11 -25t-11 -25l-100 -100q-8 -8 -20.5 -8.5
t-21.5 8.5q-8 9 -8 21t8 21l53 53h-31q-104 0 -177 -73.5t-73 -178.5zM730 482q0 18 -2.5 35t-8.5 34q-3 13 1.5 24.5t15.5 16.5q12 6 23.5 1.5t15.5 -17.5q8 -23 11.5 -46.5t3.5 -47.5q0 -130 -90.5 -221t-219.5 -91h-31l53 -53q8 -8 8 -20.5t-8 -21.5q-9 -9 -21.5 -9
t-20.5 9l-100 100q-11 11 -11 25t11 25l100 100q8 8 20.5 8.5t21.5 -8.5q8 -9 8 -21t-8 -21l-53 -53h31q104 0 177 73.5t73 178.5z" />
    <glyph glyph-name="mic" unicode="KEYBOARD_VOICE" 
d="M480 420q-42 0 -71 29t-29 71v240q0 42 29 71t71 29t71 -29t29 -71v-240q0 -42 -29 -71t-71 -29zM480 640v0v0v0v0v0v0v0v0v0v0zM480 130q-13 0 -21.5 8.5t-8.5 21.5v102q-91 11 -154.5 74t-73.5 152q-2 13 7 22.5t23 9.5q11 0 19.5 -8t10.5 -20q10 -73 66 -122.5
t132 -49.5t132 49.5t66 122.5q2 12 10.5 20t19.5 8q14 0 23 -9.5t7 -22.5q-10 -89 -73.5 -152t-154.5 -74v-102q0 -13 -8.5 -21.5t-21.5 -8.5zM480 480q17 0 28.5 11.5t11.5 28.5v240q0 17 -11.5 28.5t-28.5 11.5t-28.5 -11.5t-11.5 -28.5v-240q0 -17 11.5 -28.5t28.5 -11.5
z" />
    <glyph glyph-name="mic_off" unicode="MIC_OFF" 
d="M690 393l-45 45q7 11 12 25t7 29q2 12 10.5 20t19.5 8q14 0 23 -9.5t7 -22.5q-4 -27 -12.5 -50.5t-21.5 -44.5zM561 523l-55 55v182q0 17 -11.5 28.5t-28.5 11.5t-28.5 -11.5t-11.5 -28.5v-101l-60 60v41q0 42 29 71t71 29t71 -29t29 -71v-214q0 -7 -1.5 -12.5
t-3.5 -10.5zM466 618v0v0v0v0v0v0v0zM774 112l-686 686q-8 8 -8 20.5t8 21.5q9 9 21.5 9t20.5 -9l686 -685q8 -9 8 -21.5t-8 -21.5q-9 -8 -21.5 -8t-20.5 8zM436 160v102q-91 11 -154.5 74t-73.5 152q-2 13 7 22.5t23 9.5q11 0 19 -8t11 -20q10 -73 66 -122.5t132 -49.5
q38 0 72 14t60 38l43 -43q-29 -27 -66 -45t-79 -22v-102q0 -13 -8.5 -21.5t-21.5 -8.5t-21.5 8.5t-8.5 21.5z" />
    <glyph glyph-name="movie" unicode="MOVIE_CREATION" 
d="M172 780l70 -140h120l-70 140h80l70 -140h120l-70 140h80l70 -140h120l-70 140h96q30 0 51 -21t21 -51v-456q0 -30 -21 -51t-51 -21h-616q-30 0 -51 21t-21 51v456q0 30 21 51t51 21v0zM160 580v-328q0 -5 3.5 -8.5t8.5 -3.5h616q5 0 8.5 3.5t3.5 8.5v328h-640zM160 580
v0v-328v-8.5v-3.5v0v3.5v8.5v328z" />
    <glyph glyph-name="library_add" unicode="LIBRARY_ADD" 
d="M550 410q13 0 21.5 8.5t8.5 21.5v90h90q13 0 21.5 8.5t8.5 21.5t-8.5 21.5t-21.5 8.5h-90v90q0 13 -8.5 21.5t-21.5 8.5t-21.5 -8.5t-8.5 -21.5v-90h-90q-13 0 -21.5 -8.5t-8.5 -21.5t8.5 -21.5t21.5 -8.5h90v-90q0 -13 8.5 -21.5t21.5 -8.5zM322 260q-30 0 -51 21
t-21 51v456q0 30 21 51t51 21h456q30 0 51 -21t21 -51v-456q0 -30 -21 -51t-51 -21h-456zM322 320h456q4 0 8 4t4 8v456q0 4 -4 8t-8 4h-456q-4 0 -8 -4t-4 -8v-456q0 -4 4 -8t8 -4zM182 120q-30 0 -51 21t-21 51v486q0 12 8.5 21t21.5 9t21.5 -9t8.5 -21v-486q0 -4 4 -8
t8 -4h486q12 0 21 -8.5t9 -21.5t-9 -21.5t-21 -8.5h-486zM310 800v0v-3.5v-8.5v-456v-8.5v-3.5v0v3.5v8.5v456v8.5v3.5z" />
    <glyph glyph-name="library_books" unicode="LIBRARY_BOOKS" 
d="M430 410h90q12 0 21 8.5t9 21.5t-9 21.5t-21 8.5h-90q-13 0 -21.5 -8.5t-8.5 -21.5t8.5 -21.5t21.5 -8.5zM430 530h239q13 0 21.5 8.5t8.5 21.5t-8.5 21.5t-21.5 8.5h-239q-13 0 -21.5 -8.5t-8.5 -21.5t8.5 -21.5t21.5 -8.5zM430 650h239q13 0 21.5 8.5t8.5 21.5
t-8.5 21.5t-21.5 8.5h-239q-13 0 -21.5 -8.5t-8.5 -21.5t8.5 -21.5t21.5 -8.5zM322 260q-30 0 -51 21t-21 51v456q0 30 21 51t51 21h456q30 0 51 -21t21 -51v-456q0 -30 -21 -51t-51 -21h-456zM322 320h456q4 0 8 4t4 8v456q0 4 -4 8t-8 4h-456q-4 0 -8 -4t-4 -8v-456
q0 -4 4 -8t8 -4zM182 120q-30 0 -51 21t-21 51v486q0 12 8.5 21t21.5 9t21.5 -9t8.5 -21v-486q0 -4 4 -8t8 -4h486q12 0 21 -8.5t9 -21.5t-9 -21.5t-21 -8.5h-486zM310 800v0v-3.5v-8.5v-456v-8.5v-3.5v0v3.5v8.5v456v8.5v3.5z" />
    <glyph glyph-name="library_music" unicode="LIBRARY_MUSIC" 
d="M494 366q38 0 64 26t26 64v225h79q15 0 25 10t10 25t-10 25.5t-25 10.5h-79q-15 0 -25.5 -10.5t-10.5 -25.5v-191q-11 11 -24.5 16t-29.5 5q-38 0 -64 -26t-26 -64t26 -64t64 -26zM322 260q-30 0 -51 21t-21 51v456q0 30 21 51t51 21h456q30 0 51 -21t21 -51v-456
q0 -30 -21 -51t-51 -21h-456zM322 320h456q4 0 8 4t4 8v456q0 4 -4 8t-8 4h-456q-4 0 -8 -4t-4 -8v-456q0 -4 4 -8t8 -4zM182 120q-30 0 -51 21t-21 51v486q0 12 8.5 21t21.5 9t21.5 -9t8.5 -21v-486q0 -4 4 -8t8 -4h486q12 0 21 -8.5t9 -21.5t-9 -21.5t-21 -8.5h-486z
M310 800v0v-3.5v-8.5v-456v-8.5v-3.5v0v3.5v8.5v456v8.5v3.5z" />
    <glyph glyph-name="verified" unicode="NEW_RELEASES" 
d="M336 113l-55 93l-105 22q-13 3 -21 14.5t-6 24.5l10 108l-71 81q-10 10 -10 24t10 24l71 81l-10 108q-2 13 6 24.5t21 14.5l105 22l55 93q8 12 20.5 16.5t24.5 -1.5l99 -42l99 42q12 6 24.5 1.5t20.5 -16.5l55 -93l105 -22q13 -3 21 -14.5t6 -24.5l-10 -108l71 -81
q10 -10 10 -24t-10 -24l-71 -81l10 -108q2 -13 -6 -24.5t-21 -14.5l-105 -22l-55 -93q-8 -12 -20.5 -16.5t-24.5 1.5l-99 42l-99 -42q-12 -6 -24.5 -1.5t-20.5 16.5zM378 162l102 43l103 -43l57 96l110 25l-10 113l74 84l-74 85l10 113l-110 24l-58 96l-102 -43l-103 43
l-57 -96l-110 -24l10 -113l-74 -85l74 -84l-10 -114l110 -24zM480 480v0v0v0v0v0v0v0v0v0v0v0v0v0v0v0v0v0v0v0v0zM438 437l-65 65q-8 8 -20.5 8t-21.5 -9t-9 -21t9 -21l82 -82q11 -11 25 -11t25 11l166 166q9 9 9 21t-9 21t-21 9.5t-22 -8.5z" />
    <glyph glyph-name="block" unicode="BLOCK" 
d="M480 100q-79 0 -148.5 30t-120.5 81t-81 120.5t-30 148.5t30 148.5t81 120.5t120.5 81t148.5 30t148.5 -30t120.5 -81t81 -120.5t30 -148.5t-30 -148.5t-81 -120.5t-120.5 -81t-148.5 -30zM480 160q134 0 227 93t93 227q0 56 -19 108.5t-55 95.5l-450 -450
q43 -36 95.5 -55t108.5 -19zM234 276l450 450q-43 36 -95.5 55t-108.5 19q-134 0 -227 -93t-93 -227q0 -56 19 -108.5t55 -95.5z" />
    <glyph glyph-name="pause" unicode="PAUSE" 
d="M590 220q-25 0 -42.5 17.5t-17.5 42.5v400q0 25 17.5 42.5t42.5 17.5h90q25 0 42.5 -17.5t17.5 -42.5v-400q0 -25 -17.5 -42.5t-42.5 -17.5h-90zM280 220q-25 0 -42.5 17.5t-17.5 42.5v400q0 25 17.5 42.5t42.5 17.5h90q25 0 42.5 -17.5t17.5 -42.5v-400
q0 -25 -17.5 -42.5t-42.5 -17.5h-90zM590 280h90v400h-90v-400zM280 280h90v400h-90v-400zM280 680v0v-400v0v400zM590 680v0v-400v0v400z" />
    <glyph glyph-name="pause_circle" unicode="PAUSE_CIRCLE_OUTLINE" 
d="M406 330q13 0 21.5 8.5t8.5 21.5v240q0 13 -8.5 21.5t-21.5 8.5t-21.5 -8.5t-8.5 -21.5v-240q0 -13 8.5 -21.5t21.5 -8.5zM554 330q13 0 21.5 8.5t8.5 21.5v240q0 13 -8.5 21.5t-21.5 8.5t-21.5 -8.5t-8.5 -21.5v-240q0 -13 8.5 -21.5t21.5 -8.5zM480 100
q-79 0 -148.5 30t-120.5 81t-81 120.5t-30 148.5t30 148.5t81 120.5t120.5 81t148.5 30t148.5 -30t120.5 -81t81 -120.5t30 -148.5t-30 -148.5t-81 -120.5t-120.5 -81t-148.5 -30zM480 160q134 0 227 93t93 227t-93 227t-227 93t-227 -93t-93 -227t93 -227t227 -93zM480 480
v0v0v0v0v0v0v0v0z" />
    <glyph glyph-name="play_arrow" unicode="PLAY_ARROW" 
d="M395 271q-18 -12 -36.5 -1t-18.5 32v356q0 21 18.5 32t36.5 -1l280 -178q17 -11 17 -31t-17 -31zM400 480v0v0v0zM400 346l211 134l-211 134v-268z" />
    <glyph glyph-name="play_circle" unicode="PLAY_CIRCLE" 
d="M432 345l174 112q13 8 13 22.5t-13 23.5l-174 112q-14 9 -28 1t-14 -24v-224q0 -16 14 -24t28 1zM480 100q-79 0 -148.5 30t-120.5 81t-81 120.5t-30 148.5t30 148.5t81 120.5t120.5 81t148.5 30t148.5 -30t120.5 -81t81 -120.5t30 -148.5t-30 -148.5t-81 -120.5
t-120.5 -81t-148.5 -30zM480 160q134 0 227 93t93 227t-93 227t-227 93t-227 -93t-93 -227t93 -227t227 -93zM480 480v0v0v0v0v0v0v0v0z" />
    <glyph glyph-name="playlist_add" unicode="PLAYLIST_ADD" 
d="M680 170q-13 0 -21.5 8.5t-8.5 21.5v130h-130q-13 0 -21.5 8.5t-8.5 21.5t8.5 21.5t21.5 8.5h130v130q0 13 8.5 21.5t21.5 8.5t21.5 -8.5t8.5 -21.5v-130h130q13 0 21.5 -8.5t8.5 -21.5t-8.5 -21.5t-21.5 -8.5h-130v-130q0 -13 -8.5 -21.5t-21.5 -8.5zM160 330
q-13 0 -21.5 8.5t-8.5 21.5t8.5 21.5t21.5 8.5h220q13 0 21.5 -8.5t8.5 -21.5t-8.5 -21.5t-21.5 -8.5h-220zM160 490q-13 0 -21.5 8.5t-8.5 21.5t8.5 21.5t21.5 8.5h380q13 0 21.5 -8.5t8.5 -21.5t-8.5 -21.5t-21.5 -8.5h-380zM160 650q-13 0 -21.5 8.5t-8.5 21.5t8.5 21.5
t21.5 8.5h380q13 0 21.5 -8.5t8.5 -21.5t-8.5 -21.5t-21.5 -8.5h-380z" />
    <glyph glyph-name="queue_music" unicode="QUEUE_MUSIC" 
d="M640 170q-46 0 -78 32t-32 78t32 78t78 32q13 0 25.5 -3.5t24.5 -12.5v306q0 13 8.5 21.5t21.5 8.5h115q14 0 24.5 -10t10.5 -25t-10.5 -25.5t-24.5 -10.5h-85v-359q0 -46 -32 -78t-78 -32zM160 650q-13 0 -21.5 8.5t-8.5 21.5t8.5 21.5t21.5 8.5h400q13 0 21.5 -8.5
t8.5 -21.5t-8.5 -21.5t-21.5 -8.5h-400zM160 490q-13 0 -21.5 8.5t-8.5 21.5t8.5 21.5t21.5 8.5h400q13 0 21.5 -8.5t8.5 -21.5t-8.5 -21.5t-21.5 -8.5h-400zM160 330q-13 0 -21.5 8.5t-8.5 21.5t8.5 21.5t21.5 8.5h240q13 0 21.5 -8.5t8.5 -21.5t-8.5 -21.5t-21.5 -8.5
h-240z" />
    <glyph glyph-name="radio" unicode="RADIO" 
d="M172 100q-30 0 -51 21t-21 51v456q0 26 15.5 46.5t39.5 30.5l436 177q10 5 20.5 0.5t14.5 -15.5t-0.5 -21t-14.5 -14l-324 -132h501q30 0 51 -21t21 -51v-456q0 -30 -21 -51t-51 -21h-616zM160 449v-277q0 -5 3.5 -8.5t8.5 -3.5h616q5 0 8.5 3.5t3.5 8.5v277h-640z
M160 509h490v47q0 13 8.5 21.5t21.5 8.5t21.5 -8.5t8.5 -21.5v-47h90v119q0 5 -3.5 8.5t-8.5 3.5h-616q-5 0 -8.5 -3.5t-3.5 -8.5v-119zM317 212q38 0 65 27t27 66q0 38 -27 65t-65 27q-39 0 -65.5 -27t-26.5 -65q0 -39 26.5 -66t65.5 -27zM160 449v0v-277v-8.5v-3.5v0v3.5
v8.5v277z" />
    <glyph glyph-name="recent_actors" unicode="RECENT_ACTORS" 
d="M139 220q-36 0 -60 24t-24 60v352q0 36 24 60t60 24h353q36 0 59.5 -24t23.5 -60v-352q0 -36 -23.5 -60t-59.5 -24h-353zM115 344q44 28 94 43t106 15t106 -15t94 -43v312q0 10 -6.5 17t-16.5 7h-353q-10 0 -17 -7t-7 -17v-312zM315 342q-43 0 -86 -12.5t-82 -36.5
q1 -6 7.5 -9.5t13.5 -3.5h295q7 0 13 3.5t10 9.5q-39 23 -82.5 36t-88.5 13zM315 436q-42 0 -72.5 30.5t-30.5 73.5t30.5 73.5t72.5 30.5q43 0 73.5 -30.5t30.5 -73.5t-30.5 -73.5t-73.5 -30.5zM315 492q20 0 34 14t14 34t-14 34t-34 14q-19 0 -33 -14t-14 -34t14 -34
t33 -14zM710 220q-13 0 -21.5 8.5t-8.5 21.5v460q0 13 8.5 21.5t21.5 8.5t21.5 -8.5t8.5 -21.5v-460q0 -13 -8.5 -21.5t-21.5 -8.5zM875 220q-13 0 -21.5 8.5t-8.5 21.5v460q0 13 8.5 21.5t21.5 8.5q12 0 21 -8.5t9 -21.5v-460q0 -13 -9 -21.5t-21 -8.5zM315 540v0v0v0v0v0
v0v0v0zM317 280v0v0v0v0v0v0v0v0v0z" />
    <glyph glyph-name="repeat" unicode="REPEAT" 
d="M686 274v130q0 13 8.5 21.5t21.5 8.5t21.5 -8.5t8.5 -20.5v-155q0 -15 -10.5 -25.5t-25.5 -10.5h-457l51 -51q10 -10 10 -22t-9 -22q-9 -9 -21.5 -9t-20.5 8l-100 101q-10 10 -10 25t10 25l99 99q9 10 21.5 10t21.5 -10q9 -9 9 -21t-9 -21l-52 -52h433zM274 686v-130
q0 -13 -8.5 -21.5t-21.5 -8.5t-21.5 8.5t-8.5 20.5v155q0 15 10.5 25.5t25.5 10.5h457l-51 51q-10 10 -10 22t9 22q9 9 21.5 9t20.5 -8l100 -101q10 -10 10 -25t-10 -25l-99 -99q-9 -10 -21.5 -10t-21.5 10q-9 9 -9 21t9 21l52 52h-433z" />
    <glyph glyph-name="repeat_one" unicode="REPEAT_ONE" 
d="M466 546h-31q-9 0 -16 7t-7 17t7 17t17 7h53q11 0 18 -7t7 -18v-180q0 -9 -7 -16t-17 -7t-17 7t-7 17v156zM686 274v130q0 13 8.5 21.5t21.5 8.5t21.5 -8.5t8.5 -20.5v-155q0 -15 -10.5 -25.5t-25.5 -10.5h-457l51 -51q10 -10 10 -22t-9 -22q-9 -9 -21.5 -9t-20.5 8
l-100 101q-10 10 -10 25t10 25l99 99q9 10 21.5 10t21.5 -10q9 -9 9 -21t-9 -21l-52 -52h433zM274 686v-130q0 -13 -8.5 -21.5t-21.5 -8.5t-21.5 8.5t-8.5 20.5v155q0 15 10.5 25.5t25.5 10.5h457l-51 51q-10 10 -10 22t9 22q9 9 21.5 9t20.5 -8l100 -101q10 -10 10 -25
t-10 -25l-99 -99q-9 -10 -21.5 -10t-21.5 10q-9 9 -9 21t9 21l52 52h-433z" />
    <glyph glyph-name="replay" unicode="REPLAY" 
d="M480 100q-71 0 -132.5 27t-107.5 73t-73 107.5t-27 132.5q0 13 8.5 21.5t21.5 8.5t21.5 -8.5t8.5 -21.5q0 -117 81.5 -198.5t198.5 -81.5t198.5 81.5t81.5 198.5t-81.5 198.5t-198.5 81.5h-11l43 -42q9 -9 9 -21t-9 -22q-9 -9 -21.5 -9.5t-21.5 9.5l-90 90
q-11 11 -11 25.5t11 25.5l91 90q9 9 21 9t22 -10q8 -9 8.5 -20.5t-8.5 -21.5l-44 -43h11q71 0 132.5 -27t107.5 -73t73 -107.5t27 -132.5t-27 -132.5t-73 -107.5t-107.5 -73t-132.5 -27z" />
    <glyph glyph-name="shuffle" unicode="SHUFFLE" 
d="M370 548l-175 176q-8 8 -8 20.5t8 20.5q9 9 21 9t21 -9l175 -175zM600 170q-13 0 -21.5 8.5t-8.5 21.5t8.5 21.5t21.5 8.5h89l-141 140l43 43l139 -139v86q0 13 8.5 21.5t21.5 8.5t21.5 -8.5t8.5 -21.5v-154q0 -15 -10.5 -25.5t-25.5 -10.5h-154zM195 195q-9 9 -9 21
t9 21l493 493h-88q-13 0 -21.5 8.5t-8.5 21.5t8.5 21.5t21.5 8.5h154q15 0 25.5 -10.5t10.5 -25.5v-154q0 -13 -8.5 -21.5t-21.5 -8.5t-21.5 8.5t-8.5 21.5v88l-493 -493q-9 -9 -21 -9t-21 9z" />
    <glyph glyph-name="skip_next" unicode="SKIP_NEXT" 
d="M685 268q-12 0 -21 8.5t-9 21.5v364q0 13 9 21.5t21 8.5q13 0 21.5 -8.5t8.5 -21.5v-364q0 -13 -8.5 -21.5t-21.5 -8.5zM301 305q-18 -13 -37 -2t-19 32v290q0 21 19 32t37 -2l217 -145q17 -11 17 -30t-17 -30zM305 480v0v0v0zM305 380l150 100l-150 100v-200z" />
    <glyph glyph-name="skip_previous" unicode="SKIP_PREVIOUS" 
d="M275 268q-13 0 -21.5 8.5t-8.5 21.5v364q0 13 8.5 21.5t21.5 8.5q12 0 21 -8.5t9 -21.5v-364q0 -13 -9 -21.5t-21 -8.5zM659 305l-217 145q-17 11 -17 30t17 30l217 145q18 13 37 2t19 -32v-290q0 -21 -19 -32t-37 2zM655 480v0v0v0zM655 380v200l-150 -100z" />
    <glyph glyph-name="snooze" unicode="SNOOZE" 
d="M454 382l115 130q1 0 5 12v15q0 10 -7 16.5t-17 6.5h-140q-10 0 -17 -6.5t-7 -16.5q0 -11 7 -17.5t17 -6.5h98l-117 -131q-1 -1 -5 -13v-12q0 -11 7 -17.5t17 -6.5h140q10 0 17 6.5t7 17.5q0 10 -7 16.5t-17 6.5h-96zM480 100q-71 0 -132.5 27t-107.5 73t-73 107.5
t-27 132.5t27 132.5t73 107.5t107.5 73t132.5 27t132.5 -27t107.5 -73t73 -107.5t27 -132.5t-27 -132.5t-73 -107.5t-107.5 -73t-132.5 -27zM480 440v0v0v0v0v0v0v0v0zM97 669q-9 8 -9 20.5t9 21.5l112 112q8 9 21 9t21 -9q9 -8 9 -20.5t-9 -21.5l-112 -112q-9 -9 -21.5 -9
t-20.5 9zM863 669q-8 -9 -20.5 -9t-21.5 9l-112 112q-9 9 -9 21.5t9 20.5q8 9 20.5 9t21.5 -9l112 -112q9 -8 9 -21t-9 -21zM480 160q117 0 198.5 81.5t81.5 198.5t-81.5 198.5t-198.5 81.5t-198.5 -81.5t-81.5 -198.5t81.5 -198.5t198.5 -81.5z" />
    <glyph glyph-name="stop" unicode="STOP" 
d="M320 640v0v-320v0v320zM332 260q-30 0 -51 21t-21 51v296q0 30 21 51t51 21h296q30 0 51 -21t21 -51v-296q0 -30 -21 -51t-51 -21h-296zM320 320h320v320h-320v-320z" />
    <glyph glyph-name="subtitles" unicode="SUBTITLES" 
d="M172 180q-30 0 -51 21t-21 51v456q0 30 21 51t51 21h616q30 0 51 -21t21 -51v-456q0 -30 -21 -51t-51 -21h-616zM172 240h616q4 0 8 4t4 8v456q0 4 -4 8t-8 4h-616q-4 0 -8 -4t-4 -8v-456q0 -4 4 -8t8 -4zM160 240v4v8v456v8v4v0v-4v-8v-456v-8v-4v0zM282 332h256
q13 0 21.5 8.5t8.5 21.5q0 12 -8.5 21t-21.5 9h-256q-13 0 -21.5 -9t-8.5 -21q0 -13 8.5 -21.5t21.5 -8.5zM422 483h256q13 0 21.5 8.5t8.5 21.5t-8.5 21.5t-21.5 8.5h-256q-13 0 -21.5 -8.5t-8.5 -21.5t8.5 -21.5t21.5 -8.5zM282 483q12 0 21 8.5t9 21.5t-9 21.5t-21 8.5
q-13 0 -21.5 -8.5t-8.5 -21.5t8.5 -21.5t21.5 -8.5zM678 332q13 0 21.5 8.5t8.5 21.5q0 12 -8.5 21t-21.5 9q-12 0 -21 -9t-9 -21q0 -13 9 -21.5t21 -8.5z" />
    <glyph glyph-name="surround_sound" unicode="SURROUND_SOUND" 
d="M480 374q44 0 75 31t31 75t-31 75t-75 31t-75 -31t-31 -75t31 -75t75 -31zM689 480q0 -32 -8.5 -61.5t-26.5 -56.5q-7 -10 -7 -23t9 -21q9 -10 21 -9t20 11q25 34 38.5 75t13.5 85t-13.5 85t-38.5 75q-8 10 -20 11t-21 -9q-9 -8 -9 -21t7 -23q18 -27 26.5 -56.5
t8.5 -61.5zM271 480q0 32 8.5 61.5t26.5 56.5q7 10 7 23t-9 21q-9 10 -21 9t-20 -11q-25 -34 -38.5 -75t-13.5 -85t13.5 -85t38.5 -75q8 -10 20 -11t21 9q9 8 9 21t-7 23q-18 27 -26.5 56.5t-8.5 61.5zM172 180q-30 0 -51 21t-21 51v456q0 30 21 51t51 21h616q30 0 51 -21
t21 -51v-456q0 -30 -21 -51t-51 -21h-616zM172 240h616q4 0 8 4t4 8v456q0 4 -4 8t-8 4h-616q-4 0 -8 -4t-4 -8v-456q0 -4 4 -8t8 -4zM160 240v4v8v456v8v4v0v-4v-8v-456v-8v-4v0z" />
    <glyph glyph-name="video_library" unicode="VIDEO_LIBRARY" 
d="M676 537q13 9 13 23t-13 23l-174 112q-14 9 -28 1t-14 -24v-224q0 -16 14 -24t28 1zM322 260q-30 0 -51 21t-21 51v456q0 30 21 51t51 21h456q30 0 51 -21t21 -51v-456q0 -30 -21 -51t-51 -21h-456zM322 320h456q4 0 8 4t4 8v456q0 4 -4 8t-8 4h-456q-4 0 -8 -4t-4 -8
v-456q0 -4 4 -8t8 -4zM182 120q-30 0 -51 21t-21 51v486q0 12 8.5 21t21.5 9t21.5 -9t8.5 -21v-486q0 -4 4 -8t8 -4h486q12 0 21 -8.5t9 -21.5t-9 -21.5t-21 -8.5h-486zM310 800v0v-3.5v-8.5v-456v-8.5v-3.5v0v3.5v8.5v456v8.5v3.5z" />
    <glyph glyph-name="videocam" unicode="VIDEOCAM" 
d="M182 180q-30 0 -51 21t-21 51v456q0 30 21 51t51 21h455q31 0 52 -21t21 -51v-183l109 109q9 9 20 4.5t11 -17.5v-282q0 -13 -11 -17.5t-20 4.5l-109 109v-183q0 -30 -21 -51t-52 -21h-455zM182 240h455q6 0 9.5 3.5t3.5 8.5v456q0 5 -3.5 8.5t-9.5 3.5h-455
q-5 0 -8.5 -3.5t-3.5 -8.5v-456q0 -5 3.5 -8.5t8.5 -3.5zM170 240v3.5v8.5v456v8.5v3.5v0v-3.5v-8.5v-456v-8.5v-3.5v0z" />
    <glyph glyph-name="videocam_off" unicode="VIDEOCAM_OFF" 
d="M820 326l-109 109v-75l-60 60v288q0 5 -3.5 8.5t-9.5 3.5h-288l-60 60h348q31 0 52 -21t21 -51v-183l109 109q9 9 20.5 4.5t11.5 -17.5v-282q0 -13 -11.5 -17.5t-20.5 4.5zM778 95l-697 696q-8 8 -8 20t9 21t21.5 9t21.5 -9l696 -696q8 -8 8 -20t-9 -21t-21.5 -9t-20.5 9
zM502 568v0v0v0v0v0zM178 779l59 -59h-54q-5 0 -8.5 -3.5t-3.5 -8.5v-456q0 -5 3.5 -8.5t8.5 -3.5h455q6 0 9.5 3.5t3.5 8.5v54l59 -59v0q-2 -28 -22.5 -47.5t-49.5 -19.5h-455q-30 0 -51 21t-21 51v456q0 28 19.5 48.5t47.5 22.5v0zM400 472v0v0v0v0v0v0v0v0v0z" />
    <glyph glyph-name="volume_down" unicode="VOLUME_DOWN" 
d="M256 380q-15 0 -25.5 10.5t-10.5 25.5v128q0 15 10.5 25.5t25.5 10.5h112l111 110q17 17 39 7.5t22 -33.5v-368q0 -24 -22 -33.5t-39 7.5l-111 110h-112zM635 334v294q39 -21 62 -61t23 -87t-23 -86t-62 -60zM480 606l-86 -86h-114v-80h114l86 -86v252zM380 480v0v0v0v0
v0v0z" />
    <glyph glyph-name="volume_mute" unicode="VOLUME_MUTE" 
d="M336 380q-15 0 -25.5 10.5t-10.5 25.5v128q0 15 10.5 25.5t25.5 10.5h112l111 110q17 17 39 7.5t22 -33.5v-368q0 -24 -22 -33.5t-39 7.5l-111 110h-112zM560 606l-86 -86h-114v-80h114l86 -86v252zM460 480v0v0v0v0v0v0z" />
    <glyph glyph-name="volume_off" unicode="VOLUME_OFF" 
d="M758 96l-100 99q-12 -7 -24.5 -13.5t-25.5 -12.5q-15 -6 -28 4t-13 27q0 8 5 14t12 10q8 3 16 6.5t15 7.5l-143 144v-86q0 -24 -22.5 -33.5t-39.5 7.5l-110 110h-112q-16 0 -26 10.5t-10 25.5v128q0 15 10 25.5t26 10.5h85l-172 172q-8 9 -8.5 21.5t8.5 21.5q9 8 21 8
t21 -8l657 -657q8 -9 8.5 -21.5t-8.5 -20.5q-9 -9 -21 -9t-21 9zM608 793q95 -40 153 -124t58 -188q0 -53 -15.5 -101t-44.5 -89l-43 43q21 32 32 69.5t11 77.5q0 86 -48 155.5t-127 101.5q-8 4 -12.5 10.5t-4.5 14.5q0 17 13 26.5t28 3.5zM372 481v0v0v0v0v0v0zM637 413
l-70 70v145q40 -22 62.5 -62t22.5 -86q0 -18 -4 -34.5t-11 -32.5zM472 579l-87 86l25 25q17 17 39.5 7.5t22.5 -33.5v-85zM412 354v88l-79 78h-121v-80h114z" />
    <glyph glyph-name="volume_up" unicode="VOLUME_UP" 
d="M602 169q-15 -6 -27.5 4t-12.5 27q0 8 4.5 14t12.5 10q79 32 127 101.5t48 155.5t-48 155.5t-127 101.5q-9 4 -13 10.5t-4 14.5q0 17 12.5 26.5t27.5 3.5q96 -40 154 -124t58 -188t-58 -188t-154 -124zM182 380q-15 0 -25.5 10.5t-10.5 25.5v128q0 15 10.5 25.5
t25.5 10.5h113l110 110q17 17 39 7.5t22 -33.5v-368q0 -24 -22 -33.5t-39 7.5l-110 110h-113zM562 334v294q38 -21 61 -61t23 -87t-23 -86t-61 -60zM406 606l-86 -86h-114v-80h114l86 -86v252zM306 480v0v0v0v0v0v0z" />
    <glyph glyph-name="web" unicode="WEB" 
d="M172 180q-30 0 -51 21t-21 51v456q0 30 21 51t51 21h616q30 0 51 -21t21 -51v-456q0 -30 -21 -51t-51 -21h-616zM172 240h418v148h-430v-136q0 -4 4 -8t8 -4zM650 240h138q4 0 8 4t4 8v343h-150v-355zM160 448h430v147h-430v-147z" />
    <glyph glyph-name="hd" unicode="HD" 
d="M300 446h92v-56q0 -10 7 -17t17 -7t17 7t7 17v180q0 10 -7 17t-17 7t-17 -7t-7 -17v-76h-92v76q0 10 -7 17t-17 7t-17 -7t-7 -17v-180q0 -10 7 -17t17 -7t17 7t7 17v56zM538 366h128q18 0 30 12t12 30v144q0 18 -12 30t-30 12h-128q-7 0 -12.5 -5.5t-5.5 -12.5v-192
q0 -7 5.5 -12.5t12.5 -5.5zM568 414v132h86q2 0 4 -2t2 -4v-120q0 -2 -2 -4t-4 -2h-86zM172 180q-30 0 -51 21t-21 51v456q0 30 21 51t51 21h616q30 0 51 -21t21 -51v-456q0 -30 -21 -51t-51 -21h-616zM172 240h616q4 0 8 4t4 8v456q0 4 -4 8t-8 4h-616q-4 0 -8 -4t-4 -8
v-456q0 -4 4 -8t8 -4zM160 240v4v8v456v8v4v0v-4v-8v-456v-8v-4v0z" />
    <glyph glyph-name="sort_by_alpha" unicode="SORT_BY_ALPHA" 
d="M135 288q-18 0 -25.5 11.5t-1.5 28.5l122 314q5 12 17.5 21t26.5 9q12 0 25 -9t17 -21l123 -314q6 -16 -2 -28t-26 -12q-9 0 -17 5.5t-11 13.5l-28 77h-164l-29 -76q-3 -8 -10.5 -14t-16.5 -6zM209 436h126l-60 166h-5zM594 288q-16 0 -27 11t-11 27q0 8 4 18.5t8 15.5
l194 257h-170q-12 0 -20 8t-8 19q0 12 8 20t20 8h200q16 0 27 -11t11 -27q0 -8 -3.5 -18.5t-8.5 -15.5l-192 -257h178q12 0 20 -8t8 -19q0 -12 -8 -20t-20 -8h-210zM414 764q-13 0 -18 11t5 20l66 67q2 2 13 5q2 0 13 -5l66 -67q10 -9 5 -20t-18 -11h-132zM480 93
q-2 0 -13 5l-66 67q-10 9 -5 20t18 11h132q13 0 18 -11t-5 -20l-66 -67q-2 -2 -13 -5z" />
    <glyph glyph-name="airplay" unicode="AIRPLAY" 
d="M100 292v456q0 30 21 51t51 21h616q30 0 51 -21t21 -51v-456q0 -30 -21 -51t-51 -21h-108v60h108q4 0 8 4t4 8v456q0 4 -4 8t-8 4h-616q-4 0 -8 -4t-4 -8v-456q0 -4 4 -8t8 -4h108v-60h-108q-30 0 -51 21t-21 51zM480 490v0v0v0v0v0v0v0v0v0v0v0v0v0v0v0v0v0zM314 186
l141 140q11 11 25 11t25 -11l141 -140q12 -13 5.5 -29.5t-25.5 -16.5h-292q-19 0 -25.5 16.5t5.5 29.5z" />
    <glyph glyph-name="forward_10" unicode="FORWARD_&#x31;&#x30;" 
d="M480 100q-71 0 -132.5 27t-107.5 73t-73 107.5t-27 132.5t27 132.5t73 107.5t107.5 73t132.5 27h11l-44 43q-9 10 -8.5 21.5t8.5 20.5q10 10 22 10t21 -9l91 -90q11 -11 11 -25.5t-11 -25.5l-90 -90q-9 -10 -21.5 -9.5t-21.5 9.5q-9 10 -9 22t9 21l43 42h-11
q-117 0 -198.5 -81.5t-81.5 -198.5t81.5 -198.5t198.5 -81.5t198.5 81.5t81.5 198.5q0 13 8.5 21.5t21.5 8.5t21.5 -8.5t8.5 -21.5q0 -71 -27 -132.5t-73 -107.5t-107.5 -73t-132.5 -27zM368 506h-33q-11 0 -17.5 7t-6.5 17t6.5 17t17.5 7h57q11 0 17.5 -7t6.5 -17v-180
q0 -10 -6.5 -17t-17.5 -7q-10 0 -17 7t-7 17v156zM504 326q-17 0 -28.5 11.5t-11.5 28.5v148q0 17 11.5 28.5t28.5 11.5h75q17 0 28.5 -11.5t11.5 -28.5v-148q0 -17 -11.5 -28.5t-28.5 -11.5h-75zM516 374h51q2 0 3.5 1t1.5 3v124q0 2 -1.5 3t-3.5 1h-51q-2 0 -3 -1t-1 -3
v-124q0 -2 1 -3t3 -1z" />
    <glyph glyph-name="forward_30" unicode="FORWARD_&#x33;&#x30;" 
d="M480 100q-71 0 -132.5 27t-107.5 73t-73 107.5t-27 132.5t27 132.5t73 107.5t107.5 73t132.5 27h11l-44 43q-9 10 -8.5 21.5t8.5 20.5q10 10 22 10t21 -9l91 -90q11 -11 11 -25.5t-11 -25.5l-90 -90q-9 -10 -21.5 -9.5t-21.5 9.5q-9 10 -9 22t9 21l43 42h-11
q-117 0 -198.5 -81.5t-81.5 -198.5t81.5 -198.5t198.5 -81.5t198.5 81.5t81.5 198.5q0 13 8.5 21.5t21.5 8.5t21.5 -8.5t8.5 -21.5q0 -71 -27 -132.5t-73 -107.5t-107.5 -73t-132.5 -27zM422 326h-97q-11 0 -17.5 7t-6.5 17t6.5 17t17.5 7h83v48h-53q-8 0 -13 5.5t-5 12.5
t5 12.5t13 5.5h53v48h-83q-11 0 -17.5 7t-6.5 17t6.5 17t17.5 7h97q15 0 24.5 -9.5t9.5 -24.5v-160q0 -15 -9.5 -24.5t-24.5 -9.5zM544 326q-17 0 -28.5 11.5t-11.5 28.5v148q0 17 11.5 28.5t28.5 11.5h75q17 0 28.5 -11.5t11.5 -28.5v-148q0 -17 -11.5 -28.5t-28.5 -11.5
h-75zM556 374h51q2 0 3.5 1t1.5 3v124q0 2 -1.5 3t-3.5 1h-51q-2 0 -3 -1t-1 -3v-124q0 -2 1 -3t3 -1z" />
    <glyph glyph-name="forward_5" unicode="FORWARD_&#x35;" 
d="M480 100q-71 0 -132.5 27t-107.5 73t-73 107.5t-27 132.5t27 132.5t73 107.5t107.5 73t132.5 27h11l-44 43q-9 10 -8.5 21.5t8.5 20.5q10 10 22 10t21 -9l91 -90q11 -11 11 -25.5t-11 -25.5l-90 -90q-9 -10 -21.5 -9.5t-21.5 9.5q-9 10 -9 22t9 21l43 42h-11
q-117 0 -198.5 -81.5t-81.5 -198.5t81.5 -198.5t198.5 -81.5t198.5 81.5t81.5 198.5q0 13 8.5 21.5t21.5 8.5t21.5 -8.5t8.5 -21.5q0 -71 -27 -132.5t-73 -107.5t-107.5 -73t-132.5 -27zM520 326h-110q-10 0 -17 7t-7 17t7 17t17 7h96v48h-96q-10 0 -17 7t-7 17v84
q0 10 7 17t17 7h120q10 0 17 -7t7 -17t-7 -17t-17 -7h-96v-48h96q10 0 17 -7t7 -17v-74q0 -14 -10 -24t-24 -10z" />
    <glyph glyph-name="replay_10" unicode="REPLAY_&#x31;&#x30;" 
d="M368 506h-33q-11 0 -17.5 7t-6.5 17t6.5 17t17.5 7h57q11 0 17.5 -7t6.5 -17v-180q0 -10 -6.5 -17t-17.5 -7q-10 0 -17 7t-7 17v156zM504 326q-17 0 -28.5 11.5t-11.5 28.5v148q0 17 11.5 28.5t28.5 11.5h75q17 0 28.5 -11.5t11.5 -28.5v-148q0 -17 -11.5 -28.5
t-28.5 -11.5h-75zM516 374h51q2 0 3.5 1t1.5 3v124q0 2 -1.5 3t-3.5 1h-51q-2 0 -3 -1t-1 -3v-124q0 -2 1 -3t3 -1zM480 100q-71 0 -132.5 27t-107.5 73t-73 107.5t-27 132.5q0 13 8.5 21.5t21.5 8.5t21.5 -8.5t8.5 -21.5q0 -117 81.5 -198.5t198.5 -81.5t198.5 81.5
t81.5 198.5t-81.5 198.5t-198.5 81.5h-11l43 -42q9 -9 9 -21t-9 -22q-9 -9 -21.5 -9.5t-21.5 9.5l-90 90q-11 11 -11 25.5t11 25.5l91 90q9 9 21 9t22 -10q8 -9 8.5 -20.5t-8.5 -21.5l-44 -43h11q71 0 132.5 -27t107.5 -73t73 -107.5t27 -132.5t-27 -132.5t-73 -107.5
t-107.5 -73t-132.5 -27z" />
    <glyph glyph-name="replay_30" unicode="REPLAY_&#x33;&#x30;" 
d="M422 326h-97q-11 0 -17.5 7t-6.5 17t6.5 17t17.5 7h83v48h-53q-8 0 -13 5.5t-5 12.5t5 12.5t13 5.5h53v48h-83q-11 0 -17.5 7t-6.5 17t6.5 17t17.5 7h97q15 0 24.5 -9.5t9.5 -24.5v-160q0 -15 -9.5 -24.5t-24.5 -9.5zM544 326q-17 0 -28.5 11.5t-11.5 28.5v148
q0 17 11.5 28.5t28.5 11.5h75q17 0 28.5 -11.5t11.5 -28.5v-148q0 -17 -11.5 -28.5t-28.5 -11.5h-75zM556 374h51q2 0 3.5 1t1.5 3v124q0 2 -1.5 3t-3.5 1h-51q-2 0 -3 -1t-1 -3v-124q0 -2 1 -3t3 -1zM480 100q-71 0 -132.5 27t-107.5 73t-73 107.5t-27 132.5q0 13 8.5 21.5
t21.5 8.5t21.5 -8.5t8.5 -21.5q0 -117 81.5 -198.5t198.5 -81.5t198.5 81.5t81.5 198.5t-81.5 198.5t-198.5 81.5h-11l43 -42q9 -9 9 -21t-9 -22q-9 -9 -21.5 -9.5t-21.5 9.5l-90 90q-11 11 -11 25.5t11 25.5l91 90q9 9 21 9t22 -10q8 -9 8.5 -20.5t-8.5 -21.5l-44 -43h11
q71 0 132.5 -27t107.5 -73t73 -107.5t27 -132.5t-27 -132.5t-73 -107.5t-107.5 -73t-132.5 -27z" />
    <glyph glyph-name="replay_5" unicode="REPLAY_&#x35;" 
d="M520 326h-110q-10 0 -17 7t-7 17t7 17t17 7h96v48h-96q-10 0 -17 7t-7 17v84q0 10 7 17t17 7h120q10 0 17 -7t7 -17t-7 -17t-17 -7h-96v-48h96q10 0 17 -7t7 -17v-74q0 -14 -10 -24t-24 -10zM480 100q-71 0 -132.5 27t-107.5 73t-73 107.5t-27 132.5q0 13 8.5 21.5
t21.5 8.5t21.5 -8.5t8.5 -21.5q0 -117 81.5 -198.5t198.5 -81.5t198.5 81.5t81.5 198.5t-81.5 198.5t-198.5 81.5h-11l43 -42q9 -9 9 -21t-9 -22q-9 -9 -21.5 -9.5t-21.5 9.5l-90 90q-11 11 -11 25.5t11 25.5l91 90q9 9 21 9t22 -10q8 -9 8.5 -20.5t-8.5 -21.5l-44 -43h11
q71 0 132.5 -27t107.5 -73t73 -107.5t27 -132.5t-27 -132.5t-73 -107.5t-107.5 -73t-132.5 -27z" />
    <glyph glyph-name="add_to_queue" unicode="ADD_TO_QUEUE" 
d="M450 490v-90q0 -13 8.5 -21.5t21.5 -8.5t21.5 8.5t8.5 21.5v90h90q13 0 21.5 8.5t8.5 21.5t-8.5 21.5t-21.5 8.5h-90v90q0 13 -8.5 21.5t-21.5 8.5t-21.5 -8.5t-8.5 -21.5v-90h-90q-13 0 -21.5 -8.5t-8.5 -21.5t8.5 -21.5t21.5 -8.5h90zM172 220q-30 0 -51 21t-21 51v456
q0 30 21 51t51 21h616q30 0 51 -21t21 -51v-456q0 -30 -21 -51t-51 -21h-168v-44q0 -15 -10.5 -25.5t-25.5 -10.5h-208q-15 0 -25.5 10.5t-10.5 25.5v44h-168zM172 280h616q4 0 8 4t4 8v456q0 4 -4 8t-8 4h-616q-4 0 -8 -4t-4 -8v-456q0 -4 4 -8t8 -4zM160 280v4v8v456v8v4
v0v-4v-8v-456v-8v-4v0z" />
    <glyph glyph-name="fiber_dvr" unicode="FIBER_DVR" 
d="M187 366h116q23 0 38.5 15.5t15.5 38.5v120q0 23 -15.5 38.5t-38.5 15.5h-116q-7 0 -12.5 -5.5t-5.5 -12.5v-192q0 -7 5.5 -12.5t12.5 -5.5zM217 414v132h86q2 0 4 -2t2 -4v-120q0 -2 -2 -4t-4 -2h-86zM477 440l-42 137q-3 8 -8.5 12.5t-13.5 4.5q-11 0 -17.5 -9
t-3.5 -20l54 -181q3 -8 9.5 -13t14.5 -5h14q8 0 14.5 5t9.5 13l54 181q3 11 -3.5 20t-17.5 9q-8 0 -13.5 -4.5t-8.5 -12.5zM654 446h54l28 -66q3 -7 8.5 -10.5t12.5 -3.5q12 0 19 10t2 21l-22 52v0q17 5 27.5 20t10.5 31v40q0 23 -15.5 38.5t-38.5 15.5h-116
q-7 0 -12.5 -5.5t-5.5 -12.5v-186q0 -10 7 -17t17 -7t17 7t7 17v56zM654 494v52h86q2 0 4 -2t2 -4v-40q0 -2 -2 -4t-4 -2h-86zM132 180q-30 0 -51 21t-21 51v456q0 30 21 51t51 21h696q30 0 51 -21t21 -51v-456q0 -30 -21 -51t-51 -21h-696zM132 240h696q5 0 8.5 3.5
t3.5 8.5v456q0 5 -3.5 8.5t-8.5 3.5h-696q-5 0 -8.5 -3.5t-3.5 -8.5v-456q0 -5 3.5 -8.5t8.5 -3.5zM120 240v3.5v8.5v456v8.5v3.5v0v-3.5v-8.5v-456v-8.5v-3.5v0z" />
    <glyph glyph-name="fiber_new" unicode="FIBER_NEW" 
d="M132 180q-30 0 -51 21t-21 51v456q0 30 21 51t51 21h696q30 0 51 -21t21 -51v-456q0 -30 -21 -51t-51 -21h-696zM132 240h696q5 0 8.5 3.5t3.5 8.5v456q0 5 -3.5 8.5t-8.5 3.5h-696q-5 0 -8.5 -3.5t-3.5 -8.5v-456q0 -5 3.5 -8.5t8.5 -3.5zM189 516l99 -141
q3 -4 7.5 -6.5t9.5 -2.5h10q8 0 14 6t6 15v186q0 9 -5.5 15t-14.5 6t-15 -6t-6 -15v-129l-97 141q-3 5 -7.5 7t-10.5 2h-10q-9 0 -15 -6t-6 -16v-185q0 -9 5.5 -15t14.5 -6q10 0 15.5 6t5.5 15v129zM404 366h109q9 0 15 6t6 15t-6 15t-15 6h-79v50h79q9 0 15 5.5t6 15.5
q0 9 -6 14.5t-15 5.5h-79v53h79q9 0 15 6t6 15t-6 15t-15 6h-109q-7 0 -12.5 -5.5t-5.5 -12.5v-192q0 -7 5.5 -12.5t12.5 -5.5zM618 366h160q15 0 24.5 9.5t9.5 24.5v173q0 9 -5.5 15t-14.5 6q-10 0 -15.5 -6t-5.5 -15v-159h-51v119q0 9 -6 15t-15 6t-15 -6t-6 -15v-119h-52
v159q0 9 -5.5 15t-15.5 6q-9 0 -14.5 -6t-5.5 -15v-173q0 -15 9.5 -24.5t23.5 -9.5zM120 240v3.5v8.5v456v8.5v3.5v0v-3.5v-8.5v-456v-8.5v-3.5v0z" />
    <glyph glyph-name="playlist_play" unicode="PLAYLIST_PLAY" 
d="M148 650q-13 0 -21.5 8.5t-8.5 21.5t8.5 21.5t21.5 8.5h400q12 0 21 -8.5t9 -21.5t-9 -21.5t-21 -8.5h-400zM148 490q-13 0 -21.5 8.5t-8.5 21.5t8.5 21.5t21.5 8.5h400q12 0 21 -8.5t9 -21.5t-9 -21.5t-21 -8.5h-400zM148 330q-13 0 -21.5 8.5t-8.5 21.5t8.5 21.5
t21.5 8.5h240q12 0 21 -8.5t9 -21.5t-9 -21.5t-21 -8.5h-240zM677 169q-15 -10 -31 -1t-16 27v170q0 18 16 27t31 -1l128 -86q14 -9 14 -25t-14 -25z" />
    <glyph glyph-name="art_track" unicode="ART_TRACK" 
d="M128 220q-31 0 -52 21t-21 51v376q0 30 21 51t52 21h375q30 0 51 -21t21 -51v-376q0 -30 -21 -51t-51 -21h-375zM128 280h375q5 0 8.5 4t3.5 8v376q0 4 -3.5 8t-8.5 4h-375q-5 0 -9 -4t-4 -8v-376q0 -4 4 -8t9 -4zM295 392l-41 55q-6 7 -14.5 7t-14.5 -7l-40 -53
q-7 -10 -1 -19.5t17 -9.5h229q11 0 16 9.5t-2 19.5l-58 79q-6 7 -14.5 7t-14.5 -7zM710 220q-13 0 -21.5 8.5t-8.5 21.5v460q0 13 8.5 21.5t21.5 8.5t21.5 -8.5t8.5 -21.5v-460q0 -13 -8.5 -21.5t-21.5 -8.5zM875 220q-13 0 -21.5 8.5t-8.5 21.5v460q0 13 8.5 21.5t21.5 8.5
q12 0 21 -8.5t9 -21.5v-460q0 -13 -9 -21.5t-21 -8.5zM115 280v4v8v376v8v4v0v-4v-8v-376v-8v-4v0z" />
    <glyph glyph-name="fiber_manual_record" unicode="FIBER_MANUAL_RECORD" 
d="M480 480v0v0v0v0v0v0v0v0zM480 220q-108 0 -184 76t-76 184t76 184t184 76t184 -76t76 -184t-76 -184t-184 -76zM480 280q83 0 141.5 58.5t58.5 141.5t-58.5 141.5t-141.5 58.5t-141.5 -58.5t-58.5 -141.5t58.5 -141.5t141.5 -58.5z" />
    <glyph glyph-name="fiber_smart_record" unicode="FIBER_SMART_RECORD" 
d="M360 220q-109 0 -184.5 75.5t-75.5 184.5t75.5 184.5t184.5 75.5t184.5 -75.5t75.5 -184.5t-75.5 -184.5t-184.5 -75.5zM360 480v0v0v0v0v0v0v0v0zM683 234q-17 -5 -30 2.5t-13 26.5q0 8 6 15.5t14 10.5q63 19 101.5 71.5t38.5 119.5t-38.5 119.5t-101.5 71.5
q-8 3 -14 10.5t-6 16.5q0 18 13 25.5t29 2.5q80 -26 129 -93.5t49 -152.5t-49 -152.5t-128 -93.5zM360 280q83 0 141.5 58.5t58.5 141.5t-58.5 141.5t-141.5 58.5t-141.5 -58.5t-58.5 -141.5t58.5 -141.5t141.5 -58.5z" />
    <glyph glyph-name="music_video" unicode="MUSIC_VIDEO" 
d="M427 289q38 0 64.5 26t26.5 64v221h77q14 0 24.5 10t10.5 25t-10.5 25.5t-24.5 10.5h-77q-15 0 -25.5 -10.5t-10.5 -25.5v-184q-11 8 -25 13.5t-30 5.5q-37 0 -63.5 -26.5t-26.5 -64.5t26.5 -64t63.5 -26zM172 180q-30 0 -51 21t-21 51v456q0 30 21 51t51 21h616
q30 0 51 -21t21 -51v-456q0 -30 -21 -51t-51 -21h-616zM172 240h616q4 0 8 4t4 8v456q0 4 -4 8t-8 4h-616q-4 0 -8 -4t-4 -8v-456q0 -4 4 -8t8 -4zM160 240v4v8v456v8v4v0v-4v-8v-456v-8v-4v0z" />
    <glyph glyph-name="subscriptions" unicode="SUBSCRIPTIONS" 
d="M172 100q-30 0 -51 21t-21 51v376q0 30 21 51t51 21h616q30 0 51 -21t21 -51v-376q0 -30 -21 -51t-51 -21h-616zM172 160h616q4 0 8 4t4 8v376q0 4 -4 8t-8 4h-616q-4 0 -8 -4t-4 -8v-376q0 -4 4 -8t8 -4zM438 238l162 107q8 6 8 15t-8 15l-162 107q-9 7 -18.5 2
t-9.5 -16v-216q0 -11 9.5 -16t18.5 2zM200 675q-13 0 -21.5 9t-8.5 21q0 13 8.5 21.5t21.5 8.5h560q13 0 21.5 -8.5t8.5 -21.5q0 -12 -8.5 -21t-21.5 -9h-560zM320 791q-13 0 -21.5 8.5t-8.5 21.5t8.5 21.5t21.5 8.5h320q13 0 21.5 -8.5t8.5 -21.5t-8.5 -21.5t-21.5 -8.5
h-320zM160 160v4v8v376v8v4v0v-4v-8v-376v-8v-4v0z" />
    <glyph glyph-name="playlist_add_check" unicode="PLAYLIST_ADD_CHECK" 
d="M160 650q-13 0 -21.5 8.5t-8.5 21.5t8.5 21.5t21.5 8.5h400q13 0 21.5 -8.5t8.5 -21.5t-8.5 -21.5t-21.5 -8.5h-400zM160 490q-13 0 -21.5 8.5t-8.5 21.5t8.5 21.5t21.5 8.5h400q13 0 21.5 -8.5t8.5 -21.5t-8.5 -21.5t-21.5 -8.5h-400zM160 330q-13 0 -21.5 8.5
t-8.5 21.5t8.5 21.5t21.5 8.5h240q13 0 21.5 -8.5t8.5 -21.5t-8.5 -21.5t-21.5 -8.5h-240zM633 235l-86 86q-9 9 -9 21t9 21t21 9t21 -9l65 -64l149 149q9 9 21 9t21 -9q9 -10 9 -22t-10 -22l-169 -169q-9 -9 -21 -9t-21 9z" />
    <glyph glyph-name="queue_play_next" unicode="QUEUE_PLAY_NEXT" 
d="M855 240l-97 98q-10 9 -10 21.5t10 22.5t22 10t22 -10l117 -117q11 -11 11 -25t-11 -25l-117 -117q-9 -10 -21.5 -10t-22.5 10t-10 22t10 22zM376 140q-15 0 -25.5 10.5t-10.5 25.5v44h-168q-30 0 -51 21t-21 51v456q0 30 21 51t51 21h616q30 0 51 -21t21 -51v-238
q0 -13 -8.5 -21.5t-21.5 -8.5v0q-13 0 -21.5 8.5t-8.5 21.5v238q0 4 -4 8t-8 4h-616q-4 0 -8 -4t-4 -8v-456q0 -4 4 -8t8 -4h478q13 0 21.5 -8.5t8.5 -21.5v0q0 -13 -8.5 -21.5t-21.5 -8.5h-55v-44q0 -15 -10 -25.5t-26 -10.5h-183zM450 490v-90q0 -13 8.5 -21.5t21.5 -8.5
t21.5 8.5t8.5 21.5v90h90q13 0 21.5 8.5t8.5 21.5t-8.5 21.5t-21.5 8.5h-90v90q0 13 -8.5 21.5t-21.5 8.5t-21.5 -8.5t-8.5 -21.5v-90h-90q-13 0 -21.5 -8.5t-8.5 -21.5t8.5 -21.5t21.5 -8.5h90zM160 280v0v4v8v456v8v4v0v-4v-8v-456v0v0v0v-12z" />
    <glyph glyph-name="remove_from_queue" unicode="REMOVE_FROM_QUEUE" 
d="M360 490h240q13 0 21.5 8.5t8.5 21.5t-8.5 21.5t-21.5 8.5h-240q-13 0 -21.5 -8.5t-8.5 -21.5t8.5 -21.5t21.5 -8.5zM172 220q-30 0 -51 21t-21 51v456q0 30 21 51t51 21h616q30 0 51 -21t21 -51v-456q0 -30 -21 -51t-51 -21h-168v-44q0 -15 -10.5 -25.5t-25.5 -10.5
h-208q-15 0 -25.5 10.5t-10.5 25.5v44h-168zM172 280h616q4 0 8 4t4 8v456q0 4 -4 8t-8 4h-616q-4 0 -8 -4t-4 -8v-456q0 -4 4 -8t8 -4zM160 280v4v8v456v8v4v0v-4v-8v-456v-8v-4v0z" />
    <glyph glyph-name="slow_motion_video" unicode="SLOW_MOTION_VIDEO" 
d="M432 345l174 112q13 9 13 23t-13 23l-174 112q-14 9 -28 1t-14 -24v-224q0 -16 14 -24t28 1zM131 440q13 0 23 -8.5t14 -21.5q6 -28 16.5 -53t24.5 -48q7 -11 6 -24t-10 -22q-8 -8 -20 -7t-19 11q-24 32 -39 67.5t-22 74.5q-2 12 6 21.5t20 9.5zM205 697q9 -10 9.5 -22.5
t-5.5 -23.5q-14 -23 -24.5 -48t-16.5 -53q-4 -13 -14 -21.5t-23 -8.5q-12 0 -20 10t-5 22q7 39 21.5 73.5t37.5 67.5q7 10 19 11t21 -7zM261 206q9 10 22.5 10.5t24.5 -6.5q23 -14 48 -25t53 -17q12 -4 20.5 -13.5t8.5 -22.5t-9.5 -20.5t-21.5 -4.5q-41 8 -74.5 22.5
t-66.5 36.5q-10 7 -12 19t7 21zM440 828q0 -13 -8 -22.5t-22 -13.5q-28 -6 -53 -16.5t-48 -25.5q-11 -7 -24 -6t-23 10q-9 9 -7.5 21.5t12.5 19.5q33 22 67 36t75 22q12 2 21.5 -5t9.5 -20zM800 480q0 115 -72 202t-182 112q-12 2 -19 12t-7 22t8.5 20t19.5 6
q135 -25 223.5 -129.5t88.5 -244.5t-88.5 -244.5t-223.5 -129.5q-11 -2 -19.5 6t-8.5 20t7 22t19 12q110 25 182 112t72 202z" />
    <glyph glyph-name="web_asset" unicode="WEB_ASSET" 
d="M172 180q-30 0 -51 21t-21 51v456q0 30 21 51t51 21h616q30 0 51 -21t21 -51v-456q0 -30 -21 -51t-51 -21h-616zM172 240h616q4 0 8 4t4 8v388h-640v-388q0 -4 4 -8t8 -4z" />
    <glyph glyph-name="fiber_pin" unicode="FIBER_PIN" 
d="M255 448h99q17 0 29 12t12 29v63q0 18 -12 30t-29 12h-128q-7 0 -12.5 -5.5t-5.5 -12.5v-186q0 -10 6.5 -17t17.5 -7q10 0 16.5 7t6.5 17v58zM476 594q-10 0 -17 -7t-7 -17v-180q0 -10 7 -17t17 -7t17 7t7 17v180q0 10 -7 17t-17 7zM606 515l99 -140q3 -4 7 -6.5t10 -2.5
h10q8 0 14 6t6 15v186q0 9 -5.5 15t-14.5 6q-10 0 -15.5 -6t-5.5 -15v-128l-97 140q-3 4 -8 6.5t-10 2.5h-10q-9 0 -15 -6t-6 -16v-185q0 -9 5.5 -15t14.5 -6t15 6t6 15v128zM255 495v51h87q2 0 4 -2t2 -4v-38q0 -3 -2 -5t-4 -2h-87zM172 180q-30 0 -51 21t-21 51v456
q0 30 21 51t51 21h616q30 0 51 -21t21 -51v-456q0 -30 -21 -51t-51 -21h-616zM172 240h616q4 0 8 4t4 8v456q0 4 -4 8t-8 4h-616q-4 0 -8 -4t-4 -8v-456q0 -4 4 -8t8 -4zM160 240v4v8v456v8v4v0v-4v-8v-456v-8v-4v0z" />
    <glyph glyph-name="branding_watermark" unicode="BRANDING_WATERMARK" 
d="M446 290h268q15 0 25.5 10.5t10.5 25.5v162q0 15 -10.5 25.5t-25.5 10.5h-268q-15 0 -25.5 -10.5t-10.5 -25.5v-162q0 -15 10.5 -25.5t25.5 -10.5zM172 180q-30 0 -51 21t-21 51v456q0 30 21 51t51 21h616q30 0 51 -21t21 -51v-456q0 -30 -21 -51t-51 -21h-616zM172 240
h616q4 0 8 4t4 8v456q0 4 -4 8t-8 4h-616q-4 0 -8 -4t-4 -8v-456q0 -4 4 -8t8 -4zM160 240v4v8v456v8v4v0v-4v-8v-456v-8v-4v0z" />
    <glyph glyph-name="call_to_action" unicode="CALL_TO_ACTION" 
d="M286 290h388q15 0 25.5 10.5t10.5 25.5v28q0 15 -10.5 25.5t-25.5 10.5h-388q-15 0 -25.5 -10.5t-10.5 -25.5v-28q0 -15 10.5 -25.5t25.5 -10.5zM172 180q-30 0 -51 21t-21 51v456q0 30 21 51t51 21h616q30 0 51 -21t21 -51v-456q0 -30 -21 -51t-51 -21h-616zM172 240
h616q4 0 8 4t4 8v456q0 4 -4 8t-8 4h-616q-4 0 -8 -4t-4 -8v-456q0 -4 4 -8t8 -4zM160 240v4v8v456v8v4v0v-4v-8v-456v-8v-4v0z" />
    <glyph glyph-name="featured_play_list" unicode="FEATURED_PLAY_LIST" 
d="M280 450h280q13 0 21.5 8.5t8.5 21.5t-8.5 21.5t-21.5 8.5h-280q-13 0 -21.5 -8.5t-8.5 -21.5t8.5 -21.5t21.5 -8.5zM280 570h280q13 0 21.5 8.5t8.5 21.5t-8.5 21.5t-21.5 8.5h-280q-13 0 -21.5 -8.5t-8.5 -21.5t8.5 -21.5t21.5 -8.5zM172 180q-30 0 -51 21t-21 51v456
q0 30 21 51t51 21h616q30 0 51 -21t21 -51v-456q0 -30 -21 -51t-51 -21h-616zM172 240h616q4 0 8 4t4 8v456q0 4 -4 8t-8 4h-616q-4 0 -8 -4t-4 -8v-456q0 -4 4 -8t8 -4zM160 240v4v8v456v8v4v0v-4v-8v-456v-8v-4v0z" />
    <glyph glyph-name="featured_video" unicode="FEATURED_VIDEO" 
d="M246 410h268q15 0 25.5 10.5t10.5 25.5v188q0 15 -10.5 25.5t-25.5 10.5h-268q-15 0 -25.5 -10.5t-10.5 -25.5v-188q0 -15 10.5 -25.5t25.5 -10.5zM172 180q-30 0 -51 21t-21 51v456q0 30 21 51t51 21h616q30 0 51 -21t21 -51v-456q0 -30 -21 -51t-51 -21h-616zM172 240
h616q4 0 8 4t4 8v456q0 4 -4 8t-8 4h-616q-4 0 -8 -4t-4 -8v-456q0 -4 4 -8t8 -4zM160 240v4v8v456v8v4v0v-4v-8v-456v-8v-4v0z" />
    <glyph glyph-name="note" unicode="DRAFT" 
d="M252 100q-30 0 -51 21t-21 51v616q0 30 21 51t51 21h288q15 0 28 -5.5t23 -15.5l168 -168q10 -10 15.5 -23t5.5 -28v-448q0 -30 -21 -51t-51 -21h-456zM540 656v144h-288q-4 0 -8 -4t-4 -8v-616q0 -4 4 -8t8 -4h456q4 0 8 4t4 8v448h-144q-15 0 -25.5 10.5t-10.5 25.5z
M240 800v0v-144v-25.5v-10.5v0v180v-144v-25.5v-10.5v0v-448v-8v-4v0v4v8v616v8v4z" />
    <glyph glyph-name="video_call" unicode="VIDEO_CALL" 
d="M410 330q12 0 21 8.5t9 21.5v90h90q12 0 21 8.5t9 21.5t-9 21.5t-21 8.5h-90v90q0 13 -9 21.5t-21 8.5q-13 0 -21.5 -8.5t-8.5 -21.5v-90h-90q-13 0 -21.5 -8.5t-8.5 -21.5t8.5 -21.5t21.5 -8.5h90v-90q0 -13 8.5 -21.5t21.5 -8.5zM182 180q-30 0 -51 21t-21 51v456
q0 30 21 51t51 21h455q31 0 52 -21t21 -51v-183l109 109q9 9 20 4.5t11 -17.5v-282q0 -13 -11 -17.5t-20 4.5l-109 109v-183q0 -30 -21 -51t-52 -21h-455zM182 240h455q6 0 9.5 3.5t3.5 8.5v456q0 5 -3.5 8.5t-9.5 3.5h-455q-5 0 -8.5 -3.5t-3.5 -8.5v-456q0 -5 3.5 -8.5
t8.5 -3.5zM170 240v3.5v8.5v456v8.5v3.5v0v-3.5v-8.5v-456v-8.5v-3.5v0z" />
    <glyph glyph-name="video_label" unicode="VIDEO_LABEL" 
d="M172 180q-30 0 -51 21t-21 51v456q0 30 21 51t51 21h616q30 0 51 -21t21 -51v-456q0 -30 -21 -51t-51 -21h-616zM160 360h640v348q0 4 -4 8t-8 4h-616q-4 0 -8 -4t-4 -8v-348z" />
    <glyph glyph-name="_4k" unicode="&#x34;K" 
d="M565 458l74 -84q2 -2 18 -8q15 0 21.5 13.5t-3.5 25.5l-67 76l67 76q10 11 3.5 24t-21.5 13q-5 0 -9.5 -2.5t-7.5 -5.5l-75 -84v68q0 10 -6.5 17t-16.5 7q-11 0 -17.5 -7t-6.5 -17v-180q0 -10 6.5 -17t17.5 -7q10 0 16.5 7t6.5 17v68zM383 426v-36q0 -10 7 -17t17 -7
t17 7t7 17v36h21q10 0 16.5 7t6.5 17t-6.5 17t-16.5 7h-21v96q0 10 -7 17t-17 7t-17 -7t-7 -17v-96h-68v96q0 10 -6.5 17t-16.5 7q-11 0 -17.5 -7t-6.5 -17v-120q0 -10 6.5 -17t17.5 -7h91zM212 140q-30 0 -51 21t-21 51v536q0 30 21 51t51 21h536q30 0 51 -21t21 -51v-536
q0 -30 -21 -51t-51 -21h-536zM212 200h536q4 0 8 4t4 8v536q0 4 -4 8t-8 4h-536q-4 0 -8 -4t-4 -8v-536q0 -4 4 -8t8 -4zM200 760v0v-3.5v-8.5v-536v-8.5v-3.5v0v3.5v8.5v536v8.5v3.5z" />
    <glyph glyph-name="missed_video_call" unicode="MISSED_VIDEO_CALL_FILLED" 
d="M438 419l-112 112h46q12 0 20.5 8.5t8.5 21.5t-8.5 21.5t-21.5 8.5h-114q-15 0 -25.5 -10.5t-10.5 -25.5v-115q0 -12 8.5 -20.5t21.5 -8.5t21.5 8.5t8.5 21.5v50l132 -132q5 -4 11.5 -7t13.5 -3t14 3t12 8l120 122q9 8 9 20t-10 21q-8 9 -20.5 9t-21.5 -9zM182 180
q-30 0 -51 21t-21 51v456q0 30 21 51t51 21h455q31 0 52 -21t21 -51v-183l109 109q9 9 20 4.5t11 -17.5v-282q0 -13 -11 -17.5t-20 4.5l-109 109v-183q0 -30 -21 -51t-52 -21h-455zM182 240h455q6 0 9.5 3.5t3.5 8.5v456q0 5 -3.5 8.5t-9.5 3.5h-455q-5 0 -8.5 -3.5
t-3.5 -8.5v-456q0 -5 3.5 -8.5t8.5 -3.5zM170 240v3.5v8.5v456v8.5v3.5v0v-3.5v-8.5v-456v-8.5v-3.5v0z" />
    <glyph glyph-name="control_camera" unicode="CONTROL_CAMERA" 
d="M480 380q-42 0 -71 29t-29 71t29 71t71 29t71 -29t29 -71t-29 -71t-71 -29zM480 193l93 93q9 8 21 8t21 -9t9 -21.5t-9 -20.5l-110 -110q-11 -11 -25 -11t-25 11l-110 110q-8 8 -8.5 20.5t8.5 21.5t21 9t21 -9zM193 480l93 -93q8 -9 8 -21t-9 -21t-21.5 -9t-20.5 9
l-110 110q-11 11 -11 25t11 25l110 110q8 8 20.5 8.5t21.5 -8.5t9 -21t-9 -21zM480 767l-93 -93q-9 -8 -21 -8t-21 9t-9 21.5t9 20.5l110 110q11 11 25 11t25 -11l110 -110q8 -8 8.5 -20.5t-8.5 -21.5t-21 -9t-21 9zM767 480l-93 93q-8 9 -8 21t9 21t21.5 9t20.5 -9
l110 -110q11 -11 11 -25t-11 -25l-110 -110q-8 -8 -20.5 -8.5t-21.5 8.5t-9 21t9 21z" />
    <glyph glyph-name="update_disabled" unicode="UPDATE_DISABLED" 
d="M480 140q-70 0 -132 27t-108 73t-73 107.5t-27 132.5q0 55 16.5 103.5t45.5 89.5l-99 98q-9 9 -9 21.5t9 21.5q10 9 22 9t21 -9l668 -668q9 -9 9 -21t-9 -21t-21.5 -9t-21.5 9l-97 97q-42 -29 -90.5 -45t-103.5 -16zM480 200q42 0 80 12t70 33l-385 385
q-21 -33 -33 -70.5t-12 -79.5q0 -117 81.5 -198.5t198.5 -81.5zM480 760q-36 0 -69.5 -8.5t-63.5 -24.5l-44 43q39 24 83.5 37t93.5 13q76 0 144 -31.5t116 -89.5v65q0 13 9 21.5t21 8.5q13 0 21.5 -8.5t8.5 -21.5v-137q0 -16 -10 -26t-26 -10h-137q-12 0 -21 8.5t-9 21.5
t9 21.5t21 8.5h75q-41 51 -98.5 80t-123.5 29zM510 563l-60 60v27q0 13 9 21.5t21 8.5q13 0 21.5 -8.5t8.5 -21.5v-87zM770 303l-43 44q8 15 14 31.5t11 34.5q4 13 14 19.5t22 5.5q14 -2 21 -12t4 -22q-7 -25 -17 -51t-26 -50z" />
    <glyph glyph-name="vertical_distribute" unicode="VERTICAL_DISTRIBUTE" 
d="M120 800q-13 0 -21.5 8.5t-8.5 21.5t8.5 21.5t21.5 8.5h720q13 0 21.5 -8.5t8.5 -21.5t-8.5 -21.5t-21.5 -8.5h-720zM340 430q-21 0 -35.5 14.5t-14.5 35.5t14.5 35.5t35.5 14.5h280q21 0 35.5 -14.5t14.5 -35.5t-14.5 -35.5t-35.5 -14.5h-280zM120 100q-13 0 -21.5 8.5
t-8.5 21.5t8.5 21.5t21.5 8.5h720q13 0 21.5 -8.5t8.5 -21.5t-8.5 -21.5t-21.5 -8.5h-720z" />
    <glyph glyph-name="start" unicode="START" 
d="M621 275q-9 9 -9 21.5t9 21.5l133 132h-472q-13 0 -21.5 8.5t-8.5 21.5t8.5 21.5t21.5 8.5h471l-132 133q-8 9 -8 21t9 21q8 8 20.5 8t20.5 -8l180 -180q5 -5 7.5 -11.5t2.5 -13.5t-2.5 -13.5t-7.5 -11.5l-180 -180q-8 -8 -20.5 -8t-21.5 8zM122 250q-12 0 -21 8.5
t-9 21.5v400q0 13 9 21.5t21 8.5q13 0 21.5 -8.5t8.5 -21.5v-400q0 -13 -8.5 -21.5t-21.5 -8.5z" />
    <glyph glyph-name="call_log" unicode="CALL_LOG" 
d="M510 800q-13 0 -21.5 8.5t-8.5 21.5t8.5 21.5t21.5 8.5h320q13 0 21.5 -8.5t8.5 -21.5t-8.5 -21.5t-21.5 -8.5h-320zM510 652q-13 0 -21.5 9t-8.5 21q0 13 8.5 21.5t21.5 8.5h320q13 0 21.5 -8.5t8.5 -21.5q0 -12 -8.5 -21t-21.5 -9h-320zM510 505q-13 0 -21.5 8.5
t-8.5 21.5q0 12 8.5 21t21.5 9h320q13 0 21.5 -9t8.5 -21q0 -13 -8.5 -21.5t-21.5 -8.5h-320zM736 100q-116 0 -230.5 55.5t-204.5 145.5t-145.5 204t-55.5 231q0 18 12 30t30 12h130q16 0 27.5 -9.5t14.5 -25.5l23 -117q2 -15 -1 -27t-12 -21l-92 -90q47 -81 112.5 -145.5
t148.5 -113.5l90 91q9 10 22.5 14t27.5 2l111 -23q15 -3 24.5 -14.5t9.5 -26.5v-130q0 -18 -12 -30t-30 -12zM203 545l71 68q2 1 2.5 4t0.5 5l-18 90q-1 3 -2.5 4.5t-4.5 1.5h-86q-2 0 -3.5 -1.5t-1.5 -4.5q3 -41 13 -83t29 -84zM549 201q40 -18 83.5 -28t80.5 -12
q2 0 3.5 1.5t1.5 4.5v84q0 3 -1.5 5t-4.5 2l-84 18q-2 0 -3.5 -0.5t-3.5 -2.5zM203 545v0v0v0v0v0v0v0v0v0v0v0zM549 201v0v0v0v0v0v0v0v0v0v0v0z" />
    <glyph glyph-name="add_notes" unicode="ADD_NOTES" 
d="M212 140q-30 0 -51 21t-21 51v536q0 30 21 51t51 21h536q30 0 51 -21t21 -51v-253q-15 6 -29.5 10.5t-30.5 6.5v236q0 4 -4 8t-8 4h-536q-4 0 -8 -4t-4 -8v-536q0 -4 4 -8t8 -4h235q2 -17 6.5 -31.5t10.5 -28.5h-252zM200 240v-20.5v-19.5v0v4v8v536v8v4v0v-4v-8v-236
v2.5v0.5v-80.5v-194.5zM290 325q0 -13 8.5 -21.5t21.5 -8.5h131q2 15 7.5 30t11.5 30h-150q-13 0 -21.5 -9t-8.5 -21zM290 480q0 -13 8.5 -21.5t21.5 -8.5h224q25 22 54.5 37t63.5 21v0q-7 1 -15.5 1.5t-14.5 0.5h-312q-13 0 -21.5 -8.5t-8.5 -21.5zM290 635q0 -12 8.5 -21
t21.5 -9h320q13 0 21.5 9t8.5 21q0 13 -8.5 21.5t-21.5 8.5h-320q-13 0 -21.5 -8.5t-8.5 -21.5zM720 58q-75 0 -127.5 52.5t-52.5 127.5t52.5 127.5t127.5 52.5t127.5 -52.5t52.5 -127.5t-52.5 -127.5t-127.5 -52.5zM702 220v-82q0 -7 5.5 -12.5t12.5 -5.5t12.5 5.5
t5.5 12.5v82h82q7 0 12.5 5.5t5.5 12.5t-5.5 12t-12.5 5h-82v83q0 7 -5.5 12t-12.5 5t-12.5 -5t-5.5 -12v-83h-82q-7 0 -12.5 -5t-5.5 -12t5.5 -12.5t12.5 -5.5h82z" />
    <glyph glyph-name="all_match" unicode="ALL_MATCH" 
d="M260 280l130 200l-130 200v0v0v0l130 -200v0v0l-20.5 -31t-44.5 -68.5t-44.5 -69l-20.5 -31.5v0zM455 220h-238q-22 0 -32 19t2 37l131 204l-131 204q-12 18 -2 37t32 19h365q20 0 38.5 -9.5t30.5 -26.5l150 -212v0q-19 7 -40.5 10.5t-42.5 2.5l-117 165q-4 5 -8.5 7.5
t-10.5 2.5h-322l130 -200l-130 -200h196q-3 -15 -3 -30t2 -30zM693 226l-22 21q-7 7 -16.5 7t-16.5 -7q-8 -7 -8 -16.5t8 -16.5l36 -36q8 -9 19 -9t19 9l90 88q8 7 8 17t-8 17q-7 7 -17 7t-17 -7zM720 58q-75 0 -127.5 52.5t-52.5 127.5t52.5 127.5t127.5 52.5t127.5 -52.5
t52.5 -127.5t-52.5 -127.5t-127.5 -52.5z" />
    <glyph glyph-name="allergies" unicode="ALLERGIES" 
d="M394 513v-233q0 -13 8.5 -21.5t21.5 -8.5t21.5 8.5t8.5 21.5v234q0 6 -1.5 12.5t-3.5 12.5l-61 118q-5 12 -16.5 16t-23.5 -2q-11 -6 -15 -17.5t2 -22.5zM566 513l59 118q6 11 2 22.5t-15 17.5q-12 6 -23.5 2t-17.5 -16l-60 -118q-2 -6 -3.5 -12.5t-1.5 -12.5v-234
q0 -13 8.5 -21.5t21.5 -8.5t21.5 8.5t8.5 21.5v233zM631 453q11 -5 23 -1t17 15l45 88q5 11 1 22.5t-15 17.5t-22.5 2t-17.5 -15l-45 -89q-5 -11 -1 -22.5t15 -17.5zM329 454q11 6 15 17.5t-2 22.5l-44 89q-6 11 -17.5 15t-22.5 -2t-15.5 -17.5t1.5 -22.5l44 -88
q6 -12 18 -16t23 2zM480 100q-79 0 -148.5 30t-120.5 81t-81 120.5t-30 148.5t30 148.5t81 120.5t120.5 81t148.5 30t148.5 -30t120.5 -81t81 -120.5t30 -148.5t-30 -148.5t-81 -120.5t-120.5 -81t-148.5 -30zM480 160q134 0 227 93t93 227t-93 227t-227 93t-227 -93
t-93 -227t93 -227t227 -93zM480 480v0v0v0v0v0v0v0v0z" />
    <glyph glyph-name="blood_pressure" unicode="BLOOD_PRESSURE" 
d="M100 598v110q0 30 21 51t51 21h616q30 0 51 -21t21 -51v-190q0 -13 -8.5 -21.5t-21.5 -8.5t-21.5 8.5t-8.5 21.5v190q0 4 -4 8t-8 4h-616q-4 0 -8 -4t-4 -8v-110h-60zM280 290q-9 0 -16 4t-11 12l-71 144h-51q-13 0 -21.5 8.5t-8.5 21.5t8.5 21.5t21.5 8.5h70
q8 0 15 -4.5t11 -12.5l53 -106l133 266q4 8 11.5 11.5t15.5 3.5t15.5 -3.5t11.5 -11.5l73 -146q-13 -8 -25.5 -17t-23.5 -21l-51 103l-133 -266q-4 -8 -11.5 -12t-15.5 -4zM432 180h-260q-30 0 -51 21t-21 51v110h60v-110q0 -4 4 -8t8 -4h243q3 -16 7 -31t10 -29zM480 480v0
v0v0v0v0v0v0v0v0v0v0v0v0v0v0v0zM680 100q-75 0 -127.5 52.5t-52.5 127.5t52.5 127.5t127.5 52.5t127.5 -52.5t52.5 -127.5t-52.5 -127.5t-127.5 -52.5zM760 335q5 5 5 12t-5 13q-6 5 -13 5t-12 -5l-59 -59q-6 -5 -6 -12.5t6 -12.5q5 -6 12.5 -6t12.5 6z" />
    <glyph glyph-name="body_fat" unicode="BODY_FAT" 
d="M675 157l-519 258q-21 10 -30.5 27.5t-9.5 36.5t9.5 37t30.5 28l519 259q18 10 36.5 8.5t34.5 -11.5q15 -10 24.5 -25.5t9.5 -35.5v-109h10q13 0 21.5 -8.5t8.5 -21.5t-8.5 -21.5t-21.5 -8.5h-80q-13 0 -21.5 8.5t-8.5 21.5t8.5 21.5t21.5 8.5h10v107q0 7 -6 10.5
t-12 0.5l-170 -84q27 -42 42.5 -88.5t15.5 -95.5q0 -50 -15.5 -97t-42.5 -89l169 -84q6 -3 12 0.5t6 10.5v109h-10q-12 0 -20.5 8.5t-8.5 21.5t8.5 21.5t21.5 8.5h80q13 0 21.5 -8.5t8.5 -21.5t-8.5 -21.5t-21.5 -8.5h-10v-109q0 -20 -9.5 -35.5t-24.5 -25.5
q-16 -10 -34.5 -11t-36.5 8zM477 322q25 35 39 75t14 83t-14 82.5t-38 74.5l-295 -146q-7 -3 -7 -11t7 -11z" />
    <glyph glyph-name="body_system" unicode="BODY_SYSTEM" 
d="M441 453l-44 -179q-1 -6 -4 -10t-6.5 -7.5t-8.5 -5t-11 -1.5q-15 0 -24.5 11t-6.5 26l72 334l-95 -38v-63q0 -12 -9 -21t-21 -9q-13 0 -21.5 9t-8.5 21v102l189 80q14 6 28 7.5t27 -2.5q13 -3 24 -11.5t19 -20.5l33 -54q29 -47 63.5 -73t76.5 -34q13 -2 21 -11t8 -22
t-9 -21t-22 -7q-57 10 -99.5 39.5t-76.5 74.5l-29 -85l84 -87v-115q0 -13 -8.5 -21.5t-21.5 -8.5t-21.5 8.5t-8.5 21.5v85zM540 740q-31 0 -52.5 21.5t-21.5 51.5q0 31 21.5 52.5t52.5 21.5q30 0 51.5 -21.5t21.5 -52.5q0 -30 -21.5 -51.5t-51.5 -21.5zM480 100
q-79 0 -148 30t-120.5 81.5t-81.5 120.5t-30 148q0 104 50.5 189.5t132.5 135.5q11 6 22.5 2.5t17.5 -14.5q5 -11 2 -22.5t-13 -18.5q-69 -43 -110.5 -114t-41.5 -158q0 -134 93 -227t227 -93q127 0 217.5 83.5t101.5 207.5q1 12 10 20t21 8q13 0 21.5 -8.5t7.5 -21.5
q-12 -147 -120 -248t-259 -101z" />
    <glyph glyph-name="cardiology" unicode="CARDIOLOGY" 
d="M300 820q52 0 99 -24.5t81 -70.5q34 46 81 70.5t99 24.5q85 0 142.5 -57.5t57.5 -142.5q0 -6 -0.5 -11.5t-0.5 -10.5h-60q1 5 1 10.5v11.5q0 60 -40 100t-100 40q-47 0 -87.5 -27t-63.5 -75v0h-58v0q-24 49 -64 75.5t-87 26.5q-60 0 -100 -40t-40 -100v-11.5t1 -10.5h-60
q0 5 -0.5 10.5t-0.5 11.5q0 85 57.5 142.5t142.5 57.5zM480 156q-12 0 -24 4.5t-22 14.5q-25 23 -54.5 50t-56.5 53.5t-50 48.5t-35 35h84q32 -31 71 -67.5t87 -80.5q48 44 87 80.5t71 67.5h84q-11 -13 -34 -35t-50.5 -48.5t-57 -54t-54.5 -49.5q-9 -10 -21 -14.5t-25 -4.5z
M442 330q10 0 16.5 5.5t9.5 14.5l61 182l44 -66q5 -7 13 -11.5t17 -4.5h277q13 0 21.5 8.5t8.5 21.5t-8.5 21.5t-21.5 8.5h-264l-71 106q-4 7 -11.5 10.5t-15.5 3.5q-10 0 -17 -6t-9 -14l-61 -182l-44 66q-5 7 -13 11.5t-17 4.5h-277q-13 0 -21.5 -8.5t-8.5 -21.5t8.5 -21.5
t21.5 -8.5h263l71 -107q5 -7 12.5 -10t15.5 -3zM480 487v0v0v0v0v0v0v0v0v0v0v0v0v0v0v0v0v0v0v0z" />
    <glyph glyph-name="clinical_notes" unicode="CLINICAL_NOTES" 
d="M680 327q-44 0 -75 31t-31 75q0 45 31 76t75 31t75 -31t31 -76q0 -44 -31 -75t-75 -31zM680 387q19 0 32.5 13.5t13.5 32.5q0 20 -13.5 33.5t-32.5 13.5t-32.5 -13.5t-13.5 -33.5q0 -19 13.5 -32.5t32.5 -13.5zM490 69q-15 0 -25.5 10.5t-10.5 25.5v66q0 18 8 33t23 24
q30 18 51 25.5t55 12.5q12 2 22.5 -0.5t18.5 -10.5l48 -60l47 60q8 9 18.5 11t22.5 0q34 -5 55 -12.5t51 -25.5q15 -9 23.5 -24t8.5 -32v-67q0 -15 -10.5 -25.5t-25.5 -10.5h-380zM513 129h142l-62 79q-21 -5 -41 -13.5t-39 -19.5v-46zM705 129h141v46q-19 11 -39 19.5
t-41 13.5zM655 129v0v0v0v0v0zM705 129v0v0v0v0v0zM680 433v0v0v0v0v0v0v0v0zM200 200v0v4v8v536v8v4v0v-4v-8v-130v12.5v4.5v-59v-143v-46v-46v-15v-15v-55.5v-55.5zM212 140q-30 0 -51 21t-21 51v536q0 30 21 51t51 21h536q30 0 51 -21t21 -51v-174q-13 14 -27 26.5
t-33 17.5v130q0 5 -3.5 8.5t-8.5 3.5h-536q-5 0 -8.5 -3.5t-3.5 -8.5v-536q0 -5 3.5 -8.5t8.5 -3.5h150q-2 -7 -3 -14t-1 -15v-31h-146zM320 605h258q21 15 44.5 21.5t47.5 7.5v1q0 13 -8.5 21.5t-21.5 8.5h-320q-13 0 -21.5 -8.5t-8.5 -21.5q0 -12 8.5 -21t21.5 -9z
M320 450h160q1 16 4.5 31t9.5 29h-174q-13 0 -21.5 -8.5t-8.5 -21.5t8.5 -21.5t21.5 -8.5zM320 295h95q11 8 22.5 15.5t23.5 12.5v7q0 10 -5 17.5t-19 7.5h-117q-13 0 -21.5 -9t-8.5 -21q0 -13 8.5 -21.5t21.5 -8.5z" />
    <glyph glyph-name="cognition" unicode="COGNITION" 
d="M490 356q63 0 107.5 40.5t44.5 98.5q0 50 -32 85.5t-79 35.5q-41 0 -69.5 -26t-28.5 -65q0 -16 6 -32.5t20 -29.5q12 -10 24 -8.5t20 9.5q8 9 9 20.5t-9 20.5q-4 4 -7 9t-3 11q0 12 10 21t28 9q22 0 37 -17.5t15 -43.5q0 -32 -26 -55t-66 -23q-47 0 -80.5 38t-33.5 94
q0 21 6 41.5t18 37.5q7 11 7 23.5t-9 22.5q-9 9 -22 8.5t-20 -11.5q-20 -26 -30.5 -56.5t-10.5 -64.5q0 -80 50.5 -136.5t123.5 -56.5zM260 261q-57 52 -88.5 119.5t-31.5 139.5q0 142 99 241t241 99q117 0 208.5 -69.5t119.5 -180.5l47 -185q4 -17 -7 -31t-29 -14h-79v-128
q0 -30 -21 -51t-51 -21h-88v-50q0 -13 -8.5 -21.5t-21.5 -8.5v0q-13 0 -21.5 8.5t-8.5 21.5v74q0 15 10.5 25.5t25.5 10.5h112q5 0 8.5 3.5t3.5 8.5v152q0 15 10.5 25.5t25.5 10.5h72l-38 155q-23 91 -98.5 148t-171.5 57q-116 0 -198 -81t-82 -197q0 -60 24.5 -114
t69.5 -96l26 -24v-158q0 -13 -8.5 -21.5t-21.5 -8.5v0q-13 0 -21.5 8.5t-8.5 21.5v131zM494 450v0v0v0v0v0v0v0v0v0v0v0v0v0v0v0v0v0v0v0v0z" />
    <glyph glyph-name="conditions" unicode="CONDITIONS" 
d="M400 724q-30 0 -52 21.5t-22 52.5q0 30 22 52t52 22t52 -22t22 -52q0 -31 -22 -52.5t-52 -21.5zM660 234q44 0 75 31t31 75t-31 75t-75 31t-75 -31t-31 -75t31 -75t75 -31zM754 204q-21 -15 -44.5 -22.5t-49.5 -7.5q-69 0 -117.5 48.5t-48.5 117.5t48.5 117.5t117.5 48.5
t117.5 -48.5t48.5 -117.5q0 -26 -7.5 -49.5t-22.5 -44.5l89 -89q8 -8 8 -21t-8 -21t-21 -8t-21 8zM444 207q11 -19 26.5 -35t33.5 -29v-23q0 -13 -8.5 -21.5t-21.5 -8.5v0q-13 0 -21.5 8.5t-8.5 21.5v87zM356 335v-215q0 -13 -8.5 -21.5t-21.5 -8.5t-21.5 8.5t-8.5 21.5v491
q-51 5 -101.5 12t-101.5 18q-13 3 -21.5 14t-4.5 24t16 19t25 3q72 -17 145 -23t147 -6t147 6t145 23q13 3 25 -3t16 -19t-4.5 -24t-21.5 -14q-51 -11 -101.5 -18t-101.5 -11v-75q-43 -32 -69.5 -81.5t-27.5 -108.5v-6v-6h-51z" />
    <glyph glyph-name="congenital" unicode="CONGENITAL" 
d="M395 220q-94 0 -174 47.5t-124 131.5l-24 44q-10 19 -7.5 40t16.5 37l191 233q8 10 19 16.5t23 8.5q13 2 25 0.5t23 -8.5l117 -62l98 54q14 8 29.5 6t27.5 -14q12 -11 15 -26t-4 -30l-119 -277q-10 -23 -31.5 -34t-46.5 -6l-309 66l8 -16q35 -70 102 -110.5t145 -40.5
h173q55 0 105 20.5t89 58.5l14 14h-48q-34 0 -55 25.5t-17 58.5l25 166q3 16 13 26t23 14q13 5 26.5 1t24.5 -16l110 -129q13 -15 16 -35t-6 -38l-14 -31q-42 -90 -124.5 -142.5t-181.5 -52.5h-173zM818 435l17 38v3.5t-2 2.5l-93 109q-1 1 -2 0.5t-1 -1.5l-20 -138
q-1 -5 2.5 -9.5t9.5 -4.5h89zM149 506l315 -67q2 0 4 1t3 3l105 246q1 1 0 1.5t-2 0.5l-94 -53l-146 79q-4 2 -8 1.5t-7 -4.5zM363 580v0v0v0v0v0v0v0v0v0v0v0zM776 473v0v0v0v0v0v0v0v0v0v0z" />
    <glyph glyph-name="deceased" unicode="DECEASED" 
d="M438 164q-9 26 -23 48t-33 41t-41 33.5t-48 23.5q2 -29 14 -54t32 -45t45 -32.5t54 -14.5zM521 164q29 2 54.5 14t45.5 32t32 45.5t14 54.5q-26 -9 -48 -23t-41 -33t-33.5 -41.5t-23.5 -48.5zM480 508q65 0 110.5 46t45.5 111v59l-70 -59l-86 109l-86 -109l-70 59v-59
q0 -65 45.5 -111t110.5 -46zM452 104q-91 0 -155.5 64t-64.5 156v58q67 -5 125 -38t93 -84v190q-79 11 -132.5 71.5t-53.5 143.5v112q0 23 21 32.5t39 -5.5l62 -54l66 83q11 13 28 13t28 -13l66 -83l62 54q18 15 39 5.5t21 -32.5v-112q0 -83 -53.5 -143.5t-132.5 -71.5v-190
q35 51 92.5 84t124.5 38v-58q0 -92 -64 -156t-156 -64h-55zM480 641v0v0v0v0v0v0v0v0v0v0zM594 237v0v0v0v0v0v0v0v0zM366 237v0v0v0v0v0v0v0v0z" />
    <glyph glyph-name="dentistry" unicode="DENTISTRY" 
d="M676 855q58 0 99 -41t41 -99q0 -10 -1 -28t-4 -41l-56 -403q-4 -31 -27.5 -50t-54.5 -19q-19 0 -35 9.5t-27 24.5l-113 159q-3 5 -8 7.5t-11 2.5t-19 -12l-110 -154q-12 -16 -29 -26.5t-36 -10.5q-31 0 -54 19.5t-27 50.5l-55 402q-3 23 -4 41t-1 28q0 58 41 99t99 41
q32 0 53.5 -9.5t41.5 -20.5t43 -20.5t58 -9.5q36 0 59 9.5t43 20.5t41.5 20.5t52.5 9.5zM676 795q-23 0 -40.5 -9.5t-37.5 -20.5q-21 -11 -48.5 -20.5t-69.5 -9.5t-69 9.5t-48 20.5q-20 11 -38 20.5t-41 9.5q-33 0 -56.5 -23.5t-23.5 -56.5q0 -8 1 -23t4 -35l55 -405
q1 -8 7 -12.5t14 -4.5q6 0 10.5 3.5t7.5 9.5l107 151q13 17 31 27.5t39 10.5t39 -10.5t31 -27.5l108 -154q3 -5 7 -8t9 -3q8 0 14.5 4.5t7.5 12.5l55 406q3 20 4 35t1 23q0 33 -23.5 56.5t-56.5 23.5zM480 515v0v0v0v0v0v0v0v0v0v0v0v0v0v0v0v0v0v0v0v0v0v0v0v0v0v0v0v0v0v0
v0v0z" />
    <glyph glyph-name="dermatology" unicode="DERMATOLOGY" 
d="M136 140q-15 0 -25.5 10.5t-10.5 25.5v292q0 30 21 51t51 21h163q7 0 13.5 -3t11 -7.5t7.5 -11t3 -13.5v-25q0 -46 32 -78t78 -32t78 32t32 78v25q0 7 3 13.5t7.5 11t11 7.5t13.5 3h163q30 0 51 -21t21 -51v-292q0 -15 -10.5 -25.5t-25.5 -10.5h-688zM160 200h640v268
q0 5 -3.5 8.5t-8.5 3.5h-138v0q0 -71 -49.5 -120.5t-120.5 -49.5t-120.5 49.5t-49.5 120.5v0h-138q-5 0 -8.5 -3.5t-3.5 -8.5v-268zM480 450q-13 0 -21.5 8.5t-8.5 21.5q0 107 24.5 210.5t105.5 171.5q10 8 22 7t20 -10q9 -10 7.5 -22t-11.5 -20q-71 -61 -89.5 -152
t-18.5 -185q0 -13 -8.5 -21.5t-21.5 -8.5zM230 342q12 0 20 8t8 20t-8 20t-20 8t-20 -8t-8 -20t8 -20t20 -8zM270 242q12 0 20 8t8 20t-8 20t-20 8t-20 -8t-8 -20t8 -20t20 -8zM730 342q12 0 20 8t8 20t-8 20t-20 8t-20 -8t-8 -20t8 -20t20 -8zM160 200v0v0v0v0v0h160h160
h160h160v0v0v0v0v0h-640z" />
    <glyph glyph-name="diagnosis" unicode="DIAGNOSIS" 
d="M360 225h240q13 0 21.5 9t8.5 21q0 13 -8.5 21.5t-21.5 8.5h-240q-13 0 -21.5 -8.5t-8.5 -21.5q0 -12 8.5 -21t21.5 -9zM360 338h240q13 0 21.5 8.5t8.5 21.5q0 12 -8.5 21t-21.5 9h-240q-13 0 -21.5 -9t-8.5 -21q0 -13 8.5 -21.5t21.5 -8.5zM480 696q-14 18 -31 28.5
t-41 10.5q-32 0 -55 -23t-23 -55q0 -51 46 -93.5t80 -73.5q10 -10 24 -10t24 10q34 30 80 73t46 94q0 32 -23 55t-55 23q-24 0 -41 -10.5t-31 -28.5zM708 100h-456q-30 0 -51 21t-21 51v616q0 30 21 51t51 21h456q30 0 51 -21t21 -51v-616q0 -30 -21 -51t-51 -21zM252 160
h456q5 0 8.5 3.5t3.5 8.5v616q0 5 -3.5 8.5t-8.5 3.5h-456q-5 0 -8.5 -3.5t-3.5 -8.5v-616q0 -5 3.5 -8.5t8.5 -3.5zM240 160v3.5v8.5v616v8.5v3.5v0v-3.5v-8.5v-616v-8.5v-3.5v0z" />
    <glyph glyph-name="endocrinology" unicode="ENDOCRINOLOGY" 
d="M405 280q19 0 32 13t13 32q0 47 -25 84.5t-65 60.5v-145q0 -19 13 -32t32 -13zM555 280q19 0 32 13t13 32v145q-40 -23 -65 -60.5t-25 -84.5q0 -19 13 -32t32 -13zM182 326v400q-22 21 -40.5 45.5t-33.5 51.5q-5 11 0 21.5t16 14.5q12 5 23.5 1t17.5 -15
q48 -86 132 -136.5t183 -50.5q98 0 180 49t131 132q8 12 20 19t25 1q12 -5 15.5 -17t-2.5 -23q-15 -27 -32.5 -50t-38.5 -43v-400q0 -38 18 -69.5t49 -51.5q10 -7 14 -18.5t0 -22.5q-4 -12 -14 -17.5t-21 0.5q-49 27 -77.5 74.5t-28.5 104.5v348q-52 -36 -112 -56t-126 -20
t-126.5 20t-111.5 56v-348q0 -57 -29 -104.5t-78 -74.5q-11 -6 -20.5 -0.5t-13.5 17.5q-4 11 0 22.5t14 18.5q30 19 48.5 51t18.5 70zM405 220q-44 0 -74.5 30.5t-30.5 74.5v196q0 13 9.5 20t20.5 4l14 -4q44 -13 79 -41.5t57 -66.5q22 38 57 66t79 42l14 4q11 3 20.5 -4
t9.5 -20v-196q0 -44 -30.5 -74.5t-74.5 -30.5q-22 0 -41.5 9t-33.5 24q-14 -15 -33.5 -24t-41.5 -9zM555 325v0v0v0v0v0v0v0zM405 325v0v0v0v0v0v0v0z" />
    <glyph glyph-name="ent" unicode="ENT" 
d="M460 330h100q13 0 21.5 8.5t8.5 21.5t-8.5 21.5t-21.5 8.5h-94l8 70q2 19 15.5 32t33.5 13h119q12 0 21 9t9 21q0 13 -9 21.5t-21 8.5h-118q-44 0 -75 -28.5t-35 -70.5l-35 -333q-1 -7 1.5 -13t6.5 -10.5t9.5 -7t12.5 -2.5v0q11 0 19.5 8t10.5 19zM260 261
q-57 52 -88.5 119.5t-31.5 139.5q0 142 99 241t241 99q117 0 208.5 -69.5t119.5 -180.5l47 -185q4 -17 -7 -31t-29 -14h-79v-128q0 -30 -21 -51t-51 -21h-88v-50q0 -13 -8.5 -21.5t-21.5 -8.5v0q-13 0 -21.5 8.5t-8.5 21.5v74q0 15 10.5 25.5t25.5 10.5h112q5 0 8.5 3.5
t3.5 8.5v152q0 15 10.5 25.5t25.5 10.5h72l-38 155q-23 91 -98.5 148t-171.5 57q-116 0 -198 -81t-82 -197q0 -60 24.5 -114t69.5 -96l26 -24v-158q0 -13 -8.5 -21.5t-21.5 -8.5v0q-13 0 -21.5 8.5t-8.5 21.5v131zM494 450v0v0v0v0v0v0v0v0v0v0v0v0v0v0v0v0v0v0v0v0z" />
    <glyph glyph-name="export_notes" unicode="EXPORT_NOTES" 
d="M762 255v-70q0 -7 5 -12.5t13 -5.5q7 0 12 5.5t5 12.5v112q0 7 -5.5 12.5t-12.5 5.5h-112q-7 0 -12 -5t-5 -13q0 -7 5 -12t12 -5h70l-94 -95q-5 -5 -5.5 -12t5.5 -12q5 -6 12.5 -6t12.5 6zM212 140q-30 0 -51 21t-21 51v536q0 30 21 51t51 21h536q30 0 51 -21t21 -51
v-253q-15 6 -29.5 10.5t-30.5 6.5v236q0 4 -4 8t-8 4h-536q-4 0 -8 -4t-4 -8v-536q0 -4 4 -8t8 -4h235q2 -17 6.5 -31.5t10.5 -28.5h-252zM200 240v-20.5v-19.5v0v4v8v536v8v4v0v-4v-8v-236v2.5v0.5v-80.5v-194.5zM290 325q0 -13 8.5 -21.5t21.5 -8.5h131q2 15 7.5 30
t11.5 30h-150q-13 0 -21.5 -9t-8.5 -21zM290 480q0 -13 8.5 -21.5t21.5 -8.5h224q25 22 54.5 37t63.5 21v0q-7 1 -15.5 1.5t-14.5 0.5h-312q-13 0 -21.5 -8.5t-8.5 -21.5zM290 635q0 -12 8.5 -21t21.5 -9h320q13 0 21.5 9t8.5 21q0 13 -8.5 21.5t-21.5 8.5h-320
q-13 0 -21.5 -8.5t-8.5 -21.5zM720 58q-75 0 -127.5 52.5t-52.5 127.5t52.5 127.5t127.5 52.5t127.5 -52.5t52.5 -127.5t-52.5 -127.5t-127.5 -52.5z" />
    <glyph glyph-name="family_history" unicode="FAMILY_HISTORY" 
d="M480 83q-58 0 -98 40.5t-40 98.5q0 49 30.5 86.5t77.5 47.5v94h-158q-30 0 -51 21t-21 51v80h-62q-15 0 -25.5 10.5t-10.5 25.5v184q0 15 10.5 25.5t25.5 10.5h184q15 0 25.5 -10.5t10.5 -25.5v-184q0 -15 -10.5 -25.5t-25.5 -10.5h-62v-80q0 -5 3.5 -8.5t8.5 -3.5h376
q5 0 8.5 3.5t3.5 8.5v83q-47 11 -77.5 48t-30.5 87q0 58 40 98t98 40t98 -40t40 -98q0 -50 -30.5 -87t-77.5 -48v-83q0 -30 -21 -51t-51 -21h-158v-94q47 -10 77.5 -47.5t30.5 -86.5q0 -58 -40 -98.5t-98 -40.5zM710 662q32 0 55 23t23 55t-23 55t-55 23t-55 -23t-23 -55
t23 -55t55 -23zM182 662h136v136h-136v-136zM480 143q32 0 55 23t23 56q0 32 -23 55t-55 23t-55 -23t-23 -56q0 -32 23 -55t55 -23zM250 730v0v0v0v0zM710 740v0v0v0v0v0v0v0v0zM480 222v0v0v0v0v0v0v0v0z" />
    <glyph glyph-name="flowsheet" unicode="FLOWSHEET" 
d="M160 474v-142v-41v-51v0v4v8v456v8v4v0v-4v-8v-61v-101v-38v-34v0zM572 135q19 0 32.5 13.5t13.5 33.5q0 19 -13.5 32.5t-32.5 13.5q-20 0 -33.5 -13.5t-13.5 -32.5q0 -20 13.5 -33.5t33.5 -13.5zM800 500q19 0 32.5 13.5t13.5 32.5t-13.5 32.5t-32.5 13.5t-32.5 -13.5
t-13.5 -32.5t13.5 -32.5t32.5 -13.5zM425 530q13 0 21.5 8.5t8.5 21.5t-8.5 21.5t-21.5 8.5h-145q-13 0 -21.5 -8.5t-8.5 -21.5t8.5 -21.5t21.5 -8.5h145zM425 370q13 0 21.5 8.5t8.5 21.5t-8.5 21.5t-21.5 8.5h-145q-13 0 -21.5 -8.5t-8.5 -21.5t8.5 -21.5t21.5 -8.5h145z
M172 180q-30 0 -51 21t-21 51v456q0 30 21 51t51 21h616q30 0 51 -21t21 -51h-60q0 4 -4 8t-8 4h-616q-4 0 -8 -4t-4 -8v-456q0 -4 4 -8t8 -4h213v-60h-213zM572 75q-45 0 -76 31t-31 76q0 36 21.5 64t55.5 37v75q0 15 10 25.5t26 10.5h192v51q-33 9 -54.5 37t-21.5 64
q0 44 31 75t75 31t75 -31t31 -75q0 -36 -21.5 -64t-54.5 -37v-75q0 -15 -10.5 -25.5t-25.5 -10.5h-192v-51q33 -9 54.5 -37t21.5 -64q0 -45 -31 -76t-75 -31z" />
    <glyph glyph-name="call" unicode="CALL" 
d="M777 142q-116 0 -230.5 55.5t-204.5 145.5t-145.5 204t-55.5 231q0 18 12 30t30 12h130q16 0 27.5 -9.5t14.5 -24.5l23 -118q2 -15 -1 -27t-13 -21l-92 -90q48 -80 113.5 -145t148.5 -113l89 90q10 10 23.5 14t27.5 2l111 -23q15 -3 24.5 -14t9.5 -27v-130q0 -18 -12 -30
t-30 -12zM244 587l71 68q2 2 2.5 4.5t-0.5 4.5l-17 90q-1 3 -3 4.5t-5 1.5h-85q-3 0 -4.5 -1.5t-1.5 -3.5q3 -41 13.5 -83.5t29.5 -84.5zM754 204q2 0 3.5 1.5t1.5 3.5v84q0 3 -1.5 5t-4.5 3l-84 17q-2 1 -4 0l-4 -2l-71 -72q40 -19 83 -29t81 -11zM591 244v0v0v0v0v0v0v0v0
v0v0v0zM244 587v0v0v0v0v0v0v0v0v0v0v0z" />
    <glyph glyph-name="call_end" unicode="CALL_END_ALT" 
d="M480 630q115 0 228 -46.5t201 -140.5q9 -9 9 -21.5t-9 -20.5l-92 -90q-8 -8 -19 -9t-20 6l-114 86q-7 5 -10.5 12.5t-3.5 16.5v118q-42 14 -84.5 21.5t-85.5 7.5t-85.5 -7.5t-84.5 -21.5v-118q0 -9 -3.5 -16.5t-10.5 -12.5l-114 -86q-9 -7 -20 -6t-19 9l-92 90
q-9 9 -9 21t9 21q87 94 200.5 140.5t228.5 46.5zM250 517q-37 -18 -71.5 -42t-64.5 -51l53 -53l83 64v82zM710 516v-81l83 -64l54 51q-33 30 -66.5 53t-70.5 41zM250 517v0v0v0v0v0zM710 516v0v0v0v0v0z" />
    <glyph glyph-name="call_made" unicode="CALL_MADE" 
d="M195 195q-9 9 -9 21t9 21l453 453h-248q-13 0 -21.5 8.5t-8.5 21.5t8.5 21.5t21.5 8.5h314q15 0 25.5 -10.5t10.5 -25.5v-314q0 -13 -8.5 -21.5t-21.5 -8.5t-21.5 8.5t-8.5 21.5v248l-454 -454q-8 -8 -20 -8t-21 9z" />
    <glyph glyph-name="call_merge" unicode="CALL_MERGE" 
d="M275 195q-9 9 -9 21t9 21l175 175v298l-93 -93q-8 -8 -20 -8t-21 9q-10 10 -10 22t10 21l139 139q5 6 11.5 8t13.5 2t13.5 -2t11.5 -8l141 -141q8 -8 8.5 -20t-8.5 -21q-10 -10 -22 -10t-21 10l-93 92v-322l-194 -194q-8 -8 -20 -8t-21 9zM643 194l-107 107l43 42
l107 -108q8 -8 8 -19.5t-9 -21.5q-9 -8 -21 -8t-21 8z" />
    <glyph glyph-name="call_missed" unicode="CALL_MISSED" 
d="M482 292q-7 0 -13.5 2.5t-11.5 8.5l-265 264v-167q0 -13 -8.5 -21.5t-21.5 -8.5t-21.5 8.5t-8.5 21.5v234q0 15 10.5 25.5t25.5 10.5h234q13 0 21.5 -8.5t8.5 -21.5t-8.5 -21.5t-21.5 -8.5h-168l248 -248l283 283q9 9 21 9t21 -9t9 -21t-9 -22l-300 -299
q-5 -6 -11.5 -8.5t-13.5 -2.5z" />
    <glyph glyph-name="call_received" unicode="CALL_RECEIVED" 
d="M250 174q-15 0 -25.5 10.5t-10.5 25.5v314q0 13 8.5 21.5t21.5 8.5t21.5 -8.5t8.5 -21.5v-248l454 454q8 8 20 8t21 -9t9 -21.5t-9 -20.5l-453 -453h248q13 0 21.5 -8.5t8.5 -21.5t-8.5 -21.5t-21.5 -8.5h-314z" />
    <glyph glyph-name="call_split" unicode="CALL_SPLIT" 
d="M580 537l-43 43l151 150h-88q-13 0 -21.5 8.5t-8.5 21.5t8.5 21.5t21.5 8.5h154q15 0 25.5 -10.5t10.5 -25.5v-154q0 -13 -8.5 -21.5t-21.5 -8.5t-21.5 8.5t-8.5 21.5v88zM480 170q-13 0 -21.5 8.5t-8.5 21.5v269l-220 219v-88q0 -13 -8.5 -21.5t-21.5 -8.5t-21.5 8.5
t-8.5 21.5v154q0 15 10.5 25.5t25.5 10.5h154q13 0 21.5 -8.5t8.5 -21.5t-8.5 -21.5t-21.5 -8.5h-88l238 -237v-293q0 -13 -8.5 -21.5t-21.5 -8.5z" />
    <glyph glyph-name="chat" unicode="CHAT" 
d="M280 410h240q13 0 21.5 8.5t8.5 21.5t-8.5 21.5t-21.5 8.5h-240q-13 0 -21.5 -8.5t-8.5 -21.5t8.5 -21.5t21.5 -8.5zM280 530h400q13 0 21.5 8.5t8.5 21.5t-8.5 21.5t-21.5 8.5h-400q-13 0 -21.5 -8.5t-8.5 -21.5t8.5 -21.5t21.5 -8.5zM280 650h400q13 0 21.5 8.5
t8.5 21.5t-8.5 21.5t-21.5 8.5h-400q-13 0 -21.5 -8.5t-8.5 -21.5t8.5 -21.5t21.5 -8.5zM242 260l-81 -80q-17 -17 -39 -7.5t-22 33.5v582q0 30 21 51t51 21h616q30 0 51 -21t21 -51v-456q0 -30 -21 -51t-51 -21h-546zM188 320h600q4 0 8 4t4 8v456q0 4 -4 8t-8 4h-616
q-4 0 -8 -4t-4 -8v-496zM160 320v0v468v8v4v0v-4v-8v-456v-8v-4v0z" />
    <glyph glyph-name="clear_all" unicode="CLEAR_ALL" 
d="M720 450h-480q-13 0 -21.5 8.5t-8.5 21.5t8.5 21.5t21.5 8.5h480q13 0 21.5 -8.5t8.5 -21.5t-8.5 -21.5t-21.5 -8.5zM640 290h-480q-13 0 -21.5 8.5t-8.5 21.5t8.5 21.5t21.5 8.5h480q13 0 21.5 -8.5t8.5 -21.5t-8.5 -21.5t-21.5 -8.5zM800 610h-480q-13 0 -21.5 8.5
t-8.5 21.5t8.5 21.5t21.5 8.5h480q13 0 21.5 -8.5t8.5 -21.5t-8.5 -21.5t-21.5 -8.5z" />
    <glyph glyph-name="comment" unicode="COMMENT" 
d="M280 410h400q13 0 21.5 8.5t8.5 21.5t-8.5 21.5t-21.5 8.5h-400q-13 0 -21.5 -8.5t-8.5 -21.5t8.5 -21.5t21.5 -8.5zM280 530h400q13 0 21.5 8.5t8.5 21.5t-8.5 21.5t-21.5 8.5h-400q-13 0 -21.5 -8.5t-8.5 -21.5t8.5 -21.5t21.5 -8.5zM280 650h400q13 0 21.5 8.5
t8.5 21.5t-8.5 21.5t-21.5 8.5h-400q-13 0 -21.5 -8.5t-8.5 -21.5t8.5 -21.5t21.5 -8.5zM172 260q-30 0 -51 21t-21 51v456q0 30 21 51t51 21h616q30 0 51 -21t21 -51v-582q0 -24 -22 -33.5t-39 7.5l-81 80h-546zM172 320h600l28 -28v496q0 4 -4 8t-8 4h-616q-4 0 -8 -4
t-4 -8v-456q0 -4 4 -8t8 -4zM160 320v0v4v8v456v8v4v0v-4v-8v-468z" />
    <glyph glyph-name="contacts" unicode="CONTACTS" 
d="M200 72q-13 0 -21.5 9t-8.5 21q0 13 8.5 21.5t21.5 8.5h560q13 0 21.5 -8.5t8.5 -21.5q0 -12 -8.5 -21t-21.5 -9h-560zM200 828q-13 0 -21.5 8.5t-8.5 21.5q0 12 8.5 21t21.5 9h560q13 0 21.5 -9t8.5 -21q0 -13 -8.5 -21.5t-21.5 -8.5h-560zM480 420q46 0 78 32t32 78
t-32 78t-78 32t-78 -32t-32 -78t32 -78t78 -32zM172 180q-30 0 -51 21t-21 51v456q0 30 21 51t51 21h616q30 0 51 -21t21 -51v-456q0 -30 -21 -51t-51 -21h-616zM256 240q45 48 102 74t122 26t122 -26t102 -74h84q4 0 8 4t4 8v456q0 4 -4 8t-8 4h-616q-4 0 -8 -4t-4 -8v-456
q0 -4 4 -8t8 -4h84zM348 240h264q-29 20 -62.5 30t-69.5 10t-69.5 -10t-62.5 -30zM480 480q-21 0 -35.5 14.5t-14.5 35.5t14.5 35.5t35.5 14.5t35.5 -14.5t14.5 -35.5t-14.5 -35.5t-35.5 -14.5zM480 480v0v0v0v0v0v0v0v0v0v0v0v0v0v0v0v0v0z" />
    <glyph glyph-name="dialer_sip" unicode="DIALER_SIP" 
d="M647 630q-7 0 -12.5 5.5t-5.5 12.5v145q0 7 5.5 12.5t12.5 5.5t12.5 -5.5t5.5 -12.5v-145q0 -8 -5.5 -13t-12.5 -5zM499 630q-7 0 -12 5.5t-5 12.5t5 12t12 5h59v38h-58q-8 0 -13 5.5t-5 13.5v70q0 8 5 13.5t13 5.5h75q7 0 12.5 -5.5t5.5 -12.5t-5.5 -12.5t-12.5 -5.5
h-58v-37h58q7 0 12.5 -5t5.5 -13v-72q0 -7 -5.5 -12.5t-12.5 -5.5h-76zM718 630q-7 0 -12 5.5t-5 12.5v144q0 8 5.5 13.5t12.5 5.5h76q7 0 12.5 -5.5t5.5 -13.5v-70q0 -8 -5.5 -13.5t-13.5 -5.5h-58v-55q0 -8 -5 -13t-13 -5zM736 738h42v37h-42v-37zM777 142
q-116 0 -230.5 55.5t-204.5 145.5t-145.5 204t-55.5 231q0 18 12 30t30 12h130q16 0 27.5 -9.5t14.5 -24.5l23 -118q2 -15 -1 -27t-13 -21l-91 -90q47 -80 112.5 -145t148.5 -113l89 90q10 10 23.5 14t27.5 2l111 -23q15 -3 24.5 -14t9.5 -27v-130q0 -18 -12 -30t-30 -12z
M244 587l72 68q2 2 2.5 4.5t-0.5 4.5l-18 90q-1 3 -3 4.5t-5 1.5h-85q-2 0 -3.5 -1.5t-1.5 -3.5q3 -41 13.5 -83.5t28.5 -84.5zM754 204q2 0 3.5 1.5t1.5 3.5v84q0 3 -1.5 5t-4.5 3l-84 17q-2 1 -4 0.5t-4 -2.5l-70 -71q40 -19 82.5 -29.5t80.5 -11.5zM591 245v0v0v0v0v0v0
v0v0v0v0v0zM244 587v0v0v0v0v0v0v0v0v0v0v0z" />
    <glyph glyph-name="dialpad" unicode="DIALPAD" 
d="M480 63q-29 0 -49.5 20.5t-20.5 49.5t20.5 49.5t49.5 20.5t49.5 -20.5t20.5 -49.5t-20.5 -49.5t-49.5 -20.5zM245 763q-30 0 -50 20.5t-20 49.5t20 49.5t50 20.5q29 0 49.5 -20.5t20.5 -49.5t-20.5 -49.5t-49.5 -20.5zM245 528q-30 0 -50 20.5t-20 49.5t20 49.5t50 20.5
q29 0 49.5 -20.5t20.5 -49.5t-20.5 -49.5t-49.5 -20.5zM245 292q-30 0 -50 20.5t-20 49.5t20 49.5t50 20.5q29 0 49.5 -20.5t20.5 -49.5t-20.5 -49.5t-49.5 -20.5zM715 763q-29 0 -49.5 20.5t-20.5 49.5t20.5 49.5t49.5 20.5q30 0 50 -20.5t20 -49.5t-20 -49.5t-50 -20.5z
M480 292q-29 0 -49.5 20.5t-20.5 49.5t20.5 49.5t49.5 20.5t49.5 -20.5t20.5 -49.5t-20.5 -49.5t-49.5 -20.5zM715 292q-29 0 -49.5 20.5t-20.5 49.5t20.5 49.5t49.5 20.5q30 0 50 -20.5t20 -49.5t-20 -49.5t-50 -20.5zM715 528q-29 0 -49.5 20.5t-20.5 49.5t20.5 49.5
t49.5 20.5q30 0 50 -20.5t20 -49.5t-20 -49.5t-50 -20.5zM480 528q-29 0 -49.5 20.5t-20.5 49.5t20.5 49.5t49.5 20.5t49.5 -20.5t20.5 -49.5t-20.5 -49.5t-49.5 -20.5zM480 763q-29 0 -49.5 20.5t-20.5 49.5t20.5 49.5t49.5 20.5t49.5 -20.5t20.5 -49.5t-20.5 -49.5
t-49.5 -20.5z" />
    <glyph glyph-name="mail" unicode="EMAIL" 
d="M172 180q-30 0 -51 21t-21 51v456q0 30 21 51t51 21h616q30 0 51 -21t21 -51v-456q0 -30 -21 -51t-51 -21h-616zM800 662l-301 -192q-4 -3 -9 -4.5t-10 -1.5t-10 1.5t-9 4.5l-301 192v-410q0 -5 3.5 -8.5t8.5 -3.5h616q5 0 8.5 3.5t3.5 8.5v410zM480 520l314 200h-628z
M160 662v-9v11v14v21t0 -1v22v0v-22q0 8 0 1v-20v-15v-11v9v-410v-8.5v-3.5v0v3.5v8.5v410z" />
    <glyph glyph-name="forum" unicode="FORUM" 
d="M285 275q-15 0 -25.5 10.5t-10.5 25.5v60h495l13 -13v362h60q15 0 25 -10t10 -25v-464q0 -24 -22 -33.5t-39 7.5l-80 80h-426zM249 451l-80 -80q-17 -17 -39 -8t-22 34v428q0 15 10 25t25 10h499q15 0 25 -10t10 -25v-339q0 -15 -10 -25t-25 -10h-393zM617 511v289h-449
v-317l27 28h422zM168 511v0v0v289v0v-289z" />
    <glyph glyph-name="swap_vert" unicode="IMPORT_EXPORT" 
d="M570 209v271q0 13 8.5 21.5t21.5 8.5t21.5 -8.5t8.5 -21.5v-271l93 92q8 9 20 9t21 -9q10 -9 10 -21t-9 -21l-140 -140q-5 -5 -11.5 -7.5t-13.5 -2.5t-13.5 2.5t-11.5 7.5l-140 140q-9 9 -9 21t10 21q9 9 20.5 9t21.5 -9zM330 751l-93 -92q-9 -10 -21 -9.5t-20 9.5
q-10 9 -10 21t9 21l140 140q5 5 11.5 7.5t13.5 2.5t13.5 -2.5t11.5 -7.5l140 -140q9 -9 9 -21t-9 -21t-21 -9t-22 9l-92 92v-271q0 -13 -8.5 -21.5t-21.5 -8.5t-21.5 8.5t-8.5 21.5v271z" />
    <glyph glyph-name="invert_colors_off" unicode="INVERT_COLORS_OFF" 
d="M756 317l-276 276v175l-89 -87l-42 42l106 104q5 6 11.5 8.5t13.5 2.5t13.5 -2.5t11.5 -8.5l187 -183q45 -45 66.5 -98t21.5 -111q0 -32 -6.5 -63t-17.5 -55zM771 105l-102 102q-42 -35 -91.5 -51t-97.5 -16q-125 0 -212.5 85t-87.5 210q0 50 17 98t54 92l-132 132
q-9 8 -9 21t9 21q8 9 20.5 9t21.5 -9l652 -652q8 -8 8.5 -21t-8.5 -21q-9 -9 -21 -9t-21 9zM480 200v195l-187 187q-29 -36 -41 -72.5t-12 -74.5q0 -100 70 -167.5t170 -67.5z" />
    <glyph glyph-name="live_help" unicode="LIVE_HELP" 
d="M480 302q17 0 28.5 12t11.5 29t-11.5 29t-28.5 12q-18 0 -29.5 -12t-11.5 -29t11.5 -29t29.5 -12zM509 472q2 17 10.5 30t30.5 34q33 33 45.5 55t12.5 50q0 49 -34.5 79.5t-86.5 30.5q-40 0 -71 -17t-47 -44q-7 -11 -3.5 -23t14.5 -16q10 -5 20.5 -0.5t16.5 13.5
q10 16 27.5 25t39.5 9q33 0 50.5 -17t17.5 -42q0 -19 -11.5 -38t-32.5 -38q-27 -24 -40.5 -47t-13.5 -44q0 -11 8 -18.5t19 -7.5t18.5 7.5t9.5 18.5zM455 94l-87 86h-156q-30 0 -51 21t-21 51v536q0 30 21 51t51 21h536q30 0 51 -21t21 -51v-536q0 -30 -21 -51t-51 -21h-156
l-87 -86q-10 -10 -25 -10t-25 10zM212 240h181l87 -87l87 87h181q5 0 8.5 3.5t3.5 8.5v536q0 5 -3.5 8.5t-8.5 3.5h-536q-5 0 -8.5 -3.5t-3.5 -8.5v-536q0 -5 3.5 -8.5t8.5 -3.5zM200 800v0v-3.5v-8.5v-536v-8.5v-3.5v0v3.5v8.5v536v8.5v3.5z" />
    <glyph glyph-name="location_off" unicode="LOCATION_OFF" 
d="M543 531l-92 92q6 4 13.5 5.5t15.5 1.5q29 0 49.5 -20.5t20.5 -49.5q0 -8 -1.5 -15.5t-5.5 -13.5zM453 111q-142 129 -212.5 238.5t-70.5 202.5q0 36 6.5 68t18.5 60l-123 123q-8 8 -8 20.5t8 22.5q9 8 21.5 8t22.5 -8l737 -739q9 -8 9 -20.5t-9 -21.5t-21.5 -9t-20.5 9
l-176 175q-27 -31 -59 -63.5t-69 -65.5q-6 -5 -13 -7t-14 -2t-14 2t-13 7zM721 353q35 55 52 104t17 95q0 145 -93.5 231.5t-216.5 86.5q-57 0 -109 -19t-93 -55l42 -42q33 27 73 41.5t87 14.5q105 0 177.5 -72t72.5 -186q0 -33 -13 -72t-40 -83zM480 168q33 29 61 57.5
t52 57.5l-350 349q-6 -19 -9.5 -39t-3.5 -41q0 -73 63 -173.5t187 -210.5zM418 457v0v0v0v0v0v0v0v0zM500 574v0v0v0v0v0v0v0v0z" />
    <glyph glyph-name="place" unicode="FMD_GOOD" 
d="M480 490q29 0 49.5 20.5t20.5 49.5t-20.5 49.5t-49.5 20.5t-49.5 -20.5t-20.5 -49.5t20.5 -49.5t49.5 -20.5zM480 168q124 110 187 210.5t63 173.5q0 114 -72.5 186t-177.5 72t-177.5 -72t-72.5 -186q0 -73 63 -173.5t187 -210.5zM480 102q-7 0 -14 2t-13 7
q-142 129 -212.5 239t-70.5 202q0 145 93.5 231.5t216.5 86.5t216.5 -86.5t93.5 -231.5q0 -92 -70.5 -202t-212.5 -239q-6 -5 -13 -7t-14 -2zM480 552v0v0v0v0v0v0v0v0z" />
    <glyph glyph-name="chat_bubble" unicode="CHAT_BUBBLE_OUTLINE" 
d="M242 260l-81 -80q-17 -17 -39 -7.5t-22 33.5v582q0 30 21 51t51 21h616q30 0 51 -21t21 -51v-456q0 -30 -21 -51t-51 -21h-546zM188 320h600q4 0 8 4t4 8v456q0 4 -4 8t-8 4h-616q-4 0 -8 -4t-4 -8v-496zM160 320v0v468v8v4v0v-4v-8v-456v-8v-4v0z" />
    <glyph glyph-name="no_sim" unicode="NO_SIM" 
d="M780 288l-60 60v440q0 4 -4 8t-8 4h-274l-83 -83l-43 42l100 101h300q30 0 51 -21t21 -51v-500zM252 100q-30 0 -51 21t-21 51v430q0 14 5.5 27.5t15.5 23.5l8 8l-133 133q-9 9 -9 21t10 21q9 9 20.5 9.5t21.5 -9.5l721 -720q8 -9 8 -21t-8 -21q-10 -10 -22 -10t-21 10
l-545 545l-12 -12v-435q0 -4 4 -8t8 -4h456q4 0 8 4t4 8v63l60 -60v-3q0 -30 -21 -51t-51 -21h-456zM539 529v0v0v0v0v0v0zM479 392v0v0v0v0v0v0v0v0z" />
    <glyph glyph-name="wifi_tethering_off" unicode="PORTABLE_WIFI_OFF" 
d="M799 274l-43 44q21 35 32.5 76t11.5 86q0 134 -93 227t-227 93q-45 0 -85.5 -11.5t-77.5 -32.5l-43 43q45 30 97 45.5t109 15.5q79 0 148 -30t120.5 -81.5t81.5 -120.5t30 -148q0 -57 -15.5 -109t-45.5 -97zM771 104l-437 436q-6 -14 -10 -28.5t-4 -31.5q0 -28 9 -52.5
t25 -45.5q8 -11 7.5 -23t-9.5 -21t-21.5 -8.5t-19.5 10.5q-24 29 -37.5 64.5t-13.5 75.5q0 29 7.5 56t20.5 50l-72 73q-26 -39 -41 -83.5t-15 -95.5q0 -62 21.5 -115.5t59.5 -95.5q8 -10 8 -22t-10 -22q-9 -9 -21 -8.5t-20 9.5q-46 51 -72 115.5t-26 138.5q0 63 19 119
t54 103l-70 69q-8 9 -8 21.5t9 21.5t21 9t22 -9l667 -668q9 -9 9 -21t-9 -21t-21.5 -9t-21.5 9zM682 392l-47 47q2 10 3.5 20t1.5 21q0 66 -47 113t-113 47q-11 0 -21 -1.5t-20 -3.5l-47 47q20 8 42 13t46 5q92 0 156 -64t64 -156q0 -24 -5 -46t-13 -42z" />
    <glyph glyph-name="contact_phone" unicode="CONTACT_PHONE_FILLED" 
d="M92 148q-30 0 -51 21t-21 51v520q0 30 21 51t51 21h776q30 0 51 -21t21 -51v-520q0 -30 -21 -51t-51 -21h-776zM614 208h254q4 0 8 3.5t4 8.5v520q0 5 -4 8.5t-8 3.5h-776q-4 0 -8 -3.5t-4 -8.5v-520q0 -5 4 -8.5t8 -3.5h14q42 64 109 102t145 38t145 -38t109 -102z
M360 395q46 0 78 32.5t32 77.5q0 46 -32 78t-78 32t-78 -32t-32 -78q0 -45 32 -77.5t78 -32.5zM721 273q10 -9 24.5 -8.5t24.5 10.5l26 27q10 9 11 22.5t-7 24.5l-25 33q-5 8 -12.5 11.5t-16.5 3.5h-50q-6 20 -10 40.5t-4 42.5t4 41.5t10 41.5h50q9 0 16.5 3.5t12.5 11.5
l25 33q8 11 7 24.5t-11 22.5l-26 27q-10 10 -24.5 10.5t-24.5 -8.5q-40 -41 -63 -95t-23 -112t23 -112t63 -95zM182 208h356q-34 38 -80.5 59t-97.5 21t-97 -21t-81 -59zM360 455q-21 0 -35.5 15t-14.5 35q0 21 14.5 35.5t35.5 14.5t35.5 -14.5t14.5 -35.5q0 -20 -14.5 -35
t-35.5 -15zM480 480v0v0v0v0v0v0v0v0v0v0v0v0v0v0v0v0v0z" />
    <glyph glyph-name="contact_mail" unicode="CONTACT_MAIL" 
d="M92 148q-30 0 -51 21t-21 51v520q0 30 21 51t51 21h776q30 0 51 -21t21 -51v-520q0 -30 -21 -51t-51 -21h-776zM614 208h254q4 0 8 3.5t4 8.5v520q0 5 -4 8.5t-8 3.5h-776q-4 0 -8 -3.5t-4 -8.5v-520q0 -5 4 -8.5t8 -3.5h14q42 64 109 102t145 38t145 -38t109 -102z
M360 395q46 0 78 32.5t32 77.5q0 46 -32 78t-78 32t-78 -32t-32 -78q0 -45 32 -77.5t78 -32.5zM600 516h200q15 0 25.5 10.5t10.5 25.5v120q0 16 -10.5 26t-25.5 10h-200q-15 0 -25.5 -10t-10.5 -26v-120q0 -15 10.5 -25.5t25.5 -10.5zM182 208h356q-34 38 -80.5 59
t-97.5 21t-97 -21t-81 -59zM360 455q-21 0 -35.5 15t-14.5 35q0 21 14.5 35.5t35.5 14.5t35.5 -14.5t14.5 -35.5q0 -20 -14.5 -35t-35.5 -15zM480 480v0v0v0v0v0v0v0v0v0v0v0v0v0v0v0v0v0zM700 564l-99 69v38l99 -69l99 69v-38z" />
    <glyph glyph-name="ring_volume" unicode="RING_VOLUME_FILLED" 
d="M143 159l-92 90q-9 9 -8.5 20.5t8.5 21.5q88 93 201 140t228 47t228.5 -47t200.5 -140q9 -10 9 -22t-9 -20l-92 -90q-7 -8 -18 -9t-20 5l-114 86q-7 6 -11 13.5t-4 15.5v119q-41 14 -84 21.5t-86 7.5q-42 0 -85 -7.5t-85 -21.5v-119q0 -8 -3.5 -15.5t-10.5 -13.5
l-114 -86q-8 -6 -19.5 -5t-19.5 9zM168 219l82 63v83q-37 -18 -71 -42t-64 -51zM793 219l54 51q-33 30 -66 53t-71 41v-81zM480 680q-12 0 -21 9t-9 21v120q0 13 9 21.5t21 8.5q13 0 21.5 -8.5t8.5 -21.5v-120q0 -12 -8.5 -21t-21.5 -9zM683 593q-8 10 -8.5 21.5t8.5 20.5
l86 85q9 9 21 9t21 -10q9 -9 9.5 -20.5t-9.5 -21.5l-85 -84q-9 -9 -21 -9t-22 9zM235 592l-86 84q-9 9 -9 21.5t9 21.5t21.5 9.5t21.5 -8.5l85 -85q10 -9 9.5 -20.5t-9.5 -21.5q-8 -9 -20.5 -9.5t-21.5 8.5zM710 364v0v0v0v0v0zM250 365v0v0v0v0v0z" />
    <glyph glyph-name="speaker_phone" unicode="SPEAKER_PHONE" 
d="M552 95h-144q-31 0 -52 21t-21 52v304q0 31 21 52t52 21h144q31 0 52 -21t21 -52v-304q0 -31 -21 -52t-52 -21zM552 155q5 0 9 4t4 9v304q0 5 -4 9t-9 4h-144q-5 0 -9 -4t-4 -9v-304q0 -5 4 -9t9 -4h144zM552 155h-144h-9h-4v0h4h9h144h9h4v0h-4h-9zM316 642
q-9 9 -9 21.5t11 19.5q35 28 76.5 42.5t85.5 14.5t85.5 -14.5t76.5 -42.5q11 -7 11.5 -19t-9.5 -22q-9 -9 -21.5 -9.5t-23.5 7.5q-25 20 -55.5 30t-63.5 10t-63.5 -10t-55.5 -30q-11 -8 -23.5 -7.5t-21.5 9.5zM205 757q-9 9 -9 21t10 20q57 50 127.5 76t146.5 26t146.5 -26
t127.5 -76q10 -8 10 -20t-9 -21q-8 -8 -20.5 -8.5t-22.5 7.5q-49 41 -109 62.5t-123 21.5t-123 -21.5t-109 -62.5q-10 -8 -22.5 -7.5t-20.5 8.5z" />
    <glyph glyph-name="stay_current_landscape" unicode="STAY_CURRENT_LANDSCAPE" 
d="M132 220q-30 0 -51 21t-21 51v376q0 30 21 51t51 21h696q30 0 51 -21t21 -51v-376q0 -30 -21 -51t-51 -21h-696zM170 280v400h-38q-4 0 -8 -4t-4 -8v-376q0 -4 4 -8t8 -4h38zM230 280h500v400h-500v-400zM790 280h38q4 0 8 4t4 8v376q0 4 -4 8t-8 4h-38v-400zM170 680
h-38h-8h-4v0h4h8h38v0zM790 680v0h38h8h4v0h-4h-8h-38z" />
    <glyph glyph-name="stay_current_portrait" unicode="STAY_CURRENT_PORTRAIT" 
d="M292 60q-30 0 -51 21t-21 51v696q0 30 21 51t51 21h376q30 0 51 -21t21 -51v-696q0 -30 -21 -51t-51 -21h-376zM280 170v-38q0 -4 4 -8t8 -4h376q4 0 8 4t4 8v38h-400zM280 230h400v500h-400v-500zM280 790h400v38q0 4 -4 8t-8 4h-376q-4 0 -8 -4t-4 -8v-38zM280 790v38
v8v4v0v-4v-8v-38v0zM280 170v0v-38v-8v-4v0v4v8v38z" />
    <glyph glyph-name="stay_primary_landscape" unicode="STAY_PRIMARY_LANDSCAPE" 
d="M132 220q-30 0 -51 21t-21 51v376q0 30 21 51t51 21h696q30 0 51 -21t21 -51v-376q0 -30 -21 -51t-51 -21h-696zM170 280v400h-38q-4 0 -8 -4t-4 -8v-376q0 -4 4 -8t8 -4h38zM230 280h500v400h-500v-400zM790 280h38q4 0 8 4t4 8v376q0 4 -4 8t-8 4h-38v-400zM170 680
h-38h-8h-4v0h4h8h38v0zM790 680v0h38h8h4v0h-4h-8h-38z" />
    <glyph glyph-name="stay_primary_portrait" unicode="STAY_PRIMARY_PORTRAIT" 
d="M480 430q-13 0 -21.5 8.5t-8.5 21.5v182q0 12 8.5 21t21.5 9t21.5 -9t8.5 -21v-182q0 -13 -8.5 -21.5t-21.5 -8.5zM480 291q-14 0 -23 9t-9 23t9 23t23 9t23 -9t9 -23t-9 -23t-23 -9zM292 60q-30 0 -51 21t-21 51v696q0 30 21 51t51 21h376q30 0 51 -21t21 -51v-696
q0 -30 -21 -51t-51 -21h-376zM280 230h400v500h-400v-500zM280 170v-38q0 -5 3.5 -8.5t8.5 -3.5h376q5 0 8.5 3.5t3.5 8.5v38h-400zM280 790h400v38q0 5 -3.5 8.5t-8.5 3.5h-376q-5 0 -8.5 -3.5t-3.5 -8.5v-38zM280 840v0v-3.5v-8.5v-38v0v38v8.5v3.5zM280 120v0v3.5v8.5v38
v0v-38v-8.5v-3.5z" />
    <glyph glyph-name="swap_calls" unicode="SWAP_CALLS" 
d="M600 210q-62 0 -106 44t-44 106v280q0 38 -26 64t-64 26t-64 -26t-26 -64v-314l53 53q9 8 21 8t21 -9t9 -21.5t-10 -22.5l-99 -99q-5 -5 -11.5 -7.5t-13.5 -2.5t-13.5 2.5t-11.5 7.5l-100 100q-9 9 -9 21.5t9 21.5t21 9t22 -9l52 -52v314q0 62 44 106t106 44t106 -44
t44 -106v-280q0 -38 26 -64t64 -26t64 26t26 64v314l-53 -53q-9 -8 -21 -8t-21 9t-9 21.5t10 22.5l99 99q5 5 11.5 7.5t13.5 2.5t13.5 -2.5t11.5 -7.5l100 -100q9 -9 9 -21.5t-9 -21.5t-21 -9t-22 9l-52 52v-314q0 -62 -44 -106t-106 -44z" />
    <glyph glyph-name="voicemail" unicode="VOICEMAIL" 
d="M268 335q-69 0 -117 48t-48 117q0 68 48 116.5t117 48.5q68 0 116 -48t48 -117q0 -30 -10 -57t-30 -48h176q-20 21 -30 48t-10 57q0 69 48 117t116 48q69 0 117 -48t48 -117q0 -68 -48 -116.5t-117 -48.5h-424zM268 395q44 0 74 30.5t30 74.5t-30 74.5t-74 30.5
t-74.5 -30.5t-30.5 -74.5t30.5 -74.5t74.5 -30.5zM692 395q44 0 74.5 30.5t30.5 74.5t-30.5 74.5t-74.5 30.5t-74 -30.5t-30 -74.5t30 -74.5t74 -30.5z" />
    <glyph glyph-name="vpn_key" unicode="VPN_KEY" 
d="M280 260q-92 0 -156 64t-64 156t64 156t156 64q62 0 115 -33t81 -87h352q30 0 51 -21t21 -51v-56q0 -30 -21 -51t-51 -21h-8v-48q0 -30 -21 -51t-51 -21h-56q-30 0 -51 21t-21 51v48h-144q-28 -54 -81 -87t-115 -33zM280 320q66 0 106 40.5t48 79.5h246v-108
q0 -5 3.5 -8.5t8.5 -3.5h56q5 0 8.5 3.5t3.5 8.5v108h68q5 0 8.5 3.5t3.5 8.5v56q0 5 -3.5 8.5t-8.5 3.5h-394q-8 39 -48 79.5t-106 40.5t-113 -47t-47 -113t47 -113t113 -47zM280 415q27 0 46 19t19 46t-19 46t-46 19t-46 -19t-19 -46t19 -46t46 -19zM280 480v0v0v0v0v0v0
v0v0v0v0v0v0v0v0v0z" />
    <glyph glyph-name="phonelink_erase" unicode="PHONELINK_ERASE" 
d="M670 438l-83 -83q-8 -8 -20.5 -8.5t-21.5 8.5t-9 21t9 21l83 83l-83 83q-8 8 -8.5 20.5t8.5 21.5t21 9t21 -9l83 -83l83 83q8 8 20.5 8.5t21.5 -8.5t9 -21t-9 -21l-83 -83l83 -83q8 -8 8.5 -20.5t-8.5 -21.5t-21 -9t-21 9zM252 60q-30 0 -51 21t-21 51v696q0 30 21 51
t51 21h376q30 0 51 -21t21 -51v-146h-60v48h-400v-500h400v48h60v-146q0 -30 -21 -51t-51 -21h-376zM240 170v-38q0 -4 4 -8t8 -4h376q4 0 8 4t4 8v38h-400zM240 790h400v38q0 4 -4 8t-8 4h-376q-4 0 -8 -4t-4 -8v-38zM240 790v38v8v4v0v-4v-8v-38v0zM240 170v0v-38v-8v-4v0
v4v8v38z" />
    <glyph glyph-name="phonelink_lock" unicode="PHONELINK_LOCK" 
d="M629 327q-14 0 -24 10.5t-10 24.5v121q0 14 10 24.5t24 10.5h6v40q0 31 22 53t53 22q32 0 54 -22t22 -53v-40h5q14 0 24 -10.5t10 -24.5v-121q0 -14 -10 -24.5t-24 -10.5h-162zM670 518h80v40q0 17 -11.5 28.5t-28.5 11.5t-28.5 -11.5t-11.5 -28.5v-40zM292 60
q-30 0 -51 21t-21 51v696q0 30 21 51t51 21h376q30 0 51 -21t21 -51v-146h-60v48h-400v-500h400v48h60v-146q0 -30 -21 -51t-51 -21h-376zM280 170v-38q0 -4 4 -8t8 -4h376q4 0 8 4t4 8v38h-400zM280 790h400v38q0 4 -4 8t-8 4h-376q-4 0 -8 -4t-4 -8v-38zM280 790v38v8v4v0
v-4v-8v-38v0zM280 170v0v-38v-8v-4v0v4v8v38z" />
    <glyph glyph-name="phonelink_ring" unicode="PHONELINK_RING" 
d="M768 480q0 -23 -7 -43.5t-20 -38.5q-7 -11 -19.5 -11.5t-22.5 8.5q-9 9 -9 21.5t5 24.5q6 9 9.5 18.5t3.5 20.5t-3.5 20.5t-9.5 18.5q-5 12 -5 24.5t9 21.5q10 9 22 9t19 -11q13 -18 20.5 -39t7.5 -44zM895 480q0 -48 -15.5 -93t-45.5 -82q-8 -10 -20.5 -10.5t-21.5 8.5
t-9 21.5t8 22.5q22 28 33 62.5t11 70.5t-11 70.5t-33 62.5q-8 10 -8 22.5t9 21.5t21.5 8.5t20.5 -10.5q30 -37 45.5 -82t15.5 -93zM292 60q-30 0 -51 21t-21 51v696q0 30 21 51t51 21h376q30 0 51 -21t21 -51v-146h-60v48h-400v-500h400v48h60v-146q0 -30 -21 -51t-51 -21
h-376zM280 170v-38q0 -4 4 -8t8 -4h376q4 0 8 4t4 8v38h-400zM280 790h400v38q0 4 -4 8t-8 4h-376q-4 0 -8 -4t-4 -8v-38zM280 790v38v8v4v0v-4v-8v-38v0zM280 170v0v-38v-8v-4v0v4v8v38z" />
    <glyph glyph-name="phonelink_setup" unicode="APP_SETTINGS_ALT" 
d="M292 60q-30 0 -51 21t-21 51v696q0 30 21 51t51 21h376q30 0 51 -21t21 -51v-146h-60v48h-400v-500h400v48h60v-146q0 -30 -21 -51t-51 -21h-376zM280 170v-38q0 -4 4 -8t8 -4h376q4 0 8 4t4 8v38h-400zM676 378q-12 3 -20.5 8.5t-15.5 12.5l-23 -10q-6 -3 -13 -0.5
t-10 8.5l-14 24q-3 6 -2 12.5t7 10.5l20 15q-3 12 -3 22t3 21l-20 15q-5 5 -6.5 11.5t2.5 12.5l14 24q4 5 10 7t13 -1l22 -9q7 7 15.5 12t20.5 8l2 25q1 7 6 11.5t12 4.5h28q7 0 12 -4.5t6 -11.5l2 -25q12 -3 20.5 -8t15.5 -12l22 9q6 3 12.5 1t10.5 -8l14 -23q4 -6 2.5 -13
t-6.5 -11l-20 -15q3 -11 3 -21t-3 -22l20 -15q6 -4 7 -10.5t-2 -12.5l-14 -24q-3 -7 -9.5 -9t-12.5 1l-24 10q-7 -7 -15.5 -12.5t-20.5 -8.5l-2 -25q-1 -7 -6 -11.5t-12 -4.5h-28q-7 0 -12 4.5t-6 11.5zM710 419q26 0 43.5 17.5t17.5 43.5t-17.5 43.5t-43.5 17.5
t-43.5 -17.5t-17.5 -43.5t17.5 -43.5t43.5 -17.5zM280 790h400v38q0 4 -4 8t-8 4h-376q-4 0 -8 -4t-4 -8v-38zM280 790v38v8v4v0v-4v-8v-38v0zM280 170v0v-38v-8v-4v0v4v8v38z" />
    <glyph glyph-name="present_to_all" unicode="PRESENT_TO_ALL" 
d="M450 511v-147q0 -13 8.5 -21.5t21.5 -8.5t21.5 8.5t8.5 21.5v147l53 -53q9 -8 21 -8.5t21 8.5q9 10 9 22t-9 21l-100 100q-11 11 -25 11t-25 -11l-100 -100q-9 -9 -9 -21t10 -21q9 -9 20.5 -9t21.5 9zM172 180q-30 0 -51 21t-21 51v456q0 30 21 51t51 21h616q30 0 51 -21
t21 -51v-456q0 -30 -21 -51t-51 -21h-616zM172 240h616q4 0 8 4t4 8v456q0 4 -4 8t-8 4h-616q-4 0 -8 -4t-4 -8v-456q0 -4 4 -8t8 -4zM160 240v4v8v456v8v4v0v-4v-8v-456v-8v-4v0z" />
    <glyph glyph-name="import_contacts" unicode="IMPORT_CONTACTS" 
d="M260 319q50 0 97 -11t93 -35v393q-42 27 -91 41t-99 14q-36 0 -67.5 -6t-64.5 -18q-4 -2 -6 -5t-2 -6v-378q0 -6 4 -8.5t8 -0.5q29 10 60.5 15t67.5 5zM510 273q46 24 93 35t97 11q36 0 67.5 -5t60.5 -15q4 -2 8 0.5t4 8.5v378q0 3 -2 6t-6 5q-33 12 -64.5 18t-67.5 6
q-50 0 -99 -14t-91 -41v-393zM480 201q-12 0 -22 3t-19 8q-41 23 -86.5 35t-92.5 12q-37 0 -72 -8t-68 -24q-21 -10 -40.5 3t-19.5 37v434q0 13 6.5 24.5t19.5 16.5q40 20 84.5 29.5t89.5 9.5q58 0 114 -16t106 -47q50 31 106 47t114 16q45 0 89.5 -9.5t84.5 -29.5
q13 -5 19.5 -16.5t6.5 -24.5v-434q0 -24 -20 -36.5t-42 -2.5q-33 15 -67.5 23t-70.5 8q-47 0 -92.5 -12t-86.5 -35q-9 -5 -19 -8t-22 -3zM285 497v0v0v0v0v0v0v0v0v0v0v0v0v0v0z" />
    <glyph glyph-name="screen_share" unicode="SCREEN_SHARE" 
d="M445 528h80v-45q0 -6 5.5 -8.5t10.5 2.5l68 68q5 5 5 12.5t-5 13.5l-68 67q-5 5 -10.5 2.5t-5.5 -8.5v-44h-80q-45 0 -77.5 -32.5t-32.5 -77.5v-50q0 -13 9 -21.5t21 -8.5q13 0 21.5 8.5t8.5 21.5v50q0 21 15 35.5t35 14.5zM85 151q-12 0 -21 8.5t-9 21.5t9 21.5t21 8.5
h790q12 0 21 -8.5t9 -21.5t-9 -21.5t-21 -8.5h-790zM172 251q-30 0 -51 21t-21 51v415q0 31 21 52t51 21h616q30 0 51 -21t21 -52v-415q0 -30 -21 -51t-51 -21h-616zM172 311h616q4 0 8 3.5t4 8.5v415q0 5 -4 9t-8 4h-616q-4 0 -8 -4t-4 -9v-415q0 -5 4 -8.5t8 -3.5z
M160 311v3.5v8.5v415v9v4v0v-4v-9v-415v-8.5v-3.5v0z" />
    <glyph glyph-name="stop_screen_share" unicode="STOP_SCREEN_SHARE" 
d="M569 505l-83 83h39v44q0 6 5.5 8.5t10.5 -2.5l68 -67q5 -6 5 -13.5t-5 -12.5zM816 258l-54 54h29q4 1 6.5 4.5t2.5 6.5v415q0 6 -3.5 9.5t-8.5 3.5h-465l-60 60h525q30 0 51 -21t21 -52v-415q0 -21 -11.5 -38.5t-32.5 -26.5zM725 151h-640q-12 0 -21 8.5t-9 21.5t9 21.5
t21 8.5h579l-40 40h-452q-30 0 -51 21t-21 51v419q0 7 3.5 12t8.5 8l-50 51q-8 9 -8 21t9 21t21 9t21 -9l750 -750q8 -8 8.5 -20.5t-8.5 -21.5t-21.5 -9t-20.5 9zM402 473q-4 -4 -5.5 -7.5t-1.5 -8.5v-29q0 -13 -8.5 -21.5t-21.5 -8.5q-12 0 -21 8.5t-9 21.5v50q0 15 3.5 27
t10.5 21l-179 179q-5 -1 -7.5 -4t-2.5 -7v-371q0 -5 3.5 -8.5t8.5 -3.5h392zM543 531v0v0v0v0v0v0v0v0zM367 509v0v0v0v0v0v0v0z" />
    <glyph glyph-name="call_missed_outgoing" unicode="CALL_MISSED_OUTGOING" 
d="M478 292q-7 0 -13.5 2.5t-11.5 8.5l-300 300q-9 8 -9 20t9 21q9 10 21 10t21 -9l283 -283l248 248h-168q-13 0 -21.5 8.5t-8.5 21.5t8.5 21.5t21.5 8.5h234q15 0 25.5 -10.5t10.5 -25.5v-234q0 -13 -8.5 -21.5t-21.5 -8.5t-21.5 8.5t-8.5 21.5v167l-265 -264
q-5 -6 -11.5 -8.5t-13.5 -2.5z" />
    <glyph glyph-name="rss_feed" unicode="RSS_FEED" 
d="M200 120q-27 0 -46 19t-19 46q0 26 19 45t46 19t46 -19t19 -45q0 -27 -19 -46t-46 -19zM739 120q-17 0 -30.5 13t-14.5 31q-8 103 -51 193t-112 159t-159 111.5t-193 50.5q-18 2 -31 15.5t-13 31.5q0 19 13.5 31.5t30.5 10.5q121 -7 227.5 -57t187.5 -131t131 -187.5
t58 -227.5q1 -18 -12 -31t-32 -13zM499 120q-17 0 -30.5 12.5t-17.5 31.5q-14 106 -89.5 182t-182.5 90q-19 3 -31.5 17t-12.5 32q0 19 13.5 31.5t30.5 9.5q144 -15 245.5 -116.5t117.5 -245.5q2 -17 -11 -30.5t-32 -13.5z" />
    <glyph glyph-name="alternate_email" unicode="ALTERNATE_EMAIL" 
d="M480 100q-79 0 -148.5 30t-120.5 81t-81 120.5t-30 148.5q0 80 30 149t81 120t120.5 81t148.5 30q80 0 149 -30t120 -81t81 -120t30 -149v-49q0 -55 -37.5 -93t-92.5 -38q-38 0 -67 17.5t-46 47.5q-25 -29 -58.5 -47t-78.5 -18q-75 0 -127.5 52.5t-52.5 127.5t52.5 127.5
t127.5 52.5t127.5 -52.5t52.5 -127.5v-49q0 -31 20.5 -51t49.5 -20t49.5 20t20.5 51v49q0 131 -94.5 225.5t-225.5 94.5t-225.5 -94.5t-94.5 -225.5t94.5 -225.5t225.5 -94.5h170q13 0 21.5 -8.5t8.5 -21.5t-8.5 -21.5t-21.5 -8.5h-170zM480 360q50 0 85 35t35 85t-35 85
t-85 35t-85 -35t-35 -85t35 -85t85 -35z" />
    <glyph glyph-name="mobile_screen_share" unicode="MOBILE_SCREEN_SHARE" 
d="M400 364q-13 0 -21.5 8.5t-8.5 21.5v26q0 46 32 78t78 32h44v44q0 7 5.5 9t9.5 -2l68 -68q6 -6 6 -13t-6 -13l-68 -68q-4 -4 -9.5 -2t-5.5 9v44h-44q-21 0 -35.5 -14.5t-14.5 -35.5v-26q0 -13 -8.5 -21.5t-21.5 -8.5zM292 60q-30 0 -51 21t-21 51v696q0 30 21 51t51 21
h376q30 0 51 -21t21 -51v-696q0 -30 -21 -51t-51 -21h-376zM280 170v-38q0 -4 4 -8t8 -4h376q4 0 8 4t4 8v38h-400zM280 230h400v500h-400v-500zM280 790h400v38q0 4 -4 8t-8 4h-376q-4 0 -8 -4t-4 -8v-38zM280 790v38v8v4v0v-4v-8v-38v0zM280 170v0v-38v-8v-4v0v4v8v38z
" />
    <glyph glyph-name="add_call" unicode="ADD_IC_CALL" 
d="M669 521q-13 0 -21.5 8.5t-8.5 21.5v90h-90q-13 0 -21.5 8.5t-8.5 21.5t8.5 21.5t21.5 8.5h90v90q0 13 8.5 21.5t21.5 8.5t21.5 -8.5t8.5 -21.5v-90h90q13 0 21.5 -8.5t8.5 -21.5t-8.5 -21.5t-21.5 -8.5h-90v-90q0 -13 -8.5 -21.5t-21.5 -8.5zM777 142
q-116 0 -230.5 55.5t-204.5 145.5t-145.5 204t-55.5 231q0 18 12 30t30 12h130q16 0 27.5 -9.5t14.5 -24.5l23 -118q2 -15 -1 -27t-13 -21l-91 -90q47 -80 112.5 -145t148.5 -113l89 90q10 10 23.5 14t27.5 2l111 -23q15 -3 24.5 -14t9.5 -27v-130q0 -18 -12 -30t-30 -12z
M244 587l72 68q2 2 2.5 4.5t-0.5 4.5l-18 90q-1 3 -3 4.5t-5 1.5h-85q-2 0 -3.5 -1.5t-1.5 -3.5q3 -41 13.5 -83.5t28.5 -84.5zM754 204q2 0 3.5 1.5t1.5 3.5v84q0 3 -1.5 5t-4.5 3l-84 17q-2 1 -4 0.5t-4 -2.5l-70 -71q40 -19 82.5 -29.5t80.5 -11.5zM591 245v0v0v0v0v0v0
v0v0v0v0v0zM244 587v0v0v0v0v0v0v0v0v0v0v0z" />
    <glyph glyph-name="cancel_presentation" unicode="CANCEL_PRESENTATION" 
d="M438 480l-83 -83q-8 -8 -8.5 -20.5t8.5 -21.5t21 -9t21 9l83 83l83 -83q8 -8 20.5 -8.5t21.5 8.5t9 21t-9 21l-83 83l83 83q8 8 8.5 20.5t-8.5 21.5t-21 9t-21 -9l-83 -83l-83 83q-8 8 -20.5 8.5t-21.5 -8.5t-9 -21t9 -21zM172 180q-30 0 -51 21t-21 51v456q0 30 21 51
t51 21h616q30 0 51 -21t21 -51v-456q0 -30 -21 -51t-51 -21h-616zM172 240h616q4 0 8 4t4 8v456q0 4 -4 8t-8 4h-616q-4 0 -8 -4t-4 -8v-456q0 -4 4 -8t8 -4zM160 240v4v8v456v8v4v0v-4v-8v-456v-8v-4v0z" />
    <glyph glyph-name="pause_presentation" unicode="PAUSE_PRESENTATION" 
d="M406 330q13 0 21.5 8.5t8.5 21.5v240q0 13 -8.5 21.5t-21.5 8.5t-21.5 -8.5t-8.5 -21.5v-240q0 -13 8.5 -21.5t21.5 -8.5zM554 330q13 0 21.5 8.5t8.5 21.5v240q0 13 -8.5 21.5t-21.5 8.5t-21.5 -8.5t-8.5 -21.5v-240q0 -13 8.5 -21.5t21.5 -8.5zM172 180q-30 0 -51 21
t-21 51v456q0 30 21 51t51 21h616q30 0 51 -21t21 -51v-456q0 -30 -21 -51t-51 -21h-616zM172 240h616q4 0 8 4t4 8v456q0 4 -4 8t-8 4h-616q-4 0 -8 -4t-4 -8v-456q0 -4 4 -8t8 -4zM160 240v4v8v456v8v4v0v-4v-8v-456v-8v-4v0z" />
    <glyph glyph-name="unsubscribe" unicode="UNSUBSCRIBE" 
d="M172 180q-30 0 -51 21t-21 51v456q0 30 21 51t51 21h616q30 0 51 -21t21 -51v-229q-13 6 -28.5 10.5t-31.5 6.5v166l-301 -192q-4 -3 -9 -4.5t-10 -1.5t-10 1.5t-9 4.5l-301 192v-410q0 -5 3.5 -8.5t8.5 -3.5h328q0 -16 2 -30.5t6 -29.5h-336zM480 520l314 200h-628z
M760 60q-75 0 -127.5 52.5t-52.5 127.5t52.5 127.5t127.5 52.5t127.5 -52.5t52.5 -127.5t-52.5 -127.5t-127.5 -52.5zM671 222h178q7 0 12.5 5.5t5.5 12.5t-5.5 12.5t-12.5 5.5h-178q-7 0 -12.5 -5.5t-5.5 -12.5t5.5 -12.5t12.5 -5.5zM160 240v101v82.5v56v20.5v-0.5v-2.5
v165v-9v10.5v14.5v20.5t0 -0.5v22v0v-23q0 9 0 2v-21v-14.5v-10.5v9v-410v-8.5v-3.5v0z" />
    <glyph glyph-name="cell_wifi" unicode="CELL_WIFI" 
d="M375 100q-23 0 -32.5 22t7.5 39l449 450q17 18 39 8.5t22 -33.5v-450q0 -15 -10.5 -25.5t-25.5 -10.5h-449zM720 160h80v368l-80 -80v-288zM296 597q-9 9 -9 21.5t10 20.5q33 23 70.5 35t75.5 12q37 0 74.5 -11.5t69.5 -34.5q10 -8 10.5 -20.5t-9.5 -21.5
q-7 -8 -17.5 -8.5t-19.5 6.5q-24 18 -52 26.5t-56 8.5t-56.5 -8.5t-53.5 -26.5q-9 -7 -19.5 -6.5t-17.5 7.5zM194 701q-9 8 -9 20.5t9 20.5q55 45 118.5 67.5t130.5 22.5q66 0 130 -22.5t119 -67.5q9 -8 9 -20t-9 -21q-7 -8 -17.5 -8t-19.5 7q-46 38 -101 56.5t-111 18.5
q-57 0 -111.5 -18.5t-100.5 -56.5q-9 -7 -19.5 -7t-17.5 8zM442 451q-21 0 -36.5 15.5t-15.5 37.5q0 21 15.5 36.5t36.5 15.5t36.5 -15.5t15.5 -36.5q0 -22 -15.5 -37.5t-36.5 -15.5z" />
    <glyph glyph-name="list_alt" unicode="LIST_ALT" 
d="M322 289q15 0 25.5 10.5t10.5 25.5t-10.5 25t-25.5 10t-25 -10t-10 -25t10 -25.5t25 -10.5zM322 445q15 0 25.5 10t10.5 25t-10.5 25t-25.5 10t-25 -10t-10 -25t10 -25t25 -10zM322 600q15 0 25.5 10t10.5 25t-10.5 25.5t-25.5 10.5t-25 -10.5t-10 -25.5t10 -25t25 -10z
M474 295h168q12 0 21 8.5t9 21.5q0 12 -9 21t-21 9h-168q-13 0 -21.5 -9t-8.5 -21q0 -13 8.5 -21.5t21.5 -8.5zM474 450h168q12 0 21 8.5t9 21.5t-9 21.5t-21 8.5h-168q-13 0 -21.5 -8.5t-8.5 -21.5t8.5 -21.5t21.5 -8.5zM474 605h168q12 0 21 9t9 21q0 13 -9 21.5t-21 8.5
h-168q-13 0 -21.5 -8.5t-8.5 -21.5q0 -12 8.5 -21t21.5 -9zM212 140q-30 0 -51 21t-21 51v536q0 30 21 51t51 21h536q30 0 51 -21t21 -51v-536q0 -30 -21 -51t-51 -21h-536zM212 200h536q4 0 8 4t4 8v536q0 4 -4 8t-8 4h-536q-4 0 -8 -4t-4 -8v-536q0 -4 4 -8t8 -4zM200 760
v0v-3.5v-8.5v-536v-8.5v-3.5v0v3.5v8.5v536v8.5v3.5z" />
    <glyph glyph-name="domain_disabled" unicode="DOMAIN_DISABLED" 
d="M865 214l-60 60v343h-343l-47 48v112h-113l-60 60h173q24 0 42 -18t18 -42v-100h330q25 0 42.5 -18t17.5 -42v-403zM155 137q-25 0 -42.5 17.5t-17.5 42.5v595l-37 36q-8 9 -8 21.5t8 20.5q9 9 21.5 9t20.5 -9l766 -766q9 -8 9 -20.5t-9 -21.5q-8 -9 -20 -9t-22 9l-76 75
h-593zM155 197h100v100h-100v-100zM155 357h100v100h-100v-100zM155 517h100v100h-100v-100zM315 197h100v100h-100v-100zM315 357h100v100h-100v-100zM475 197h213l-100 100h-113v-100zM710 457h-60v0v60h60v-60z" />
    <glyph glyph-name="lightbulb" unicode="LIGHTBULB_OUTLINE" 
d="M480 97q-30 0 -52 21t-24 51h152q-2 -30 -24 -51t-52 -21zM360 225q-13 0 -21.5 8.5t-8.5 21.5q0 12 8.5 21t21.5 9h240q13 0 21.5 -9t8.5 -21q0 -13 -8.5 -21.5t-21.5 -8.5h-240zM336 340q-63 39 -99.5 102t-36.5 138q0 117 81.5 198.5t198.5 81.5t198.5 -81.5
t81.5 -198.5q0 -75 -36.5 -138t-99.5 -102h-288zM354 400h252q45 32 69.5 79t24.5 101q0 92 -64 156t-156 64t-156 -64t-64 -156q0 -54 24.5 -101t69.5 -79zM480 400v0v0v0v0v0v0v0v0v0z" />
    <glyph glyph-name="gastroenterology" unicode="GASTROENTEROLOGY" 
d="M140 320q0 46 32 78t78 32h80q54 0 92 38t38 92q0 21 -15 35.5t-35 14.5q-30 0 -50 20.5t-20 49.5v160q0 13 8.5 21.5t21.5 8.5t21.5 -8.5t8.5 -21.5v-160q0 -4 2.5 -7t7.5 -3q45 0 77.5 -32t32.5 -78q0 -79 -56 -134.5t-134 -55.5h-80q-21 0 -35.5 -14.5t-14.5 -35.5
v-200q0 -13 -9 -21.5t-21 -8.5q-13 0 -21.5 8.5t-8.5 21.5v200zM280 160q0 46 32 78t78 32h160q87 0 148.5 61.5t61.5 148.5v40q0 86 -58 148t-143 62q-33 0 -56 23.5t-23 55.5v31q0 13 8.5 21.5t21.5 8.5t21.5 -8.5t8.5 -21.5v-31q0 -8 5.5 -13.5t13.5 -5.5
q110 0 185.5 -79t75.5 -191v-40q0 -113 -78.5 -191.5t-191.5 -78.5h-160q-21 0 -35.5 -14.5t-14.5 -35.5v-40q0 -13 -8.5 -21.5t-21.5 -8.5t-21.5 8.5t-8.5 21.5v40zM200 90v230q0 21 14.5 35.5t35.5 14.5h80q78 0 134 55.5t56 134.5q0 46 -33.5 78t-86.5 32v0v0v200v0v-200
v0v0q53 0 86.5 -32t33.5 -78v0q0 -79 -56 -134.5t-134 -55.5h-80q-21 0 -35.5 -14.5t-14.5 -35.5v-230v0z" />
    <glyph glyph-name="genetics" unicode="GENETICS" 
d="M220 88q0 139 57 221t157 171q-100 89 -157 171t-57 221v10q0 13 8.5 21.5t21.5 8.5q12 0 21 -8.5t9 -21.5v-10q0 -15 0.5 -29t3.5 -28h392q2 14 3 28t1 29v10q0 13 8.5 21.5t21.5 8.5t21.5 -8.5t8.5 -21.5v-10q0 -139 -57 -221t-157 -171q100 -88 157 -170.5t57 -221.5
v-10q0 -13 -8.5 -21.5t-21.5 -8.5t-21.5 8.5t-8.5 21.5v10q0 15 -1 29t-3 28h-392q-2 -14 -3 -28t-1 -29v-10q0 -13 -8.5 -21.5t-21.5 -8.5t-21.5 8.5t-8.5 21.5v10zM344 660h272q16 22 28 45t20 50h-368q8 -27 20 -50t28 -45zM480 519q23 21 44.5 41t40.5 40h-171
q19 -20 41 -40t45 -41zM395 360h170q-19 20 -40.5 40t-44.5 41q-23 -21 -44.5 -41t-40.5 -40zM296 205h368q-9 27 -20.5 50t-27.5 45h-272q-16 -22 -28 -45t-20 -50z" />
    <glyph glyph-name="gynecology" unicode="GYNECOLOGY" 
d="M340 232q0 22 6 43t19 40q8 12 13 26t5 29q0 17 -6.5 32t-13.5 30q-9 18 -15 37t-6 39v137q0 28 -19 49t-46 21q-24 0 -42 -14.5t-22 -35.5q34 -11 56 -39.5t22 -65.5q0 -46 -32 -78t-78 -32t-78 32t-32 78q0 38 23.5 67.5t58.5 38.5q5 47 40.5 78t83.5 31q5 0 10.5 -0.5
t10.5 -2.5q41 23 87.5 33t94.5 10t94 -10t88 -33q5 2 10.5 2.5t10.5 0.5q48 0 83.5 -31t40.5 -78q35 -9 58.5 -38.5t23.5 -67.5q0 -46 -32 -78t-78 -32t-78 32t-32 78q0 37 22 66t56 39q-5 21 -22.5 35.5t-41.5 14.5q-28 0 -46.5 -21t-18.5 -49v-137q0 -20 -6.5 -39
t-14.5 -37q-8 -15 -14 -30t-6 -32q0 -15 4.5 -29.5t13.5 -26.5q13 -19 19 -39.5t6 -42.5q0 -18 -4 -35t-11 -32l-8 -15q-6 -15 -22.5 -18t-17.5 -2q-11 10 -15.5 22.5t1.5 24.5l7 14q6 10 8 20t2 21q0 14 -4 26t-11 24q-14 19 -21 41.5t-7 45.5q0 22 6.5 41.5t16.5 38.5
q7 15 12.5 29.5t5.5 29.5v137q0 27 10.5 50.5t28.5 40.5q-28 10 -57.5 14.5t-59.5 4.5t-60 -4.5t-57 -14.5q18 -17 28.5 -40.5t10.5 -50.5v-137q0 -16 5 -30.5t13 -29.5q9 -18 16 -38t7 -41q0 -23 -7 -45.5t-21 -41.5q-7 -12 -11 -24t-4 -26q0 -11 2.5 -21t7.5 -20l7 -14
q6 -11 1.5 -22.5t-15.5 -17.5t-22.5 -2t-17.5 15l-8 15q-8 15 -11.5 32t-3.5 35zM181 510q21 0 35.5 14.5t14.5 35.5t-14.5 35.5t-35.5 14.5t-35.5 -14.5t-14.5 -35.5t14.5 -35.5t35.5 -14.5zM779 510q21 0 35.5 14.5t14.5 35.5t-14.5 35.5t-35.5 14.5t-35.5 -14.5
t-14.5 -35.5t14.5 -35.5t35.5 -14.5zM779 560v0v0v0v0v0v0v0v0zM181 560v0v0v0v0v0v0v0v0z" />
    <glyph glyph-name="hematology" unicode="HEMATOLOGY" 
d="M520 60q-65 0 -102.5 55t-37.5 125t37.5 125t102.5 55t102.5 -55t37.5 -125t-37.5 -125t-102.5 -55zM240 480q0 -93 -11 -184t-37 -181q-4 -14 -15.5 -21.5t-23.5 -3.5q-13 3 -17.5 16.5t-0.5 27.5q23 85 34 171t11 175t-11 175t-34 171q-4 14 0.5 27.5t17.5 16.5
q12 4 23.5 -3.5t15.5 -21.5q26 -90 37 -181t11 -184zM780 480q0 -89 10.5 -175t34.5 -171q4 -14 -0.5 -27.5t-17.5 -16.5q-13 -4 -24.5 3.5t-14.5 21.5q-26 90 -37 181t-11 184t11 184t37 181q3 14 14.5 21.5t24.5 3.5q13 -3 17.5 -16.5t0.5 -27.5q-24 -85 -34.5 -171
t-10.5 -175zM520 120q40 0 60 37.5t20 82.5t-20 82.5t-60 37.5t-60 -37.5t-20 -82.5t20 -82.5t60 -37.5zM493 173q7 -7 16.5 -6.5t17.5 7.5q13 12 20 29.5t7 36.5t-7 36t-20 30q-6 7 -15.5 7.5t-17.5 -6.5q-7 -6 -7.5 -16t6.5 -18q3 -3 8 -12t5 -21t-5 -21t-8 -12
q-8 -8 -7.5 -18t7.5 -16zM440 540q-65 0 -102.5 55t-37.5 125t37.5 125t102.5 55t102.5 -55t37.5 -125t-37.5 -125t-102.5 -55zM440 600q40 0 60 37.5t20 82.5t-20 82.5t-60 37.5t-60 -37.5t-20 -82.5t20 -82.5t60 -37.5zM466 653q7 6 7.5 16t-6.5 18q-6 7 -9.5 15.5
t-3.5 17.5t3.5 17.5t9.5 15.5q7 8 7 17.5t-7 16.5t-17 7t-17 -7q-13 -13 -20 -30.5t-7 -36.5t6.5 -36t20.5 -30q7 -7 16.5 -7.5t16.5 6.5zM440 720v0v0v0v0v0v0v0v0zM520 240v0v0v0v0v0v0v0v0z" />
    <glyph glyph-name="immunology" unicode="IMMUNOLOGY" 
d="M521 100q-28 0 -66 4t-77.5 12t-76.5 21.5t-62 32.5q-29 22 -60.5 69.5t-58 103t-43.5 111t-17 94.5t15.5 70.5t40.5 58t55.5 48.5t61.5 41q58 38 128 66t145 28q73 0 135 -29t122 -71q14 -9 37 -28.5t45 -48t38 -66.5t17 -85q1 -70 -30 -146.5t-84 -140t-122 -104.5
t-143 -41zM520 160q61 0 119 36t103 91t72 120.5t26 123.5q-1 65 -38 109.5t-73 69.5q-51 35 -105.5 62.5t-117.5 27.5q-66 0 -130 -26t-116 -61q-40 -26 -90.5 -67.5t-50.5 -93.5q0 -32 15.5 -81.5t39 -100t50.5 -93t50 -59.5q36 -27 111 -42.5t135 -15.5zM414 250
q49 0 81.5 35t32.5 79q0 20 -8 39.5t-27 36.5q-23 21 -37.5 46t-22.5 56q-9 40 -40 64t-69 24q-45 0 -79.5 -34.5t-34.5 -79.5q0 -37 15.5 -83.5t43 -87t65 -68t80.5 -27.5zM414 310q-28 0 -54 23.5t-46 56t-32 67.5t-12 59q0 20 17 37t37 17q15 0 30.5 -10t21.5 -32
q10 -40 28 -72t49 -61q7 -7 11 -15.5t4 -17.5q0 -19 -14.5 -35.5t-39.5 -16.5zM650 450q13 0 21.5 8.5t8.5 21.5v26l25 -12q11 -6 22.5 -3t18.5 14q6 11 3.5 23t-14.5 18l-27 14l27 14q12 6 14 18t-4 23t-17.5 13.5t-22.5 -3.5l-25 -12v27q0 13 -8.5 21.5t-21.5 8.5
t-21.5 -8.5t-8.5 -21.5v-28l-24 13q-11 6 -23 3t-19 -14q-5 -10 -3 -23t14 -18l26 -11l-25 -16q-10 -7 -13.5 -18.5t2.5 -22.5t18 -14t23 3l24 13v-27q0 -13 8.5 -21.5t21.5 -8.5zM481 480v0v0v0v0v0v0v0v0v0v0v0v0v0v0v0v0v0v0z" />
    <glyph glyph-name="inactive_order" unicode="INACTIVE_ORDER" 
d="M692 293q0 7 -5.5 12t-12.5 5t-12.5 -5t-5.5 -12v-110q0 -8 5.5 -13t12.5 -5t12.5 5.5t5.5 12.5v110zM748 293v-110q0 -8 5.5 -13t12.5 -5t12.5 5.5t5.5 12.5v110q0 7 -5.5 12t-12.5 5t-12.5 -5t-5.5 -12zM285 605h390q12 0 21 9t9 21q0 13 -16.5 21.5t-26.5 8.5h-377
q-12 0 -21 -8.5t-9 -21.5q0 -12 9 -21t21 -9zM720 58q-75 0 -127.5 52.5t-52.5 127.5t52.5 127.5t127.5 52.5t127.5 -52.5t52.5 -127.5t-52.5 -127.5t-127.5 -52.5zM140 108v640q0 30 21 51t51 21h536q30 0 51 -21t21 -51v-253q-14 7 -29 11t-31 6v236q0 4 -4 8t-8 4h-536
q-4 0 -8 -4t-4 -8v-550h248q4 -24 11.5 -45.5t19.5 -41.5v0q-3 -1 -6 0.5t-6 4.5l-32 27q-5 5 -11.5 5t-12.5 -5l-33 -28q-5 -4 -11.5 -4t-12.5 4l-33 28q-5 5 -11.5 5t-11.5 -5l-34 -28q-5 -4 -11.5 -4t-11.5 4l-34 28q-5 5 -11.5 5t-11.5 -5l-32 -28q-1 -1 -12 -7z
M285 295h166q3 16 7.5 30.5t11.5 29.5h-185q-12 0 -21 -9t-9 -21q0 -13 9 -21.5t21 -8.5zM285 450h259q28 26 64.5 42t78.5 18h-7.5h-17.5h-377q-12 0 -21 -8.5t-9 -21.5t9 -21.5t21 -8.5zM200 198v0v562v0v0v0v0v0v0v0v0v-259.5v-259.5v-21.5v-21.5z" />
    <glyph glyph-name="inpatient" unicode="INPATIENT" 
d="M177 100q-30 0 -51 21t-21 51v616q0 30 21 51t51 21h335q30 0 51.5 -21t21.5 -51v-616q0 -30 -21.5 -51t-51.5 -21h-335zM165 514q16 13 36.5 19.5t43.5 6.5h200q22 0 42.5 -6.5t37.5 -19.5v274q0 5 -3.5 8.5t-9.5 3.5h-335q-5 0 -8.5 -3.5t-3.5 -8.5v-274zM345 600
q-30 0 -50 20.5t-20 49.5t20 49.5t50 20.5q29 0 49.5 -20.5t20.5 -49.5t-20.5 -49.5t-49.5 -20.5zM177 160h335q6 0 9.5 3.5t3.5 8.5v228q0 33 -23.5 56.5t-56.5 23.5h-200q-33 0 -56.5 -23.5t-23.5 -56.5v-228q0 -5 3.5 -8.5t8.5 -3.5zM315 290v-50q0 -13 8.5 -21.5
t21.5 -8.5q12 0 21 8.5t9 21.5v50h50q12 0 21 8.5t9 21.5t-9 21.5t-21 8.5h-50v50q0 13 -9 21.5t-21 8.5q-13 0 -21.5 -8.5t-8.5 -21.5v-50h-50q-13 0 -21.5 -8.5t-8.5 -21.5t8.5 -21.5t21.5 -8.5h50zM177 160h-8.5h-3.5v0h23.5h56.5h200h56.5h23.5v0h-3.5h-9.5h-335z
M776 375q-9 -9 -21.5 -9t-21.5 9l-79 80q-10 11 -10 25t10 25l79 80q9 9 21.5 9t21.5 -9t9 -21.5t-9 -21.5l-33 -32h111q13 0 21.5 -8.5t8.5 -21.5t-8.5 -21.5t-21.5 -8.5h-111l33 -32q9 -9 9 -21.5t-9 -21.5z" />
    <glyph glyph-name="lab_panel" unicode="LAB_PANEL" 
d="M132 140q-30 0 -51 21t-21 51v176q0 30 21 51t51 21h8v179h-4q-16 7 -26 21t-10 33v45q0 26 17.5 43.5t43.5 17.5h198q26 0 43.5 -17.5t17.5 -43.5v-45q0 -19 -10 -33t-26 -21h-4v-179h200v179h-4q-16 7 -26 21t-10 33v45q0 26 17.5 43.5t43.5 17.5h198q26 0 43.5 -17.5
t17.5 -43.5v-45q0 -19 -10 -33t-26 -21h-4v-179h8q30 0 51 -21t21 -51v-176q0 -30 -21 -51t-51 -21h-696zM600 692h200v47h-200v-47zM160 692h200v47h-200v-47zM640 460h120v172h-120v-172zM200 460h120v172h-120v-172zM132 200h696q5 0 8.5 3.5t3.5 8.5v176q0 5 -3.5 8.5
t-8.5 3.5h-696q-5 0 -8.5 -3.5t-3.5 -8.5v-176q0 -5 3.5 -8.5t8.5 -3.5zM160 692v47v0v-47v0zM600 692v47v0v-47v0zM120 200v3.5v8.5v176v8.5v3.5v0v-3.5v-8.5v-176v-8.5v-3.5v0z" />
    <glyph glyph-name="lab_profile" unicode="LAB_PROFILE" 
d="M360 490q-13 0 -21.5 8.5t-8.5 21.5t8.5 21.5t21.5 8.5h240q13 0 21.5 -8.5t8.5 -21.5t-8.5 -21.5t-21.5 -8.5h-240zM360 650q-13 0 -21.5 8.5t-8.5 21.5t8.5 21.5t21.5 8.5h240q13 0 21.5 -8.5t8.5 -21.5t-8.5 -21.5t-21.5 -8.5h-240zM240 390h300q27 0 49.5 -11.5
t38.5 -32.5l92 -120v562q0 5 -3.5 8.5t-8.5 3.5h-456q-5 0 -8.5 -3.5t-3.5 -8.5v-398zM252 160h443l-114 149q-8 10 -18.5 15.5t-22.5 5.5h-300v-158q0 -5 3.5 -8.5t8.5 -3.5zM708 100h-456q-30 0 -51 21t-21 51v616q0 30 21 51t51 21h456q30 0 51 -21t21 -51v-616
q0 -30 -21 -51t-51 -21zM240 160v0v628v8.5v3.5v0v-3.5v-8.5v-616v-8.5v-3.5zM240 330v60v0v-60v0z" />
    <glyph glyph-name="labs" unicode="LABS" 
d="M480 111q-76 0 -130 54t-54 130v357v0q-30 0 -51 21.5t-21 51.5v67q0 29 21 50.5t51 21.5h368q30 0 51 -21.5t21 -50.5v-67q0 -30 -21 -51.5t-51 -21.5v0l-1 -362q-1 -75 -54.5 -127t-128.5 -52zM296 712h368q5 0 8.5 3.5t3.5 9.5v67q0 5 -3.5 8.5t-8.5 3.5h-368
q-5 0 -8.5 -3.5t-3.5 -8.5v-67q0 -6 3.5 -9.5t8.5 -3.5zM480 171q44 0 77 27t42 67h-79q-13 0 -21.5 8.5t-8.5 21.5t8.5 21.5t21.5 8.5h84v60h-84q-13 0 -21.5 8.5t-8.5 21.5t8.5 21.5t21.5 8.5h84v60h-84q-13 0 -21.5 8.5t-8.5 21.5t8.5 21.5t21.5 8.5h84v87h-248v-357
q0 -52 36 -88t88 -36zM284 712v3.5v9.5v67v8.5v3.5v0v-3.5v-8.5v-67v-9.5v-3.5v0z" />
    <glyph glyph-name="lda" unicode="LDA" 
d="M450 246l-197 83q-17 7 -27 22.5t-10 33.5v74q0 26 18 43.5t43 17.5h173v120h-53q-25 0 -43 17.5t-18 43.5v86q0 25 18 43t43 18h166q25 0 43 -18t18 -43v-86q0 -26 -18 -43.5t-43 -17.5h-53v-120h173q25 0 43 -17.5t18 -43.5v-74q0 -18 -10 -33.5t-27 -22.5l-197 -83
v-102q0 -13 -8.5 -21.5t-21.5 -8.5t-21.5 8.5t-8.5 21.5v102zM396 700h168v88h-168v-88zM450 312v148h-174v-75zM510 312l174 73v75h-174v-148zM396 700v88v0v-88v0z" />
    <glyph glyph-name="metabolism" unicode="METABOLISM" 
d="M396 258v133h-56v130q0 21 28.5 35.5t71.5 14.5t71.5 -14.5t28.5 -35.5v-130h-56v-133h-88zM440 594q-23 0 -38.5 15.5t-15.5 38.5t15.5 38.5t38.5 15.5t38.5 -15.5t15.5 -38.5t-15.5 -38.5t-38.5 -15.5zM440 140q-142 0 -241 99t-99 241q0 71 27 132.5t73 107.5
t107.5 73t132.5 27t132.5 -27t107.5 -73t73 -107.5t27 -132.5v-32l59 59q4 5 9.5 7t11 2t11 -2t10.5 -6q9 -9 9 -21.5t-9 -21.5l-106 -105q-11 -11 -25 -11t-25 11l-106 105q-9 9 -9 21.5t9 21.5q9 8 21.5 8t21.5 -9l58 -58v31q0 116 -82 198t-198 82t-198 -82t-82 -198
q1 -116 82.5 -198t197.5 -82q49 0 91 15t78 42q11 8 23 8.5t21 -8.5t9.5 -22t-10.5 -21q-44 -35 -98 -54.5t-114 -19.5z" />
    <glyph glyph-name="microbiology" unicode="MICROBIOLOGY" 
d="M600 98q-13 0 -21.5 8.5t-8.5 21.5v54q-24 3 -45.5 11t-40.5 23l-45 -46q-10 -8 -22 -8.5t-21 8.5t-9 21t9 21l46 47q-3 6 -7 12t-7 12l-30 58q-1 3 -2 5t-3 4l-58 -57q-9 -8 -21 -9t-21 9q-9 9 -9 21t9 21l57 58q-1 2 -3.5 3.5t-5.5 2.5l-58 29q-6 3 -10.5 5.5
t-10.5 6.5l-41 -41q-10 -9 -22 -9.5t-21 9.5q-9 9 -9 21t9 21l40 40q-15 20 -24 42t-12 47h-54q-13 0 -21.5 8.5t-8.5 21.5t8.5 21.5t21.5 8.5h55q5 21 12.5 38.5t19.5 33.5l-40 41q-9 9 -9 21t9 21t21 9t21 -9l40 -40q17 12 34.5 19.5t38.5 12.5v55q0 13 8.5 21.5t21.5 8.5
t21.5 -8.5t8.5 -21.5v-54q25 -3 47.5 -12.5t42.5 -24.5l41 40q9 9 21 9t21 -9t9 -21t-9 -21l-42 -42q3 -5 6 -9.5t5 -10.5l28 -56q2 -2 3 -4.5t3 -4.5l55 55q9 9 21 9t21 -9t9 -21t-9 -21l-56 -56q2 -2 4.5 -3.5t5.5 -3.5l60 -30l14 -8t12 -8l46 45q9 9 21 9t21 -9t9 -21
t-9 -21l-45 -46q13 -18 21 -39t11 -44h54q13 0 21.5 -8.5t8.5 -21.5t-8.5 -21.5t-21.5 -8.5h-55q-5 -21 -12.5 -38t-19.5 -34l39 -40q9 -9 9 -21t-9 -21q-9 -8 -21 -8.5t-21 8.5l-39 39q-17 -12 -34.5 -19.5t-38.5 -12.5v-55q0 -13 -8.5 -21.5t-21.5 -8.5zM594 240
q58 0 95.5 44t28.5 102q-5 30 -22.5 54t-45.5 38l-66 34q-23 12 -41.5 30.5t-30.5 41.5l-34 66q-16 32 -46 51t-66 19q-58 0 -95.5 -44t-28.5 -102q5 -30 22.5 -54t45.5 -38l66 -34q23 -12 41.5 -30.5t30.5 -41.5l34 -66q16 -32 46 -51t66 -19zM380 546q22 0 37.5 15.5
t16.5 38.5q0 22 -16 37.5t-38 16.5q-22 0 -37.5 -16t-16.5 -38q1 -22 16.5 -37.5t37.5 -16.5zM580 299q17 0 29 12t12 29t-12 29t-29 12t-29 -12t-12 -29t12 -29t29 -12zM480 480v0v0v0v0v0v0v0v0v0v0v0v0v0v0v0v0v0v0v0v0z" />
    <glyph glyph-name="nephrology" unicode="NEPHROLOGY" 
d="M326 296q-94 0 -158 67.5t-64 162.5v68q0 95 64 162.5t158 67.5q46 0 78 -32t32 -78t-32 -78t-78 -32h-40q-13 0 -21.5 8.5t-8.5 21.5t8.5 21.5t21.5 8.5h40q21 0 35.5 14.5t14.5 35.5t-14.5 35.5t-35.5 14.5q-68 0 -115 -50.5t-47 -119.5v-68q0 -69 47 -119.5t115 -50.5
q21 0 35.5 14.5t14.5 35.5t-14.5 35.5t-35.5 14.5h-40q-13 0 -21.5 8.5t-8.5 21.5t8.5 21.5t21.5 8.5h40q46 0 78 -32t32 -78v-240q0 -13 -8.5 -21.5t-21.5 -8.5t-21.5 8.5t-8.5 21.5v145q-11 -8 -23.5 -11.5t-26.5 -3.5zM634 296q-14 0 -26.5 3.5t-23.5 11.5v-145
q0 -6 -2.5 -11.5t-6.5 -9.5t-9.5 -6.5t-11.5 -2.5q-13 0 -21.5 8.5t-8.5 21.5v240q0 46 32 78t78 32h40q13 0 21.5 -8.5t8.5 -21.5t-8.5 -21.5t-21.5 -8.5h-40q-21 0 -35.5 -14.5t-14.5 -35.5t14.5 -35.5t35.5 -14.5q68 0 115 50.5t47 119.5v68q0 69 -47 119.5t-115 50.5
q-21 0 -35.5 -14.5t-14.5 -35.5t14.5 -35.5t35.5 -14.5h40q13 0 21.5 -8.5t8.5 -21.5t-8.5 -21.5t-21.5 -8.5h-40q-46 0 -78 32t-32 78t32 78t78 32q94 0 158 -67.5t64 -162.5v-68q0 -95 -64 -162.5t-158 -67.5zM164 526v0v0v0v0v0v0v0v0v0v68v0v0v0v0v0v0v0v0v0v-68z
M796 594v0v0v0v0v0v0v0v0v0v-68v0v0v0v0v0v0v0v0v0v68z" />
    <glyph glyph-name="neurology" unicode="NEUROLOGY" 
d="M390 136q-48 0 -82.5 33.5t-37.5 80.5q-55 8 -91.5 50t-36.5 98q0 20 5 39.5t15 35.5q-12 18 -18 38.5t-6 43.5q0 57 37.5 99t93.5 49v3.5v3.5q2 48 37 81.5t84 33.5q28 0 49.5 -11t40.5 -31q19 20 40.5 31t49.5 11q48 0 83 -33.5t37 -81.5v-3.5v-2.5q56 -7 94 -49
t38 -100q0 -23 -6 -43.5t-18 -38.5q10 -16 15 -35.5t5 -39.5q0 -57 -36.5 -98.5t-92.5 -49.5q-3 -47 -37 -80.5t-82 -33.5q-28 0 -49.5 10.5t-40.5 30.5q-20 -20 -41.5 -30.5t-48.5 -10.5zM510 705v-449q0 -25 17.5 -42.5t42.5 -17.5q24 0 41.5 18t18.5 42q-25 5 -46.5 19
t-36.5 36q-8 10 -6 22t12 19q11 8 23 6t19 -12q13 -18 32 -28t41 -10q38 0 64 26.5t26 63.5q0 8 -1 15.5t-5 14.5q-17 -11 -37.5 -17t-42.5 -6q-12 0 -21 8.5t-9 21.5q0 12 9 21t21 9q38 0 64 26t26 64q0 37 -25.5 62.5t-62.5 27.5q-10 -19 -27 -32.5t-37 -21.5
q-12 -5 -23.5 0.5t-14.5 17.5q-4 11 0.5 22.5t16.5 15.5q19 6 30 22t11 36q0 25 -17.5 42.5t-42.5 17.5t-42.5 -17.5t-17.5 -42.5zM450 256v449q0 25 -17.5 42.5t-42.5 17.5t-42.5 -17.5t-17.5 -42.5q0 -20 11 -36t29 -22q12 -4 17.5 -15t1.5 -23q-5 -12 -16 -17t-24 -1
q-20 8 -37 21.5t-27 32.5q-36 -2 -61.5 -28t-25.5 -63t26 -63t64 -26q12 0 21 -9t9 -21q0 -13 -9 -21.5t-21 -8.5q-22 0 -42.5 6t-37.5 17q-4 -7 -5 -14.5t-1 -15.5q0 -37 26 -63.5t64 -26.5q22 0 41 10t32 28q7 10 19 12t23 -5q10 -8 12 -20t-6 -22q-15 -22 -37 -36
t-47 -20q1 -24 19 -41.5t42 -17.5q25 0 42.5 17.5t17.5 42.5zM480 480v0v0v0v0v0v0v0v0v0v0v0v0v0v0v0v0v0v0v0v0v0v0v0v0v0v0v0v0v0v0v0v0v0v0v0v0v0v0v0v0v0v0v0v0v0v0v0v0v0v0v0v0v0v0v0v0v0v0v0v0v0v0v0v0v0v0v0v0v0v0v0v0v0v0v0v0v0v0v0v0v0v0v0v0v0v0v0v0z" />
    <glyph glyph-name="nutrition" unicode="NUTRITION" 
d="M480 140q-109 0 -184.5 75.5t-75.5 184.5q0 88 52.5 157.5t137.5 93.5q-20 4 -39 13t-34 24q-30 30 -38.5 71t-5.5 83q42 4 82.5 -5t69.5 -38q23 -22 33.5 -50.5t12.5 -60.5q13 30 31 57t41 50q8 9 21 9t21 -9q8 -8 8 -21t-8 -21q-22 -21 -38.5 -47t-25.5 -54
q88 -21 143.5 -91.5t55.5 -160.5q0 -109 -75.5 -184.5t-184.5 -75.5zM480 200q83 0 141.5 58.5t58.5 141.5t-58.5 141.5t-141.5 58.5t-141.5 -58.5t-58.5 -141.5t58.5 -141.5t141.5 -58.5zM480 400v0v0v0v0v0v0v0v0z" />
    <glyph glyph-name="oncology" unicode="ONCOLOGY" 
d="M140 320q0 46 32 78t78 32h80q54 0 92 38t38 92q0 21 -15 35.5t-35 14.5q-30 0 -50 20.5t-20 49.5v160q0 13 8.5 21.5t21.5 8.5t21.5 -8.5t8.5 -21.5v-160q0 -4 2.5 -7t7.5 -3q45 0 77.5 -32t32.5 -78q0 -79 -56 -134.5t-134 -55.5h-80q-21 0 -35.5 -14.5t-14.5 -35.5
v-200q0 -13 -9 -21.5t-21 -8.5q-13 0 -21.5 8.5t-8.5 21.5v200zM400 680v190v0v-190q0 -4 2.5 -7t7.5 -3q45 0 77.5 -32t32.5 -78v0v0v0v0v0q0 -79 -56 -134.5t-134 -55.5h-80q-21 0 -35.5 -14.5t-14.5 -35.5v-230v0v230q0 21 14.5 35.5t35.5 14.5h80q78 0 134 55.5
t56 134.5q0 46 -32.5 78t-77.5 32q-5 0 -7.5 3t-2.5 7zM820 465q-13 12 -28 20.5t-32 15.5v19q0 86 -58 148t-143 62q-33 0 -56 23.5t-23 55.5v31q0 13 8.5 21.5t21.5 8.5t21.5 -8.5t8.5 -21.5v-31l19 -19q110 0 185.5 -79t75.5 -191v-55zM340 160v-40q0 -13 -8.5 -21.5
t-21.5 -8.5t-21.5 8.5t-8.5 21.5v40q0 46 32 78t78 32h53q0 -16 3 -31t9 -29h-65q-21 0 -35.5 -14.5t-14.5 -35.5zM670 208q34 0 58 24t24 58t-24 58.5t-58 24.5t-58 -24.5t-24 -58.5t24 -58t58 -24zM670 148q-59 0 -100.5 41.5t-41.5 100.5t41.5 101t100.5 42t100.5 -42
t41.5 -101q0 -22 -6.5 -42t-18.5 -37l79 -78q8 -8 8 -21t-8 -21t-21 -8t-21 8l-79 79q-16 -11 -35 -16.5t-40 -5.5z" />
    <glyph glyph-name="ophthalmology" unicode="OPHTHALMOLOGY" 
d="M406 831q9 9 21.5 9t21.5 -9l34 -35q9 -10 12 -22.5t-1 -25.5q-4 -12 -14 -20.5t-23 -9.5q-73 -7 -127.5 -51.5t-76.5 -108.5q-4 -12 -13 -20t-22 -8h-58q-12 0 -21 8.5t-9 21.5t9 21.5t21 8.5h40q29 71 87.5 120t134.5 63l-19 19q-6 9 -5.5 19.5t8.5 19.5zM603 480
q0 43 18 82t53 57q-19 28 -43.5 48t-53.5 32q-12 6 -17.5 16.5t-1.5 22.5q4 13 15.5 18.5t22.5 0.5q47 -20 83 -53.5t62 -80.5q40 -14 61 -54t21 -89q0 -47 -20 -87t-62 -57q-24 -45 -61 -79t-84 -54q-12 -5 -23.5 0.5t-15.5 18.5q-4 12 2.5 22.5t17.5 16.5q30 13 54 33
t43 47q-33 18 -52 56.5t-19 82.5zM713 390q19 0 34.5 28t15.5 62q0 35 -15 62.5t-35 27.5q-19 0 -34.5 -27.5t-15.5 -62.5q0 -34 16 -62t34 -28zM404 126q-8 9 -8 21.5t8 21.5l18 18q-75 15 -134 63.5t-87 119.5h-40q-13 0 -21.5 8.5t-8.5 21.5t8.5 21.5t21.5 8.5h58
q12 0 21.5 -8t13.5 -20q22 -64 76.5 -108.5t127.5 -51.5q13 -1 23 -9.5t14 -20.5q4 -13 1.5 -25t-11.5 -22l-39 -39q-9 -9 -21 -9t-21 9zM713 480v0v0v0v0v0v0v0v0z" />
    <glyph glyph-name="oral_disease" unicode="ORAL_DISEASE" 
d="M264 108q-16 0 -26 10t-10 26v260q0 15 10 25.5t26 10.5h36v165q0 2 -1 4.5t-2 4.5l-78 77q-21 20 -21 51t21 52l74 73q9 9 21 9t21 -9t9 -21t-9 -21l-74 -74q-4 -4 -3.5 -9t3.5 -9l78 -77q10 -10 15.5 -23.5t5.5 -27.5v-165h36q16 0 26 -10.5t10 -25.5v-260
q0 -16 -10 -26t-26 -10h-132zM564 108q-16 0 -26 10t-10 26v260q0 15 10 25.5t26 10.5h36v123q-48 11 -80 49t-32 90q0 59 41.5 101t100.5 42t100.5 -42t41.5 -101q0 -52 -32 -90t-80 -49v-123h36q16 0 26 -10.5t10 -25.5v-260q0 -16 -10 -26t-26 -10h-132zM630 620
q34 0 58 24t24 58t-24 58.5t-58 24.5t-58 -24.5t-24 -58.5q0 -33 24 -57.5t58 -24.5zM288 168h84v212h-84v-212zM588 168h84v212h-84v-212zM288 168v0h84v0h-84zM588 168v0h84v0h-84z" />
    <glyph glyph-name="outpatient" unicode="OUTPATIENT" 
d="M96 140q-15 0 -25.5 10.5t-10.5 25.5v608q0 15 10.5 25.5t25.5 10.5h449q16 0 26.5 -10.5t10.5 -25.5v-608q0 -15 -10.5 -25.5t-26.5 -10.5h-171v158h-106v-158h-172zM120 200h88v158h226v-158h88v560h-402v-560zM208 446h69v69h-69v-69zM208 603h69v69h-69v-69zM365 446
h69v69h-69v-69zM365 603h69v69h-69v-69zM208 200v158h226v-158v0v158h-226v-158v0zM645 480q0 13 8.5 21.5t21.5 8.5h111l-33 33q-8 8 -8.5 20.5t8.5 21.5q9 8 21.5 8t20.5 -8l80 -80q11 -11 11 -25t-11 -25l-80 -80q-8 -8 -20.5 -8.5t-20.5 8.5q-9 8 -9 20.5t8 21.5l33 33
h-111q-13 0 -21.5 8.5t-8.5 21.5z" />
    <glyph glyph-name="outpatient_med" unicode="OUTPATIENT_MED" 
d="M127 755q-12 0 -21 9t-9 21q0 13 9 21.5t21 8.5h380q13 0 21.5 -8.5t8.5 -21.5q0 -12 -8.5 -21t-21.5 -9h-380zM317 268q22 0 37.5 15t15.5 37v48h47q22 0 37.5 15t15.5 37t-15.5 37t-37.5 15h-47v48q0 22 -15.5 37t-37.5 15t-37 -15t-15 -37v-48h-48q-21 0 -36.5 -15
t-15.5 -37t15.5 -37t36.5 -15h48v-48q0 -22 15.5 -37t36.5 -15zM130 140q-31 0 -52 21t-21 51v416q0 30 21 51t52 21h375q30 0 51 -21t21 -51v-416q0 -30 -21 -51t-51 -21h-375zM130 200h375q5 0 8.5 4t3.5 8v416q0 4 -3.5 8t-8.5 4h-375q-5 0 -9 -4t-4 -8v-416q0 -4 4 -8
t9 -4zM755 375q-9 9 -9 21.5t9 21.5l33 32h-111q-12 0 -21 9t-9 21t9 21t21 9h111l-32 32q-10 9 -9.5 21t9.5 21q9 10 21.5 10t21.5 -10l79 -79q11 -11 11 -25t-11 -25l-80 -80q-9 -9 -21.5 -9t-21.5 9zM317 420v0v0v0v0v0v0v0v0v0v0v0v0z" />
    <glyph glyph-name="pediatrics" unicode="PEDIATRICS" 
d="M328 668q-13 0 -21.5 9t-8.5 21q0 13 8.5 21.5t21.5 8.5h122v87q0 12 8.5 21t21.5 9t21.5 -9t8.5 -21v-87h122q13 0 21.5 -8.5t8.5 -21.5q0 -12 -8.5 -21t-21.5 -9h-304zM372 108q-30 0 -51 21.5t-21 51.5v339q0 45 31.5 76.5t76.5 31.5h144q45 0 76.5 -31.5t31.5 -76.5
v-339q0 -30 -21 -51.5t-51 -21.5h-216zM360 168h228q5 0 8.5 3.5t3.5 9.5v339q0 21 -14 34.5t-34 13.5h-144q-20 0 -34 -13.5t-14 -34.5v-45h80q13 0 21.5 -8.5t8.5 -21.5t-8.5 -21.5t-21.5 -8.5h-80v-93h80q13 0 21.5 -8.5t8.5 -21.5t-8.5 -21.5t-21.5 -8.5h-80v-81v-13z
M360 168v0v3.5v9.5v339v34.5v13.5v0v-13.5v-34.5v-45v0v-60v0v-93v0v-60v0v-81v-13z" />
    <glyph glyph-name="physical_therapy" unicode="PHYSICAL_THERAPY" 
d="M479 296v0v0v0v0v0v0v0v0v0zM565 125l-172 67v0v0h-217q-15 0 -25.5 10.5t-10.5 25.5v104q0 75 52.5 127.5t127.5 52.5h429q30 0 50.5 -20t20.5 -50q0 -24 -15 -43t-37 -25l-104 -29v-153q0 -20 -8.5 -35t-23.5 -25q-14 -10 -31.5 -12.5t-35.5 5.5zM488 312h-117
q-10 0 -15.5 -6t-6.5 -13q-2 -7 1.5 -14.5t12.5 -10.5l224 -88q6 -2 11.5 1.5t5.5 10.5v120v0v0h-116zM200 252h106q-8 7 -13 17t-5 21q0 34 24.5 58t58.5 24h161l220 59q5 2 7 5t1 7t-3.5 6.5t-7.5 2.5h-429q-50 0 -85 -35t-35 -85v-80zM479 296v0v0v0v0v0v0v0v0v0v0v0v0v0
zM400 560q-58 0 -99 41t-41 99t41 99t99 41t99 -41t41 -99t-41 -99t-99 -41zM400 620q33 0 56.5 23.5t23.5 56.5t-23.5 56.5t-56.5 23.5t-56.5 -23.5t-23.5 -56.5t23.5 -56.5t56.5 -23.5zM400 700v0v0v0v0v0v0v0v0z" />
    <glyph glyph-name="pill" unicode="PILL" 
d="M345 140q-86 0 -145.5 59.5t-59.5 145.5q0 41 15.5 78.5t44.5 66.5l270 270q29 29 66.5 44.5t78.5 15.5q86 0 145.5 -59.5t59.5 -145.5q0 -41 -15.5 -78.5t-44.5 -66.5l-270 -270q-29 -29 -66.5 -44.5t-78.5 -15.5zM604 399l114 113q20 20 31 47t11 56q0 60 -42.5 102.5
t-102.5 42.5q-29 0 -56 -11t-47 -31l-113 -114zM345 200q29 0 56 11t47 31l113 114l-205 205l-114 -113q-20 -20 -31 -47t-11 -56q0 -60 42.5 -102.5t102.5 -42.5z" />
    <glyph glyph-name="podiatry" unicode="PODIATRY" 
d="M687 386l164 164l21 -21q9 -10 9 -22t-9 -21l-121 -121q-9 -9 -21.5 -9t-21.5 10zM75 279q0 20 11.5 36.5t30.5 24.5q24 10 46.5 22.5t43.5 28.5l47 -47q5 -7 13 -6.5t15 7.5q5 5 5 13t-5 15l-45 45q7 7 13.5 13t13.5 14l44 -45q5 -7 13 -6.5t15 7.5q5 5 5 13.5t-5 15.5
l-47 47q5 8 10 16.5t8 18.5l55 -55q5 -7 13.5 -7t14.5 7q5 5 5 13t-5 15l-67 67l35 84q3 6 7.5 12.5t9.5 11.5l144 137q17 17 42.5 16.5t42.5 -17.5l212 -212l-363 -377q-10 -11 -23.5 -17t-28.5 -6h-265q-26 0 -43.5 18t-17.5 43v34zM405 244v0v0v0v0v0v0l327 339v0v0v0v0
v0v0l-327 -339v0zM135 244h270l327 339l-171 171l-146 -139l-28 -69l32 -33q19 -20 19.5 -48t-19.5 -48l-106 -106q-20 -20 -47.5 -20.5t-46.5 19.5l-11 11q-17 -13 -35.5 -21.5t-37.5 -16.5v-39z" />
    <glyph glyph-name="prescriptions" unicode="PRESCRIPTIONS" 
d="M686 123l53 54l-80 80l-53 -53q-18 -17 -18 -40t18 -41q17 -17 40 -17t40 17zM781 218l53 53q18 18 18 41t-18 40q-17 17 -40 17.5t-40 -17.5l-53 -53zM729 80q-35 -34 -83.5 -34t-82.5 34q-35 35 -35 83.5t35 83.5l148 148q34 34 83 34t83 -34q35 -35 35 -83t-35 -83z
M200 200v56.5v57.5v148v30v30v226v8v4v0v-4v-8v-536v-8v-4v0zM212 140q-30 0 -51 21t-21 51v536q0 30 21 51t51 21h178q4 33 29.5 56.5t60.5 23.5q36 0 61 -23.5t29 -56.5h178q30 0 51 -21t21 -51v-226q-15 3 -30 2.5t-30 -2.5v226q0 5 -3.5 8.5t-8.5 3.5h-536
q-5 0 -8.5 -3.5t-3.5 -8.5v-536q0 -5 3.5 -8.5t8.5 -3.5h224q-2 -15 -2.5 -30t2.5 -30h-224zM480 786q13 0 21.5 8.5t8.5 21.5t-8.5 21.5t-21.5 8.5t-21.5 -8.5t-8.5 -21.5t8.5 -21.5t21.5 -8.5zM290 605v60h380v-60h-380zM290 450v60h380v-25q-7 -5 -13 -10t-13 -12
l-13 -13h-341zM290 295v60h246l-30 -31q-8 -7 -14.5 -14.5t-12.5 -14.5h-189z" />
    <glyph glyph-name="problem" unicode="PROBLEM" 
d="M280 317q15 0 25 10t10 25t-10 25.5t-25 10.5t-25 -10.5t-10 -25.5t10 -25t25 -10zM280 435q13 0 21.5 9t8.5 21v148q0 13 -8.5 21.5t-21.5 8.5t-21.5 -8.5t-8.5 -21.5v-148q0 -12 8.5 -21t21.5 -9zM440 370h240q13 0 21.5 8.5t8.5 21.5t-8.5 21.5t-21.5 8.5h-240
q-13 0 -21.5 -8.5t-8.5 -21.5t8.5 -21.5t21.5 -8.5zM440 530h240q13 0 21.5 8.5t8.5 21.5t-8.5 21.5t-21.5 8.5h-240q-13 0 -21.5 -8.5t-8.5 -21.5t8.5 -21.5t21.5 -8.5zM172 180q-30 0 -51 21t-21 51v456q0 30 21 51t51 21h616q30 0 51 -21t21 -51v-456q0 -30 -21 -51
t-51 -21h-616zM172 240h616q4 0 8 4t4 8v456q0 4 -4 8t-8 4h-616q-4 0 -8 -4t-4 -8v-456q0 -4 4 -8t8 -4zM160 240v0v4v8v456v8v4v0v-4v-8v-456v-8v-4z" />
    <glyph glyph-name="psychiatry" unicode="PSYCHIATRY" 
d="M480 130q-13 0 -21.5 8.5t-8.5 21.5v287v0q-60 0 -115 23t-98 65q-42 43 -64.5 98t-22.5 115v25q0 15 10.5 25t25.5 10h25q59 0 114 -22.5t97 -65.5q32 -31 52 -70t28 -82q7 12 15.5 22.5t19.5 21.5q42 42 97.5 65t115.5 23h24q15 0 25.5 -10.5t10.5 -25.5v-24
q0 -60 -23 -115.5t-65 -97.5q-43 -42 -97.5 -64.5t-114.5 -22.5v0v-180q0 -13 -8.5 -21.5t-21.5 -8.5zM450 508q0 48 -18.5 91.5t-52.5 77.5t-77.5 52.5t-91.5 18.5q0 -48 18 -92t52 -78t78 -52t92 -18zM510 400q48 0 91.5 18t77.5 52t52.5 78t18.5 92q-48 0 -92 -18.5
t-78 -52.5t-52 -77.5t-18 -91.5zM510 400v0v0v0v0v0v0v0v0zM450 508v0v0v0v0v0v0v0v0z" />
    <glyph glyph-name="pulmonology" unicode="PULMONOLOGY" 
d="M480 518l-83 -83q-9 -9 -21 -9t-21 9t-9 21t9 21l95 95v268q0 13 8.5 21.5t21.5 8.5t21.5 -8.5t8.5 -21.5v-268l95 -95q9 -9 9 -21t-9 -21t-21 -9t-21 9zM210 130q-46 0 -78 32t-32 78v152q0 7 1.5 13t3.5 13l96 257q13 33 42 54t64 21q43 0 73 -29t30 -72v-46
q0 -13 -8.5 -21.5t-21.5 -8.5t-21.5 8.5t-8.5 21.5v46q0 18 -13 29.5t-31 11.5q-17 0 -30 -10.5t-18 -26.5l-98 -259v-154q0 -21 14.5 -35.5t35.5 -14.5h120q21 0 35.5 14.5t14.5 35.5v50q0 13 8.5 21.5t21.5 8.5t21.5 -8.5t8.5 -21.5v-50q0 -46 -32.5 -78t-77.5 -32h-120z
M749 130h-120q-45 0 -77.5 32t-32.5 78v50q0 13 9 21.5t21 8.5q13 0 21.5 -8.5t8.5 -21.5v-50q0 -21 14.5 -35.5t35.5 -14.5h120q21 0 35.5 14.5t14.5 35.5v154l-98 259q-6 16 -18.5 26.5t-29.5 10.5q-18 0 -31 -11.5t-13 -29.5v-46q0 -13 -8.5 -21.5t-21.5 -8.5
q-12 0 -21 8.5t-9 21.5v46q0 43 30.5 72t72.5 29q35 0 64 -21t42 -54l97 -257q2 -7 3 -13t1 -13v-152q0 -46 -32 -78t-78 -32zM355 435v0v0v0v0v0v0v0v0v0v0v0v0v0v0v0v0v0v0v0v0v0v0zM605 435v0v0v0v0v0v0v0v0v0v0v0v0v0v0v0v0v0v0v0v0v0v0z" />
    <glyph glyph-name="radiology" unicode="RADIOLOGY" 
d="M212 100q-30 0 -51 21t-21 51v536q0 30 21 51t51 21h56v85h61v-85h303v85h60v-85h56q30 0 51 -21t21 -51v-536q0 -30 -21 -51t-51 -21h-536zM200 172q0 -4 4 -8t8 -4h536q4 0 8 4t4 8v536q0 4 -4 8t-8 4h-536q-4 0 -8 -4t-4 -8v-536zM372 160v80l-75 88
q-10 11 -17.5 27.5t-7.5 38.5q0 12 2.5 23.5t8.5 22.5q-5 10 -8 21.5t-3 24.5q0 22 7.5 38.5t17.5 27.5l75 88v80h48v-87q0 -5 -7 -19l-80 -94q-7 -8 -10 -16.5t-3 -17.5q0 -20 13 -34.5t33 -14.5q9 0 17 3t14 10q17 17 38.5 26t44.5 9t44.5 -9t38.5 -26q7 -7 15 -10t16 -3
q20 0 33 14.5t13 33.5q0 9 -3.5 17.5t-9.5 16.5l-80 95q-4 4 -5.5 9t-1.5 10v87h48v-80l75 -90q13 -14 19 -30.5t6 -34.5q0 -12 -3.5 -23.5t-8.5 -21.5q6 -11 9 -22.5t3 -23.5q0 -22 -7.5 -38.5t-17.5 -27.5l-75 -88v-80h-48v87q0 6 7 19l80 94q8 9 11 19.5t1 21.5
q-10 -6 -21 -9t-23 -3q-18 0 -35.5 7.5t-30.5 21.5q-9 10 -22 14.5t-27 4.5q-13 0 -26 -4.5t-23 -14.5q-13 -14 -30.5 -21.5t-34.5 -7.5q-12 0 -23.5 3t-21.5 9q-2 -11 1 -21.5t11 -19.5l80 -94q3 -5 5 -9.5t2 -9.5v-87h-48zM200 172v-8v-4v0v4v8v536v8v4v0v-4v-8v-536z" />
    <glyph glyph-name="respiratory_rate" unicode="RESPIRATORY_RATE" 
d="M480 480v0v0v0v0v0v0v0v0v0v0v0v0v0v0v0v0v0v0v0v0v0v0zM100 598v110q0 30 21 51t51 21h616q30 0 51 -21t21 -51v-190q0 -13 -8.5 -21.5t-21.5 -8.5t-21.5 8.5t-8.5 21.5v190q0 4 -4 8t-8 4h-616q-4 0 -8 -4t-4 -8v-110h-60zM172 180q-30 0 -51 21t-21 51v110h60v-110
q0 -5 3.5 -8.5t8.5 -3.5h190q13 0 21.5 -8.5t8.5 -21.5t-8.5 -21.5t-21.5 -8.5h-190zM280 290q-9 0 -16 4t-11 12l-71 144h-51q-13 0 -21.5 8.5t-8.5 21.5t8.5 21.5t21.5 8.5h70q8 0 15 -4.5t11 -12.5l53 -106l133 266q4 8 11.5 11.5t15.5 3.5t15.5 -3.5t11.5 -11.5l83 -167
q-15 -2 -29 -7.5t-26 -14.5l-55 108l-133 -266q-4 -8 -11.5 -12t-15.5 -4zM508 60q-20 0 -34 14t-14 34v124q0 6 1.5 12.5t3.5 13.5l46 122q7 18 22.5 29t34.5 11h82v60q0 13 8.5 21.5t21.5 8.5t21.5 -8.5t8.5 -21.5v-60h81q19 0 34.5 -11t22.5 -28l47 -123q2 -6 3.5 -13
t1.5 -14v-123q0 -20 -14 -34t-34 -14h-85q-20 0 -34.5 14t-14.5 34v30q0 12 9 21t21 9q13 0 21.5 -9t8.5 -21v-18h62v115l-48 125h-82v-41l41 -42q8 -9 8 -21.5t-8 -20.5q-9 -9 -21.5 -9t-20.5 9l-29 29l-29 -29q-8 -8 -20.5 -8.5t-21.5 8.5t-9 21t9 21l41 41v42h-82
l-48 -125v-115h62v18q0 12 8.5 21t21.5 9q12 0 21 -9t9 -21v-28q0 -21 -15 -35.5t-35 -14.5h-84zM680 240v0v0v0v0v0v0v0v0v0v0v0v0v0v0v0v0v0v0v0v0v0v0v0v0zM609 277l41 41v42v0v-42l-41 -41v0zM751 277v0l-41 42v41v0v-41z" />
    <glyph glyph-name="rheumatology" unicode="RHEUMATOLOGY" 
d="M411 362v0v0v0v0v0v0v0v0v0v0v0v0v0v0v0v0v0v0v0v0v0zM751 332q-11 3 -17 14.5t-2 22.5q4 13 15 18.5t23 1.5l120 -40q12 -4 17.5 -15t1.5 -24q-4 -11 -15 -16.5t-23 -1.5zM760 450q-12 0 -21 9t-9 21q0 13 9 21.5t21 8.5h120q13 0 21.5 -8.5t8.5 -21.5q0 -12 -8.5 -21
t-21.5 -9h-120zM771 572q-12 -4 -24 1t-15 17q-4 13 1.5 24t17.5 15l120 40q12 4 23 -2t15 -18q4 -11 -1.5 -22.5t-17.5 -14.5zM285 414q-44 0 -74.5 31t-30.5 74q0 22 8.5 41t22.5 33l89 90v182h60v-191q0 -8 -3.5 -15.5t-8.5 -13.5l-95 -95q-6 -6 -9.5 -14t-3.5 -17
q0 -18 13.5 -31.5t31.5 -13.5q12 0 19 4t19 14q22 18 43.5 27t43.5 9t43.5 -9t43.5 -27q12 -10 19 -14t19 -4q19 0 32 13.5t13 31.5q0 9 -3.5 17.5t-9.5 14.5l-95 95q-5 6 -8.5 13t-3.5 15v191h60v-181l90 -90q14 -14 22 -33.5t8 -41.5q0 -43 -30 -74t-75 -31
q-28 0 -45 10.5t-30 22.5q-17 13 -29 17t-21 4q-11 0 -23.5 -6t-25.5 -15q-13 -12 -30 -22.5t-46 -10.5zM460 95v185q0 8 3.5 15.5t8.5 13.5l95 95q6 6 9.5 14t3.5 17q0 8 -2.5 14.5t-7.5 12.5l44 43q12 -14 19 -32t7 -38q0 -22 -8 -40.5t-22 -32.5l-90 -90v-177h-60z
M300 95v177l-89 90q-14 14 -22.5 32.5t-8.5 40.5q0 20 7.5 38t19.5 32l44 -43q-6 -6 -8.5 -12.5t-2.5 -14.5q0 -9 3.5 -17t9.5 -14l95 -95q5 -6 8.5 -13.5t3.5 -15.5v-185h-60zM410 646v0v0v0v0v0v0v0v0v0v0v0v0v0v0v0v0v0v0v0v0v0v0v0v0v0z" />
    <glyph glyph-name="source_notes" unicode="SOURCE_NOTES" 
d="M720 46q-56 0 -102 29.5t-70 76.5q-5 8 -1.5 18t12.5 14q9 3 18 0t14 -12q18 -35 52 -56.5t77 -21.5q61 0 103.5 42.5t42.5 103.5t-42.5 103.5t-103.5 42.5q-33 0 -62 -14t-51 -38h43q10 0 17 -7t7 -17t-7 -17t-17 -7h-88q-15 0 -25.5 10.5t-10.5 25.5v88q0 10 7 17t17 7
t17 -7t7 -17v-42q28 30 65.5 48t80.5 18q80 0 137 -57t57 -137t-57 -137t-137 -57zM200 200v0v0v0v548v8v4v0v-4v-8v-548v0v0v0v0v0v0zM640 605q13 0 21.5 9t8.5 21q0 13 -8.5 21.5t-21.5 8.5h-320q-13 0 -21.5 -8.5t-8.5 -21.5q0 -12 8.5 -21t21.5 -9h320zM560 510h-240
q-13 0 -21.5 -8.5t-8.5 -21.5t8.5 -21.5t21.5 -8.5h168q15 18 33 33t39 27zM428 355h-108q-13 0 -21.5 -9t-8.5 -21q0 -13 8.5 -21.5t21.5 -8.5h91q2 16 6.5 30.5t10.5 29.5zM212 140q-30 0 -51 21t-21 51v536q0 30 21 51t51 21h536q30 0 51 -21t21 -51v-211q-14 5 -29 9
t-31 5v197q0 4 -4 8t-8 4h-536q-4 0 -8 -4t-4 -8v-536q0 -4 4 -8t8 -4h197q1 -16 5 -31t9 -29h-211z" />
    <glyph glyph-name="surgical" unicode="SURGICAL" 
d="M477 156l60 60h316q12 0 21 -8.5t9 -21.5t-9 -21.5t-21 -8.5h-376zM481 361l-122 122l307 307q11 10 25.5 10t25.5 -10l71 -71q10 -11 10 -25.5t-10 -25.5zM481 447l248 247l-37 37l-247 -248zM216 155q-37 0 -71.5 13t-61.5 37l235 234l89 -89q12 -12 18.5 -26.5
t6.5 -30.5t-6.5 -31t-17.5 -26l-19 -19q-29 -30 -68.5 -46t-80.5 -16h-24zM216 215h24q30 0 58 11.5t49 32.5l19 19q6 6 5.5 14.5t-6.5 14.5l-47 47l-136 -134q7 -2 16.5 -3.5t17.5 -1.5zM729 694l-37 37v0l37 -37v0zM318 354v0v0v0v0v0v0v0v0v0v0z" />
    <glyph glyph-name="symptoms" unicode="SYMPTOMS" 
d="M479 500v0v0v0v0v0v0v0v0v0v0v0v0v0v0zM480 220q-138 0 -251.5 76t-166.5 204q53 128 166.5 204t251.5 76t251.5 -76t166.5 -204q-6 -14 -12.5 -27.5t-14.5 -25.5l-46 44q2 3 3 5.5t3 5.5q-51 100 -145 159t-206 59q-113 0 -207.5 -59.5t-144.5 -160.5
q50 -101 144.5 -160.5t207.5 -59.5q10 0 19.5 0.5t20.5 2.5q-3 -16 -3 -31.5t3 -30.5q-10 -1 -20 -1h-20zM480 337q-68 0 -115.5 47.5t-47.5 115.5t47.5 115.5t115.5 47.5t115.5 -47.5t47.5 -115.5q0 -9 -1 -17.5t-4 -17.5l-48 -44q-16 -16 -29 -34t-22 -38q-14 -6 -28.5 -9
t-30.5 -3zM480 392q45 0 76.5 31.5t31.5 76.5t-31.5 76.5t-76.5 31.5t-76.5 -31.5t-31.5 -76.5t31.5 -76.5t76.5 -31.5zM746 115q-59 0 -99.5 41t-41.5 99q0 29 12 55t34 47l94 89l95 -89q20 -20 32 -46t13 -55q0 -59 -41 -100t-98 -41zM746 175q32 0 55.5 23.5t22.5 57.5
q0 16 -7.5 31.5t-19.5 26.5l-52 50l-52 -50q-12 -11 -20 -26.5t-7 -32.5q0 -33 23 -56.5t57 -23.5zM745 269v0v0v0v0v0v0v0v0v0v0z" />
    <glyph glyph-name="syringe" unicode="SYRINGE" 
d="M182 523q-8 9 -8 21t8 21l106 106l-50 49l-18 -19q-10 -10 -22 -10t-21 10q-9 8 -9 20.5t9 21.5l80 79q9 10 21 10t22 -10q8 -8 8 -20.5t-8 -20.5l-20 -20l49 -48l106 105q9 9 21.5 9t21.5 -9t9 -21t-9 -22l-25 -24l283 -283q21 -21 21 -51.5t-21 -50.5l-29 -30l149 -149
q8 -8 4 -17t-14 -9h-29q-10 0 -19 4t-16 11l-118 118l-29 -30q-20 -21 -50.5 -21t-51.5 21l-283 283l-25 -24q-9 -9 -21.5 -9t-21.5 9zM291 589l284 -283q4 -4 9 -4t9 4l101 102q3 3 3 8.5t-3 8.5l-59 59l-59 -58q-9 -9 -21 -9.5t-20 8.5q-10 9 -10 21t10 22l58 58l-72 72
l-58 -59q-9 -8 -21.5 -8t-21.5 8q-8 9 -8 21.5t8 21.5l59 59l-68 67zM291 589v0l2.5 2.5l6.5 6.5l102 102q4 3 6.5 5.5l2.5 2.5v0v0v0v0v0v0v0v0v0z" />
    <glyph glyph-name="urology" unicode="UROLOGY" 
d="M436 152v-52q0 -12 -8.5 -21t-21.5 -9t-21.5 9t-8.5 21v53h-1q-23 3 -40.5 19t-22.5 41l-9 55q-5 34 16.5 59t55.5 25h1v63q-11 -8 -23.5 -11.5t-26.5 -3.5q-94 0 -158 67.5t-64 162.5v35q0 95 64 162.5t158 67.5q46 0 78 -32t32 -78q0 -45 -32 -77.5t-78 -32.5h-40
q-13 0 -21.5 9t-8.5 21q0 13 8.5 21.5t21.5 8.5h40q21 0 35.5 15t14.5 35q0 21 -14.5 35.5t-35.5 14.5q-68 0 -115 -50t-47 -120v-35q0 -69 47 -119.5t115 -50.5q21 0 35.5 14.5t14.5 35.5t-14.5 35.5t-35.5 14.5h-40q-13 0 -21.5 8.5t-8.5 21.5t8.5 21.5t21.5 8.5h40
q46 0 78 -32t32 -78v-158h88v158q0 46 32 78t78 32h40q13 0 21.5 -8.5t8.5 -21.5t-8.5 -21.5t-21.5 -8.5h-40q-21 0 -35.5 -14.5t-14.5 -35.5t14.5 -35.5t35.5 -14.5q68 0 115 50.5t47 119.5v35q0 70 -47 120t-115 50q-21 0 -35.5 -14.5t-14.5 -35.5q0 -20 14.5 -35
t35.5 -15h40q13 0 21.5 -8.5t8.5 -21.5q0 -12 -8.5 -21t-21.5 -9h-40q-46 0 -78 32.5t-32 77.5q0 46 32 78t78 32q94 0 158 -67.5t64 -162.5v-35q0 -95 -64 -162.5t-158 -67.5q-14 0 -26.5 3.5t-23.5 11.5v-63h1q34 0 55.5 -25t16.5 -59l-9 -55q-5 -25 -22.5 -41t-40.5 -19
h-1v-53q0 -12 -8.5 -21t-21.5 -9t-21.5 9t-8.5 21v52h-88zM362 278l9 -55q1 -5 4.5 -8t7.5 -3h194q4 0 7.5 3t4.5 8l9 55q0 5 -3.5 9.5t-9.5 4.5h-210q-6 0 -9.5 -4.5t-3.5 -9.5zM362 278q0 5 -1 9.5l-1 4.5v0l1 -4.5t1 -9.5l9 -55q1 -5 1.5 -8l0.5 -3v0l-0.5 3t-1.5 8z" />
    <glyph glyph-name="vaccines" unicode="VACCINES" 
d="M280 80q-13 0 -21.5 8.5t-8.5 21.5v180h-60q-26 0 -43 17t-17 43v320h-10q-13 0 -21.5 8.5t-8.5 21.5t8.5 21.5t21.5 8.5h130v80h-30q-13 0 -21.5 8.5t-8.5 21.5t8.5 21.5t21.5 8.5h120q13 0 21.5 -8.5t8.5 -21.5t-8.5 -21.5t-21.5 -8.5h-30v-80h130q13 0 21.5 -8.5
t8.5 -21.5t-8.5 -21.5t-21.5 -8.5h-10v-320q0 -26 -17 -43t-43 -17h-60v-180q0 -13 -8.5 -21.5t-21.5 -8.5zM190 350h180v76h-80q-10 0 -17 7t-7 17t7 17t17 7h80v72h-80q-10 0 -17 7t-7 17t7 17t17 7h80v76h-180v-320zM590 90q-26 0 -43 17t-17 43v270q0 29 11 48t22 32
t19 21.5t8 18.5v30h-10q-13 0 -21.5 8.5t-8.5 21.5t8.5 21.5t21.5 8.5h200q13 0 21.5 -8.5t8.5 -21.5t-8.5 -21.5t-21.5 -8.5h-10v-30q0 -10 8.5 -19.5t20.5 -22.5q11 -13 21 -32t10 -46v-270q0 -26 -17 -43t-43 -17h-180zM590 394h180v26q0 17 -9 29.5t-21 25.5
q-10 12 -20 27t-10 38v30h-60v-30q0 -22 -9.5 -37t-20.5 -27q-11 -14 -20.5 -26.5t-9.5 -29.5v-26zM590 274h180v72h-180v-72zM590 150h180v76h-180v-76zM590 274v0h180v0h-180z" />
    <glyph glyph-name="ventilator" unicode="VENTILATOR" 
d="M528 668h144q5 0 8.5 3.5t3.5 8.5v63q0 5 -3.5 8.5t-8.5 3.5h-144q-5 0 -8.5 -3.5t-3.5 -8.5v-63q0 -5 3.5 -8.5t8.5 -3.5zM165 283q17 0 28.5 11.5t11.5 28.5t-11.5 28.5t-28.5 11.5t-28.5 -11.5t-11.5 -28.5t11.5 -28.5t28.5 -11.5zM480 132q-78 0 -147 27t-125 74
q-10 -5 -20.5 -7.5t-22.5 -2.5q-42 0 -71 29t-29 71q0 20 7 37.5t20 30.5q-9 21 -15.5 43t-10.5 45q-2 13 5.5 22.5t20.5 11.5t22.5 -6.5t11.5 -20.5q3 -17 8 -33t11 -32q5 2 10 2h10q42 0 71 -29t29 -71q0 -13 -3.5 -25t-9.5 -22q41 -36 91.5 -57t106.5 -25v198
q0 20 -14.5 35t-35.5 15q-62 0 -106 43.5t-44 106.5q0 62 44 106t106 44h56v1q0 30 21.5 51t50.5 21h144q29 0 50.5 -21t21.5 -51v-1h37q13 0 21.5 -9t8.5 -21q0 -13 -8.5 -21.5t-21.5 -8.5h-37v-2q0 -30 -21.5 -51t-50.5 -21h-144q-29 0 -50.5 21t-21.5 51v2h-56
q-38 0 -64 -26.5t-26 -63.5q0 -38 26 -64t64 -26q46 0 78 -32.5t32 -77.5v-198q95 7 171 59.5t118 133.5l-21 11q-6 3 -10 7.5t-5.5 10t-1.5 11.5t3 11q3 7 7.5 10.5t10 5t11.5 1t11 -3.5l19 -9q3 11 6 21.5t5 22.5t12 20.5t22 6.5q13 -2 20.5 -11.5t5.5 -22.5
q-3 -17 -7 -33t-10 -31l16 -8q6 -3 10 -7.5t5.5 -10t1 -11t-2.5 -11.5q-3 -6 -7.5 -9.5t-10 -5.5t-11 -1.5t-11.5 3.5l-13 6q-53 -103 -152.5 -165.5t-221.5 -62.5zM516 668v3.5v8.5v63v8.5v3.5v0v-3.5v-8.5v-63v-8.5v-3.5v0zM165 323v0v0v0v0v0v0v0v0z" />
    <glyph glyph-name="vitals" unicode="VITALS" 
d="M369 195q-15 0 -27 8.5t-17 22.5l-88 224h-146q-13 0 -21.5 8.5t-8.5 21.5t8.5 21.5t21.5 8.5h163q12 0 20.5 -6.5t13.5 -16.5l80 -208l180 455q5 14 17 22.5t26 8.5q15 0 27 -8.5t17 -22.5l88 -224h147q13 0 21.5 -8.5t8.5 -21.5t-8.5 -21.5t-21.5 -8.5h-164
q-11 0 -19.5 6.5t-13.5 16.5l-81 208l-180 -455q-5 -14 -17 -22.5t-26 -8.5z" />
    <glyph glyph-name="ward" unicode="WARD" 
d="M132 860h74q16 0 26 -10.5t10 -25.5v-724q-27 4 -43.5 24t-16.5 48v628h-50q-12 0 -21 8.5t-9 21.5t9 21.5t21 8.5zM370 100q-30 0 -51 21t-21 51v616q0 30 21 51t51 21h335q30 0 51.5 -21t21.5 -51v-616q0 -30 -21.5 -51t-51.5 -21h-335zM358 514q17 13 37 19.5t43 6.5
h200q22 0 42.5 -6.5t37.5 -19.5v274q0 5 -3.5 8.5t-9.5 3.5h-335q-5 0 -8.5 -3.5t-3.5 -8.5v-274zM538 600q-29 0 -49.5 20.5t-20.5 49.5t20.5 49.5t49.5 20.5t49.5 -20.5t20.5 -49.5t-20.5 -49.5t-49.5 -20.5zM370 160h335q6 0 9.5 3.5t3.5 8.5v228q0 33 -23.5 56.5
t-56.5 23.5h-200q-33 0 -56.5 -23.5t-23.5 -56.5v-228q0 -5 3.5 -8.5t8.5 -3.5zM508 290v-50q0 -13 8.5 -21.5t21.5 -8.5q12 0 21 8.5t9 21.5v50h50q12 0 21 8.5t9 21.5t-9 21.5t-21 8.5h-50v50q0 13 -9 21.5t-21 8.5q-13 0 -21.5 -8.5t-8.5 -21.5v-50h-50q-13 0 -21.5 -8.5
t-8.5 -21.5t8.5 -21.5t21.5 -8.5h50zM370 160h-8.5h-3.5v0h23.5h56.5h200h56.5h23.5v0h-3.5h-9.5h-335z" />
    <glyph glyph-name="weight" unicode="WEIGHT" 
d="M254 200h452q5 0 9 4.5t3 9.5l-53 376q-1 4 -4.5 7t-8.5 3h-344q-5 0 -8.5 -3t-4.5 -7l-53 -376q-1 -5 3 -9.5t9 -4.5zM480 660q17 0 28.5 11.5t11.5 28.5t-11.5 28.5t-28.5 11.5t-28.5 -11.5t-11.5 -28.5t11.5 -28.5t28.5 -11.5zM571 660h82q27 0 47 -18t24 -44l53 -376
q5 -32 -16.5 -57t-54.5 -25h-452q-33 0 -54.5 25t-16.5 57l53 376q4 26 24 44t47 18h82q-4 9 -6.5 19t-2.5 21q0 42 29 71t71 29t71 -29t29 -71q0 -11 -2.5 -21t-6.5 -19zM241 200v0v0v0v0v0h478v0v0v0v0v0h-478z" />
    <glyph glyph-name="woman" unicode="WOMAN" 
d="M439 90q-15 0 -25.5 10.5t-10.5 25.5v206h-62q-19 0 -30 16t-4 34l98 246q10 23 30 36.5t45 13.5t45 -13.5t30 -36.5l98 -246q7 -18 -4 -34t-30 -16h-62v-206q0 -15 -10.5 -25.5t-25.5 -10.5h-82zM480 724q-30 0 -52 21.5t-22 52.5q0 30 22 52t52 22t52 -22t22 -52
q0 -31 -22 -52.5t-52 -21.5z" />
    <glyph glyph-name="wounds_injuries" unicode="WOUNDS_INJURIES" 
d="M237 195l-72 -72q-9 -9 -21 -9t-21 9t-9 21t9 21l72 72l-66 17q-12 4 -18.5 14.5t-2.5 22.5t14.5 18.5t21.5 2.5l66 -17l-18 66q-4 12 3 22.5t18 14.5q12 4 22.5 -3t14.5 -19l18 -66l154 154l-65 18q-12 4 -18.5 14.5t-2.5 22.5q3 11 14 18t22 3l65 -17l-17 65
q-4 12 3 22.5t18 13.5q12 4 22.5 -2.5t14.5 -18.5l18 -65l154 154l-66 18q-12 4 -19 14.5t-3 22.5q4 11 14.5 18t22.5 3l66 -18l-18 66q-4 11 3 21.5t19 14.5t22.5 -2.5t14.5 -18.5l17 -66l72 72q9 9 21 9t21 -9t9 -21t-9 -21l-72 -72l66 -17q12 -4 18.5 -14.5t2.5 -22.5
t-14.5 -18.5t-21.5 -2.5l-66 17l18 -66q4 -12 -3 -22.5t-18 -14.5q-12 -4 -22.5 3t-14.5 19l-18 66l-154 -154l65 -18q12 -4 18.5 -14.5t2.5 -22.5q-3 -11 -14 -18t-22 -3l-65 17l17 -65q4 -12 -3 -22.5t-18 -13.5q-12 -4 -22.5 2.5t-14.5 18.5l-18 65l-154 -154l66 -18
q12 -4 19 -14.5t3 -22.5q-4 -11 -14.5 -18t-22.5 -3l-66 18l18 -66q4 -11 -3 -21.5t-19 -14.5t-22.5 2.5t-14.5 18.5z" />
    <glyph glyph-name="add" unicode="ADD" 
d="M480 210q-13 0 -21.5 8.5t-8.5 21.5v210h-210q-13 0 -21.5 8.5t-8.5 21.5t8.5 21.5t21.5 8.5h210v210q0 13 8.5 21.5t21.5 8.5t21.5 -8.5t8.5 -21.5v-210h210q13 0 21.5 -8.5t8.5 -21.5t-8.5 -21.5t-21.5 -8.5h-210v-210q0 -13 -8.5 -21.5t-21.5 -8.5z" />
    <glyph glyph-name="add_box" unicode="ADD_BOX" 
d="M450 450v-130q0 -13 8.5 -21.5t21.5 -8.5t21.5 8.5t8.5 21.5v130h130q13 0 21.5 8.5t8.5 21.5t-8.5 21.5t-21.5 8.5h-130v130q0 13 -8.5 21.5t-21.5 8.5t-21.5 -8.5t-8.5 -21.5v-130h-130q-13 0 -21.5 -8.5t-8.5 -21.5t8.5 -21.5t21.5 -8.5h130zM212 140q-30 0 -51 21
t-21 51v536q0 30 21 51t51 21h536q30 0 51 -21t21 -51v-536q0 -30 -21 -51t-51 -21h-536zM212 200h536q4 0 8 4t4 8v536q0 4 -4 8t-8 4h-536q-4 0 -8 -4t-4 -8v-536q0 -4 4 -8t8 -4zM200 760v0v-3.5v-8.5v-536v-8.5v-3.5v0v3.5v8.5v536v8.5v3.5z" />
    <glyph glyph-name="add_circle" unicode="ADD_CIRCLE_OUTLINE" 
d="M450 450v-130q0 -13 8.5 -21.5t21.5 -8.5t21.5 8.5t8.5 21.5v130h130q13 0 21.5 8.5t8.5 21.5t-8.5 21.5t-21.5 8.5h-130v130q0 13 -8.5 21.5t-21.5 8.5t-21.5 -8.5t-8.5 -21.5v-130h-130q-13 0 -21.5 -8.5t-8.5 -21.5t8.5 -21.5t21.5 -8.5h130zM480 100q-79 0 -148.5 30
t-120.5 81t-81 120.5t-30 148.5t30 148.5t81 120.5t120.5 81t148.5 30t148.5 -30t120.5 -81t81 -120.5t30 -148.5t-30 -148.5t-81 -120.5t-120.5 -81t-148.5 -30zM480 160q134 0 227 93t93 227t-93 227t-227 93t-227 -93t-93 -227t93 -227t227 -93zM480 480v0v0v0v0v0v0v0v0
z" />
    <glyph glyph-name="archive" unicode="ARCHIVE" 
d="M212 140q-30 0 -51 21t-21 51v465q0 13 3.5 23t10.5 19l53 64q7 9 18 13t23 4h464q12 0 23 -4t18 -13l52 -64q7 -9 11 -19t4 -23v-465q0 -30 -21 -51t-51 -21h-536zM216 700h528l-34 40h-460zM212 200h536q4 0 8 4t4 8v428h-560v-428q0 -4 4 -8t8 -4zM480 271
q7 0 13.5 2.5t11.5 7.5l100 100q8 9 8.5 21.5t-8.5 20.5q-9 9 -21 9t-21 -9l-53 -53v148q0 13 -8.5 21.5t-21.5 8.5t-21.5 -8.5t-8.5 -21.5v-148l-53 53q-8 9 -20.5 9t-21.5 -9q-9 -8 -9 -20.5t9 -21.5l100 -100q5 -5 11.5 -7.5t13.5 -2.5zM200 200v4v8v428v0v-428v-8v-4v0z
" />
    <glyph glyph-name="backspace" unicode="BACKSPACE" 
d="M428 355q9 -9 21 -9t21 9l83 83l83 -83q9 -9 21 -9t21 9t9 21t-9 21l-83 83l83 83q9 9 9 21t-9 21t-21 9t-21 -9l-83 -83l-83 83q-9 9 -21 9t-21 -9t-9 -21t9 -21l83 -83l-83 -83q-9 -9 -9 -21t9 -21zM370 220q-21 0 -39 10t-30 26l-129 182q-13 19 -13 42t13 42l129 182
q12 17 30 26.5t39 9.5h375q30 0 51.5 -21t21.5 -51v-376q0 -30 -21.5 -51t-51.5 -21h-375zM216 480l135 -190q3 -4 8 -7t11 -3h375q5 0 9 4t4 8v376q0 4 -4 8t-9 4h-375q-6 0 -11 -3t-8 -7zM758 480v190v7v3v0v-4v-8v-376v-8v-4v0v3v7v190z" />
    <glyph glyph-name="close" unicode="CLEAR" 
d="M480 438l-203 -203q-8 -8 -20.5 -8.5t-21.5 8.5t-9 21t9 21l203 203l-203 203q-8 8 -8.5 20.5t8.5 21.5t21 9t21 -9l203 -203l203 203q8 8 20.5 8.5t21.5 -8.5t9 -21t-9 -21l-203 -203l203 -203q8 -8 8.5 -20.5t-8.5 -21.5t-21 -9t-21 9z" />
    <glyph glyph-name="content_copy" unicode="CONTENT_COPY" 
d="M230 108q-30 0 -51 21t-21 51v478q0 12 8.5 21t21.5 9q12 0 21 -9t9 -21v-478q0 -5 3.5 -8.5t8.5 -3.5h358q12 0 21 -9t9 -21q0 -13 -9 -21.5t-21 -8.5h-358zM370 248q-30 0 -51 21t-21 51v455q0 31 21 52t51 21h335q31 0 52 -21t21 -52v-455q0 -30 -21 -51t-52 -21h-335
zM370 308h335q5 0 9 3.5t4 8.5v455q0 5 -4 9t-9 4h-335q-5 0 -8.5 -4t-3.5 -9v-455q0 -5 3.5 -8.5t8.5 -3.5zM358 308v3.5v8.5v455v9v4v0v-4v-9v-455v-8.5v-3.5v0z" />
    <glyph glyph-name="content_cut" unicode="CONTENT_CUT" 
d="M786 111l-304 304l-110 -109q9 -15 12.5 -32t3.5 -34q0 -60 -43 -103t-103 -43q-61 0 -104 43t-43 103t43 103t104 43q17 0 34 -3.5t32 -11.5l109 109l-109 109q-15 -8 -32 -11.5t-34 -3.5q-61 0 -104 43t-43 103t43 103t103 43q61 0 104 -43t43 -103q0 -17 -3.5 -34
t-12.5 -32l479 -478q13 -14 13 -32.5t-13 -32.5q-14 -14 -33 -14t-32 14zM592 526l-64 65l258 258q13 14 32 14t33 -14q13 -14 13 -32.5t-13 -32.5zM242 634q36 0 61 25t25 61t-25 61t-61 25q-37 0 -62 -25t-25 -61t25 -61t62 -25zM481 470q5 0 8 2.5t3 7.5q0 4 -3 7t-7 3
q-5 0 -7.5 -2.5t-2.5 -7.5q0 -4 2.5 -7t6.5 -3zM242 154q36 0 61 25t25 61t-25 61t-61 25q-37 0 -62 -25t-25 -61t25 -61t62 -25z" />
    <glyph glyph-name="content_paste" unicode="CONTENT_PASTE" 
d="M212 140q-30 0 -51 21t-21 51v536q0 30 21 51t51 21h177q8 29 33.5 48.5t57.5 19.5q33 0 58.5 -19.5t33.5 -48.5h176q30 0 51 -21t21 -51v-536q0 -30 -21 -51t-51 -21h-536zM212 200h536q4 0 8 4t4 8v536q0 4 -4 8t-8 4h-88v-68q0 -16 -10.5 -26.5t-25.5 -10.5h-288
q-15 0 -25.5 10.5t-10.5 26.5v68h-88q-4 0 -8 -4t-4 -8v-536q0 -4 4 -8t8 -4zM480 755q15 0 25.5 10.5t10.5 26.5q0 15 -10.5 25.5t-25.5 10.5t-25.5 -10.5t-10.5 -26.5q0 -15 10.5 -25.5t25.5 -10.5z" />
    <glyph glyph-name="edit" unicode="CREATE" 
d="M206 200h50l370 370l-49 50l-371 -371v-49zM754 614l-135 134l53 52q17 17 42.5 17t42.5 -17l49 -49q17 -18 18 -42.5t-17 -41.5zM182 140q-15 0 -25.5 10.5t-10.5 25.5v84q0 7 2.5 13.5t8.5 12.5l419 419l135 -135l-419 -419q-6 -6 -12.5 -8.5t-13.5 -2.5h-84zM601 595
l-24 25v0l49 -50v0z" />
    <glyph glyph-name="drafts" unicode="DRAFTS" 
d="M172 140q-30 0 -51 21t-21 51v422q0 16 7.5 30t21.5 23l314 187q9 6 18 8t19 2t19 -2t18 -8l314 -187q14 -9 21.5 -23t7.5 -30v-422q0 -30 -21 -51t-51 -21h-616zM480 460q5 0 9 1t9 4l294 175l-294 175q-5 3 -9 4t-9 1t-9 -1t-9 -4l-294 -175l294 -175q5 -3 9 -4t9 -1z
M172 200h616q5 0 8.5 3.5t3.5 8.5v363l-283 -169q-9 -5 -18 -7.5t-19 -2.5t-19 2.5t-18 7.5l-283 169v-363q0 -5 3.5 -8.5t8.5 -3.5zM172 200h-8.5h-3.5v0h283h18h19h19h18h283v0h-3.5h-8.5h-616z" />
    <glyph glyph-name="filter_list" unicode="FILTER_LIST" 
d="M440 250q-13 0 -21.5 8.5t-8.5 21.5t8.5 21.5t21.5 8.5h80q13 0 21.5 -8.5t8.5 -21.5t-8.5 -21.5t-21.5 -8.5h-80zM160 665q-13 0 -21.5 9t-8.5 21q0 13 8.5 21.5t21.5 8.5h640q13 0 21.5 -8.5t8.5 -21.5q0 -12 -8.5 -21t-21.5 -9h-640zM280 458q-13 0 -21.5 8.5
t-8.5 21.5q0 12 8.5 21t21.5 9h400q13 0 21.5 -9t8.5 -21q0 -13 -8.5 -21.5t-21.5 -8.5h-400z" />
    <glyph glyph-name="flag" unicode="ASSISTANT_PHOTO" 
d="M250 130q-13 0 -21.5 8.5t-8.5 21.5v584q0 15 10.5 25.5t25.5 10.5h258q13 0 23 -8t12 -21l11 -51h184q15 0 25.5 -10.5t10.5 -25.5v-288q0 -15 -10.5 -25.5t-25.5 -10.5h-178q-13 0 -23 8t-12 21l-11 51h-240v-260q0 -13 -8.5 -21.5t-21.5 -8.5zM500 560v0v0v0v0v0v0v0
v0zM586 400h134v240h-210l-16 80h-214v-240h290z" />
    <glyph glyph-name="forward" unicode="FORWARD" 
d="M162 210q-13 0 -21.5 8.5t-8.5 21.5v120q0 79 55.5 134.5t134.5 55.5h392l-134 134q-8 8 -8 20t9 21t21 9t21 -9l180 -180q5 -5 7.5 -11.5t2.5 -13.5t-2.5 -13.5t-7.5 -11.5l-181 -181q-8 -8 -20 -8t-21 9t-9 21t9 21l133 133h-392q-54 0 -92 -38t-38 -92v-120
q0 -13 -8.5 -21.5t-21.5 -8.5z" />
    <glyph glyph-name="gesture" unicode="GESTURE" 
d="M555 128q-51 0 -85 34t-34 85q0 32 14.5 65.5t42.5 62t68 49t92 27.5q-4 48 -21.5 69.5t-48.5 21.5q-39 0 -77 -31t-83 -85q-63 -76 -101 -108t-83 -32q-47 0 -78 34t-31 86q0 54 25 108.5t71 119.5q20 29 32.5 51t12.5 38q0 11 -5 16t-13 5t-17 -4t-19 -13
q-14 -12 -29 -12t-26 11q-12 12 -12 29t11 28q24 21 47 31t45 10q42 0 70 -28.5t28 -70.5q0 -32 -17 -67.5t-49 -79.5q-35 -49 -55 -91t-20 -77q0 -22 7.5 -33t21.5 -11q19 0 44 24.5t79 87.5q56 67 107.5 105.5t113.5 38.5q71 0 108.5 -48.5t41.5 -119.5h57
q17 0 28.5 -11.5t11.5 -28.5t-11.5 -28.5t-28.5 -11.5h-57q-6 -98 -49.5 -172t-128.5 -74zM556 208q43 0 67 48.5t29 113.5q-61 -10 -98.5 -47.5t-37.5 -73.5q0 -19 11 -30t29 -11z" />
    <glyph glyph-name="inbox" unicode="INBOX" 
d="M212 140q-30 0 -51 21t-21 51v536q0 30 21 51t51 21h536q30 0 51 -21t21 -51v-536q0 -30 -21 -51t-51 -21h-536zM212 200h536q5 0 8.5 3.5t3.5 8.5v116h-132q-26 -38 -64.5 -59t-83.5 -21t-83.5 21t-64.5 59h-132v-116q0 -5 3.5 -8.5t8.5 -3.5zM480 308q32 0 59.5 16
t43.5 44q5 9 14.5 14.5t20.5 5.5h142v360q0 5 -3.5 8.5t-8.5 3.5h-536q-5 0 -8.5 -3.5t-3.5 -8.5v-360h142q11 0 20.5 -5.5t14.5 -14.5q16 -28 43.5 -44t59.5 -16zM212 200h-8.5h-3.5v0h132h64.5h83.5h83.5h64.5h132v0h-3.5h-8.5h-536z" />
    <glyph glyph-name="link" unicode="INSERT_LINK" 
d="M280 298q-75 0 -128.5 53.5t-53.5 128.5t53.5 128.5t128.5 53.5h122q13 0 21.5 -9t8.5 -21q0 -13 -8.5 -21.5t-21.5 -8.5h-122q-50 0 -86 -36t-36 -86t36 -86t86 -36h122q13 0 21.5 -8.5t8.5 -21.5q0 -12 -8.5 -21t-21.5 -9h-122zM360 450q-13 0 -21.5 8.5t-8.5 21.5
t8.5 21.5t21.5 8.5h240q13 0 21.5 -8.5t8.5 -21.5t-8.5 -21.5t-21.5 -8.5h-240zM558 298q-13 0 -21.5 9t-8.5 21q0 13 8.5 21.5t21.5 8.5h122q50 0 86 36t36 86t-36 86t-86 36h-122q-13 0 -21.5 8.5t-8.5 21.5q0 12 8.5 21t21.5 9h122q75 0 128.5 -53.5t53.5 -128.5
t-53.5 -128.5t-128.5 -53.5h-122z" />
    <glyph glyph-name="redo" unicode="REDO" 
d="M398 210q-92 0 -159 60t-67 150t67 150t159 60h276l-93 93q-8 8 -8.5 20.5t8.5 21.5t21 9t21 -9l140 -140q5 -5 7.5 -11.5t2.5 -13.5t-2.5 -13.5t-7.5 -11.5l-140 -140q-8 -8 -20.5 -8.5t-21.5 8.5t-9 21t9 21l93 93h-276q-67 0 -116.5 -42.5t-49.5 -107.5t49.5 -107.5
t116.5 -42.5h244q13 0 21.5 -8.5t8.5 -21.5t-8.5 -21.5t-21.5 -8.5h-244z" />
    <glyph glyph-name="remove" unicode="REMOVE" 
d="M240 450q-13 0 -21.5 8.5t-8.5 21.5t8.5 21.5t21.5 8.5h480q13 0 21.5 -8.5t8.5 -21.5t-8.5 -21.5t-21.5 -8.5h-480z" />
    <glyph glyph-name="do_not_disturb_on" unicode="DO_NOT_DISTURB_ON" 
d="M320 450h320q13 0 21.5 8.5t8.5 21.5t-8.5 21.5t-21.5 8.5h-320q-13 0 -21.5 -8.5t-8.5 -21.5t8.5 -21.5t21.5 -8.5zM480 100q-79 0 -148.5 30t-120.5 81t-81 120.5t-30 148.5t30 148.5t81 120.5t120.5 81t148.5 30t148.5 -30t120.5 -81t81 -120.5t30 -148.5t-30 -148.5
t-81 -120.5t-120.5 -81t-148.5 -30zM480 160q134 0 227 93t93 227t-93 227t-227 93t-227 -93t-93 -227t93 -227t227 -93zM480 480v0v0v0v0v0v0v0v0z" />
    <glyph glyph-name="reply" unicode="REPLY" 
d="M798 210q-13 0 -21.5 8.5t-8.5 21.5v120q0 54 -38 92t-92 38h-392l134 -134q8 -8 8 -20t-9 -21t-21 -9t-21 9l-180 180q-5 5 -7.5 11.5t-2.5 13.5t2.5 13.5t7.5 11.5l181 181q8 8 20 8t21 -9t9 -21t-9 -21l-133 -133h392q79 0 134.5 -55.5t55.5 -134.5v-120
q0 -13 -8.5 -21.5t-21.5 -8.5z" />
    <glyph glyph-name="reply_all" unicode="REPLY_ALL" 
d="M297 315l-180 180q-5 5 -7.5 11.5t-2.5 13.5t2.5 13.5t7.5 11.5l180 180q9 9 21 9t21 -9t9.5 -21t-8.5 -21l-163 -163l163 -163q8 -9 8.5 -21t-8.5 -21t-21.5 -9t-21.5 9zM838 210q-13 0 -21.5 8.5t-8.5 21.5v120q0 54 -38 92t-92 38h-271l133 -133q8 -9 8.5 -21
t-8.5 -21t-21.5 -9t-21.5 9l-180 180q-5 5 -7.5 11.5t-2.5 13.5t2.5 13.5t7.5 11.5l180 180q9 9 21 9t21 -9t9.5 -21t-8.5 -21l-133 -133h271q79 0 134.5 -55.5t55.5 -134.5v-120q0 -13 -8.5 -21.5t-21.5 -8.5z" />
    <glyph glyph-name="report" unicode="REPORT_GMAILERRORRED" 
d="M480 292q14 0 23 9t9 23t-9 23t-23 9t-23 -9t-9 -23t9 -23t23 -9zM480 431q13 0 21.5 8.5t8.5 21.5v181q0 13 -8.5 21.5t-21.5 8.5t-21.5 -8.5t-8.5 -21.5v-181q0 -13 8.5 -21.5t21.5 -8.5zM368 140q-14 0 -27.5 5.5t-23.5 15.5l-156 156q-10 10 -15.5 23.5t-5.5 27.5
v224q0 14 5.5 27.5t15.5 23.5l156 156q10 10 23.5 15.5t27.5 5.5h224q14 0 27.5 -5.5t23.5 -15.5l156 -156q10 -10 15.5 -23.5t5.5 -27.5v-224q0 -14 -5.5 -27.5t-15.5 -23.5l-156 -156q-10 -10 -23.5 -15.5t-27.5 -5.5h-224zM364 200h232l164 164v232l-164 164h-232
l-164 -164v-232zM480 480v0v0v0v0v0v0v0v0z" />
    <glyph glyph-name="save" unicode="SAVE" 
d="M212 140q-30 0 -51 21t-21 51v536q0 30 21 51t51 21h430q14 0 27.5 -5.5t23.5 -15.5l106 -106q10 -10 15.5 -23.5t5.5 -27.5v-430q0 -30 -21 -51t-51 -21h-536zM760 646l-114 114h-434q-5 0 -8.5 -3.5t-3.5 -8.5v-536q0 -5 3.5 -8.5t8.5 -3.5h536q5 0 8.5 3.5t3.5 8.5
v434zM480 269q42 0 71 29.5t29 70.5q0 42 -29 71t-71 29t-71 -29t-29 -71q0 -41 29 -70.5t71 -29.5zM292 565h256q15 0 25.5 10t10.5 26v67q0 16 -10.5 26.5t-25.5 10.5h-256q-16 0 -26.5 -10.5t-10.5 -26.5v-67q0 -16 10.5 -26t26.5 -10zM200 646v-434v-8.5v-3.5v0v3.5v8.5
v536v8.5v3.5v0v-114z" />
    <glyph glyph-name="select_all" unicode="SELECT_ALL" 
d="M140 760q0 25 17.5 42.5t42.5 17.5v-60h-60zM140 440v80h60v-80h-60zM280 140v60h80v-60h-80zM140 600v80h60v-80h-60zM440 760v60h80v-60h-80zM760 760v60q25 0 42.5 -17.5t17.5 -42.5h-60zM200 140q-25 0 -42.5 17.5t-17.5 42.5h60v-60zM140 280v80h60v-80h-60z
M280 760v60h80v-60h-80zM440 140v60h80v-60h-80zM760 440v80h60v-80h-60zM760 140v60h60q0 -25 -17.5 -42.5t-42.5 -17.5zM760 604v80h60v-80h-60zM760 276v80h60v-80h-60zM600 140v60h80v-60h-80zM600 760v60h80v-60h-80zM336 300q-15 0 -25.5 10.5t-10.5 25.5v288
q0 15 10.5 25.5t25.5 10.5h288q15 0 25.5 -10.5t10.5 -25.5v-288q0 -15 -10.5 -25.5t-25.5 -10.5h-288zM360 360h240v240h-240v-240z" />
    <glyph glyph-name="send" unicode="SEND" 
d="M749 446l-558 -235q-18 -7 -34.5 3.5t-16.5 29.5v472q0 19 16.5 29.5t34.5 3.5l558 -235q22 -10 22 -34t-22 -34zM200 280l474 200l-474 200v-148l217 -52l-217 -52v-148zM200 280v200v200v-148v0v-104v0v-148z" />
    <glyph glyph-name="sort" unicode="SORT" 
d="M320 250h-160q-13 0 -21.5 8.5t-8.5 21.5t8.5 21.5t21.5 8.5h160q13 0 21.5 -8.5t8.5 -21.5t-8.5 -21.5t-21.5 -8.5zM800 665h-640q-13 0 -21.5 9t-8.5 21q0 13 8.5 21.5t21.5 8.5h640q13 0 21.5 -8.5t8.5 -21.5q0 -12 -8.5 -21t-21.5 -9zM560 458h-400q-13 0 -21.5 8.5
t-8.5 21.5q0 12 8.5 21t21.5 9h400q13 0 21.5 -9t8.5 -21q0 -13 -8.5 -21.5t-21.5 -8.5z" />
    <glyph glyph-name="text_format" unicode="TEXT_FORMAT" 
d="M240 209q-13 0 -21.5 8.5t-8.5 21.5t8.5 21.5t21.5 8.5h480q13 0 21.5 -8.5t8.5 -21.5t-8.5 -21.5t-21.5 -8.5h-480zM407 527h146l-71 196h-4zM330 365q-17 0 -24.5 11t-1.5 26l136 361q4 11 16 19.5t24 8.5q13 0 24.5 -8.5t15.5 -19.5l135 -361q6 -15 -2 -26t-25 -11
q-7 0 -14 4.5t-9 11.5l-34 96h-182l-35 -96q-3 -7 -9.5 -11.5t-14.5 -4.5z" />
    <glyph glyph-name="undo" unicode="UNDO" 
d="M318 210q-13 0 -21.5 8.5t-8.5 21.5t8.5 21.5t21.5 8.5h244q67 0 116.5 42.5t49.5 107.5t-49.5 107.5t-116.5 42.5h-276l93 -93q8 -8 8.5 -20.5t-8.5 -21.5t-21 -9t-21 9l-140 140q-5 5 -7.5 11.5t-2.5 13.5t2.5 13.5t7.5 11.5l140 140q8 8 20.5 8.5t21.5 -8.5t9 -21
t-9 -21l-93 -93h276q92 0 159 -60t67 -150t-67 -150t-159 -60h-244z" />
    <glyph glyph-name="font_download" unicode="FONT_DOWNLOAD" 
d="M319 248q8 0 16 5.5t12 14.5l36 102h194l36 -102q4 -9 11.5 -14.5t16.5 -5.5q18 0 26 11.5t2 28.5l-149 401q-4 11 -15.5 19t-24.5 8q-12 0 -24 -8t-16 -19l-149 -401q-6 -17 2 -28.5t26 -11.5zM402 424l76 214h4l76 -214h-156zM172 100q-30 0 -51 21t-21 51v616
q0 30 21 51t51 21h616q30 0 51 -21t21 -51v-616q0 -30 -21 -51t-51 -21h-616zM172 160h616q4 0 8 4t4 8v616q0 4 -4 8t-8 4h-616q-4 0 -8 -4t-4 -8v-616q0 -4 4 -8t8 -4zM160 800v0v-4v-8v-616v-8v-4v0v4v8v616v8v4z" />
    <glyph glyph-name="move_to_inbox" unicode="MOVE_TO_INBOX" 
d="M450 529v147q0 13 8.5 21.5t21.5 8.5t21.5 -8.5t8.5 -21.5v-147l52 53q5 4 10.5 6.5t11 2t11.5 -2.5t10 -7q9 -9 9 -21t-9 -21l-100 -100q-5 -5 -11.5 -7.5t-13.5 -2.5t-13.5 2.5t-11.5 7.5l-100 100q-5 4 -7 10t-2 11.5t2 11t7 9.5q9 9 21 9.5t22 -8.5zM212 140
q-30 0 -51 21t-21 51v536q0 30 21 51t51 21h536q30 0 51 -21t21 -51v-536q0 -30 -21 -51t-51 -21h-536zM212 200h536q5 0 8.5 3.5t3.5 8.5v116h-132q-26 -38 -64.5 -59t-83.5 -21t-83.5 21t-64.5 59h-132v-116q0 -5 3.5 -8.5t8.5 -3.5zM480 308q32 0 59.5 16t43.5 44
q5 9 14.5 14.5t20.5 5.5h142v360q0 5 -3.5 8.5t-8.5 3.5h-536q-5 0 -8.5 -3.5t-3.5 -8.5v-360h142q11 0 20.5 -5.5t14.5 -14.5q16 -28 43.5 -44t59.5 -16zM212 200h-8.5h-3.5v0h132h64.5h83.5h83.5h64.5h132v0h-3.5h-8.5h-536z" />
    <glyph glyph-name="unarchive" unicode="UNARCHIVE" 
d="M212 140q-30 0 -51 21t-21 51v465q0 12 3.5 22.5t10.5 19.5l53 64q7 9 18 13t23 4h464q12 0 23 -4t18 -13l52 -64q7 -9 11 -19.5t4 -22.5v-465q0 -30 -21 -51t-51 -21h-536zM216 700h528l-34 40h-460zM212 200h536q4 0 8 4t4 8v428h-560v-428q0 -4 4 -8t8 -4zM480 292
q13 0 21.5 8.5t8.5 21.5v148l53 -53q8 -9 20.5 -9t21.5 9q9 8 9 20.5t-9 21.5l-100 100q-5 5 -11.5 7.5t-13.5 2.5t-13.5 -2.5t-11.5 -7.5l-100 -100q-8 -9 -8.5 -21.5t8.5 -20.5q9 -9 21 -9t21 9l53 53v-148q0 -13 8.5 -21.5t21.5 -8.5zM200 200v4v8v428v0v-428v-8v-4v0z
" />
    <glyph glyph-name="next_week" unicode="NEXT_WEEK" 
d="M461 295l100 100q11 11 11 25t-11 25l-100 100q-8 8 -20.5 8.5t-21.5 -8.5t-9 -21t9 -21l83 -83l-83 -83q-8 -8 -8.5 -20.5t8.5 -21.5t21 -9t21 9zM172 140q-30 0 -51 21t-21 51v416q0 30 21 51t51 21h168v68q0 30 21 51t51 21h136q30 0 51 -21t21 -51v-68h168
q30 0 51 -21t21 -51v-416q0 -30 -21 -51t-51 -21h-616zM400 700h160v68q0 5 -3.5 8.5t-8.5 3.5h-136q-5 0 -8.5 -3.5t-3.5 -8.5v-68zM172 200h616q5 0 8.5 3.5t3.5 8.5v416q0 5 -3.5 8.5t-8.5 3.5h-616q-5 0 -8.5 -3.5t-3.5 -8.5v-416q0 -5 3.5 -8.5t8.5 -3.5zM160 200h12
q-5 0 -8.5 3.5t-3.5 8.5v416q0 5 3.5 8.5t8.5 3.5h-12v-3.5v-8.5v-416v-8.5v-3.5z" />
    <glyph glyph-name="weekend" unicode="WEEKEND" 
d="M160 663q0 42 29 71t71 29h440q42 0 71 -29t29 -71v-72v0q42 0 71 -29t29 -71v-200q0 -42 -29 -71t-71 -29h-640q-42 0 -71 29t-29 71v200q0 42 29 71t71 29v0v72zM220 663v-94q18 -14 29 -34t11 -44v-90h440v90q0 24 11 44t29 34v94q0 17 -11.5 28.5t-28.5 11.5h-440
q-17 0 -28.5 -11.5t-11.5 -28.5zM760 341h-560v150q0 8 -3 15.5t-8.5 13t-13 8.5t-15.5 3q-17 0 -28.5 -11.5t-11.5 -28.5v-200q0 -17 11.5 -28.5t28.5 -11.5h640q17 0 28.5 11.5t11.5 28.5v200q0 17 -11.5 28.5t-28.5 11.5q-8 0 -15.5 -3t-13 -8.5t-8.5 -13t-3 -15.5v-150z
M480 341v0v0v0v0v0v0v0v0v0v0v0v0v0v0v0v0v0v0zM480 251v0v0v0v0v0v0v0v0v0v0v0v0v0v0v0v0v0v0v0v0v0v0zM480 401v0v0v0v0v0v0v0v0v0v0v0v0v0v0z" />
    <glyph glyph-name="delete_sweep" unicode="DELETE_SWEEP" 
d="M628 250q-13 0 -21.5 8.5t-8.5 21.5t8.5 21.5t21.5 8.5h80q12 0 21 -8.5t9 -21.5t-9 -21.5t-21 -8.5h-80zM628 570q-13 0 -21.5 8.5t-8.5 21.5t8.5 21.5t21.5 8.5h200q12 0 21 -8.5t9 -21.5t-9 -21.5t-21 -8.5h-200zM628 410q-13 0 -21.5 8.5t-8.5 21.5t8.5 21.5
t21.5 8.5h160q12 0 21 -8.5t9 -21.5t-9 -21.5t-21 -8.5h-160zM215 220q-31 0 -52 21t-21 51v348h-10q-12 0 -21 8.5t-9 21.5t9 21.5t21 8.5h125v18q0 12 8.5 21t21.5 9h71q12 0 21 -9t9 -21v-18h124q13 0 21.5 -8.5t8.5 -21.5t-8.5 -21.5t-21.5 -8.5h-10v-348q0 -30 -21 -51
t-51 -21h-215zM202 640v-348q0 -4 4 -8t9 -4h215q5 0 8.5 4t3.5 8v348h-240zM202 640v0v-348v-8v-4v0v4v8v348z" />
    <glyph glyph-name="low_priority" unicode="LOW_PRIORITY" 
d="M600 690q-13 0 -21.5 8.5t-8.5 21.5t8.5 21.5t21.5 8.5h240q13 0 21.5 -8.5t8.5 -21.5t-8.5 -21.5t-21.5 -8.5h-240zM600 470q-13 0 -21.5 8.5t-8.5 21.5t8.5 21.5t21.5 8.5h240q13 0 21.5 -8.5t8.5 -21.5t-8.5 -21.5t-21.5 -8.5h-240zM600 250q-13 0 -21.5 8.5
t-8.5 21.5t8.5 21.5t21.5 8.5h240q13 0 21.5 -8.5t8.5 -21.5t-8.5 -21.5t-21.5 -8.5h-240zM312 167q-9 9 -9 21t9 21l41 41h-20q-102 4 -172.5 76.5t-70.5 173.5q0 104 73 177t177 73h97q13 0 21.5 -8.5t8.5 -21.5t-8.5 -21.5t-21.5 -8.5h-97q-79 0 -134.5 -55t-55.5 -134
q0 -77 52.5 -131.5t128.5 -58.5h20l-40 41q-9 8 -9 20t10 21q8 9 20.5 9t21.5 -9l88 -88q5 -5 7.5 -11.5t2.5 -13.5t-2.5 -13.5t-7.5 -11.5l-89 -89q-8 -8 -20 -8t-21 9z" />
    <glyph glyph-name="link_off" unicode="LINK_OFF" 
d="M623 450l-60 60h60q12 0 21 -8.5t9 -21.5t-9 -21.5t-21 -8.5zM756 316l-45 46q38 11 64.5 43.5t26.5 74.5q0 50 -36 86t-86 36h-123q-13 0 -21.5 8.5t-8.5 21.5q0 12 8.5 21t21.5 9h123q75 0 128.5 -52.5t53.5 -129.5q0 -55 -29.5 -98.5t-76.5 -65.5zM784 91l-694 694
q-8 8 -8.5 20.5t8.5 21.5t21.5 9t20.5 -9l694 -694q8 -8 8.5 -20.5t-8.5 -21.5t-21 -9t-21 9zM402 298h-122q-75 0 -128.5 53.5t-53.5 128.5q0 67 43.5 117t107.5 61h10l57 -56h-36q-50 0 -86 -36t-36 -86t36 -86t86 -36h122q13 0 21.5 -8.5t8.5 -21.5q0 -12 -8.5 -21
t-21.5 -9zM467 450h-130q-12 0 -21 8.5t-9 21.5t9 21.5t21 8.5h71z" />
    <glyph glyph-name="report_off" unicode="REPORT_OFF" 
d="M778 295l-44 43l26 26v232l-164 164h-232l-26 -26l-42 43l21 22q10 10 23.5 15.5t27.5 5.5h224q14 0 27.5 -5.5t23.5 -15.5l156 -156q10 -10 15.5 -23.5t5.5 -27.5v-224q0 -14 -4.5 -26.5t-14.5 -22.5zM510 562v80q0 13 -8.5 21.5t-21.5 8.5t-21.5 -8.5t-8.5 -21.5v-20z
M368 140q-14 0 -27.5 6t-23.5 16l-156 157q-10 9 -15.5 22.5t-5.5 28.5v222q0 14 5.5 27.5t15.5 23.5l35 35l-118 119q-8 9 -8.5 21t8.5 22q9 8 21.5 8t20.5 -8l720 -720q8 -8 8 -20.5t-8 -21.5q-9 -8 -21.5 -8t-21.5 8l-119 120l-35 -36q-10 -10 -23.5 -16t-28.5 -6h-223z
M536 536v0v0v0v0v0v0zM364 200h232l40 40l-396 396l-40 -40v-232zM480 292q-14 0 -23 9t-9 23q0 13 9 22.5t23 9.5t23 -9.5t9 -22.5q0 -14 -9 -23t-23 -9zM438 438v0v0v0v0v0v0z" />
    <glyph glyph-name="download" unicode="DOWNLOAD" 
d="M480 350q-7 0 -13.5 2.5t-11.5 8.5l-125 124q-8 8 -8 21t8 21q9 9 21.5 9.5t21.5 -8.5l77 -77v306q0 13 8.5 21.5t21.5 8.5t21.5 -8.5t8.5 -21.5v-306l77 77q8 8 21 8t22 -9q8 -8 8 -20.5t-8 -21.5l-125 -124q-5 -6 -11.5 -8.5t-13.5 -2.5zM252 180q-30 0 -51 21t-21 51
v78q0 13 8.5 21.5t21.5 8.5t21.5 -8.5t8.5 -21.5v-78q0 -4 4 -8t8 -4h456q4 0 8 4t4 8v78q0 13 8.5 21.5t21.5 8.5t21.5 -8.5t8.5 -21.5v-78q0 -30 -21 -51t-51 -21h-456z" />
    <glyph glyph-name="ballot" unicode="BALLOT" 
d="M642 560q13 0 21.5 8.5t8.5 21.5t-8.5 21.5t-21.5 8.5h-132q-13 0 -21.5 -8.5t-8.5 -21.5t8.5 -21.5t21.5 -8.5h132zM642 340q13 0 21.5 8.5t8.5 21.5t-8.5 21.5t-21.5 8.5h-132q-13 0 -21.5 -8.5t-8.5 -21.5t8.5 -21.5t21.5 -8.5h132zM360 525q27 0 46 19t19 46t-19 46
t-46 19t-46 -19t-19 -46t19 -46t46 -19zM360 305q27 0 46 19t19 46t-19 46t-46 19t-46 -19t-19 -46t19 -46t46 -19zM212 140q-30 0 -51 21t-21 51v536q0 30 21 51t51 21h536q30 0 51 -21t21 -51v-536q0 -30 -21 -51t-51 -21h-536zM212 200h536q4 0 8 4t4 8v536q0 4 -4 8
t-8 4h-536q-4 0 -8 -4t-4 -8v-536q0 -4 4 -8t8 -4zM200 760v0v-3.5v-8.5v-536v-8.5v-3.5v0v3.5v8.5v536v8.5v3.5z" />
    <glyph glyph-name="file_copy" unicode="FILE_COPY" 
d="M748 220h-416q-30 0 -51 21t-21 51v536q0 30 21 51t51 21h248q15 0 28 -5.5t23 -15.5l168 -168q10 -10 15.5 -23t5.5 -28v-368q0 -30 -21 -51t-51 -21zM760 660h-132q-20 0 -34 14t-14 34v132h-248q-4 0 -8 -4t-4 -8v-536q0 -4 4 -8t8 -4h416q4 0 8 4t4 8v368zM172 60
q-30 0 -51 21t-21 51v498q0 13 8.5 21.5t21.5 8.5t21.5 -8.5t8.5 -21.5v-498q0 -4 4 -8t8 -4h378q13 0 21.5 -8.5t8.5 -21.5t-8.5 -21.5t-21.5 -8.5h-378zM320 840v0v-180v0v0v0v180v-180v0v0v0v-368v-8v-4v0v4v8v536v8v4z" />
    <glyph glyph-name="how_to_reg" unicode="HOW_TO_REG" 
d="M135 188q-15 0 -25.5 10t-10.5 26v53q0 31 16 55t42 38q51 26 108 42t134 16q30 0 55.5 -2.5t48.5 -7.5l-53 -53q-11 2 -24 2.5t-27 0.5q-71 0 -124.5 -16t-89.5 -36q-14 -7 -20 -17t-6 -22v-29h242l60 -60h-326zM617 173q-7 0 -13.5 2.5t-11.5 7.5l-78 78
q-8 8 -8.5 20.5t8.5 21.5t21 9t21 -9l61 -61l181 181q8 8 20.5 8.5t21.5 -8.5t9 -21t-9 -21l-198 -198q-5 -5 -11.5 -7.5t-13.5 -2.5zM399 492q-58 0 -99 41.5t-41 98.5q0 58 41 99t99 41t99 -41t41 -99q0 -57 -41 -98.5t-99 -41.5zM401 248v0v0v0v0v0v0v0v0v0v0v0v0z
M399 552q33 0 56.5 23.5t23.5 56.5t-23.5 56.5t-56.5 23.5t-56.5 -23.5t-23.5 -56.5t23.5 -56.5t56.5 -23.5zM399 632v0v0v0v0v0v0v0v0z" />
    <glyph glyph-name="how_to_vote" unicode="HOW_TO_VOTE" 
d="M208 95q-31 0 -52 21t-21 52v155l120 135l42 -43l-97 -110h560l-95 108l42 43l118 -133v-155q0 -31 -21 -52t-52 -21h-544zM208 155h544q5 0 9 4t4 9v77h-570v-77q0 -5 4 -9t9 -4zM430 394l-130 131q-21 21 -20.5 51t21.5 51l186 186q21 21 51 21.5t51 -20.5l131 -130
q21 -21 21.5 -50.5t-20.5 -51.5l-189 -188q-21 -21 -51 -21t-51 21zM677 624q3 3 3 8.5t-3 8.5l-130 130q-3 3 -8.5 3t-8.5 -3l-187 -187q-3 -3 -3 -8.5t3 -8.5l130 -130q3 -3 8.5 -3t8.5 3zM195 155v4v9v77v0v-77v-9v-4v0z" />
    <glyph glyph-name="waves" unicode="WAVES" 
d="M90 207q0 10 7.5 18t17.5 11q41 10 72.5 31t92.5 21q36 0 60 -8.5t45.5 -19t43.5 -19.5t51 -9t51 9t43.5 19.5t46 19t59.5 8.5q61 0 92.5 -21t72.5 -31q10 -3 17.5 -10.5t7.5 -18.5q0 -13 -9.5 -22t-21.5 -7q-49 10 -79 31t-80 21q-28 0 -49.5 -8.5t-42.5 -19
t-46.5 -19.5t-61.5 -9t-61.5 9t-46.5 19.5t-42 19t-50 8.5q-50 0 -80 -21t-79 -31q-12 -2 -21.5 7t-9.5 22zM90 373q0 10 7.5 18t17.5 11q41 10 72.5 31t92.5 21q36 0 60 -8.5t45.5 -19t43.5 -19.5t51 -9t51 9t43.5 19.5t46 19t59.5 8.5q61 0 92.5 -21t72.5 -31
q10 -3 17.5 -10.5t7.5 -18.5q0 -14 -9.5 -22.5t-21.5 -6.5q-49 10 -79 31t-80 21q-29 0 -50.5 -8.5t-42.5 -19t-46 -19.5t-61 -9t-61.5 9t-46.5 19.5t-42 19t-50 8.5q-50 0 -80 -21t-79 -31q-12 -2 -21.5 6.5t-9.5 22.5zM90 704q0 10 7.5 18t17.5 12q41 10 72.5 31t92.5 21
q36 0 60 -8.5t45.5 -19t43.5 -19.5t51 -9t51 9t43.5 19.5t46 19t59.5 8.5q61 0 92.5 -21t72.5 -31q10 -4 17.5 -11.5t7.5 -18.5q0 -13 -9.5 -22t-21.5 -6q-49 9 -79 30.5t-80 21.5q-28 0 -49.5 -8.5t-42.5 -19t-46.5 -19.5t-61.5 -9t-61.5 9t-46.5 19.5t-42 19t-50 8.5
q-50 0 -80 -21.5t-79 -30.5q-12 -3 -21.5 6t-9.5 22zM90 539q0 10 7.5 18t17.5 11q41 10 72.5 31t92.5 21q36 0 60 -8.5t45.5 -19t43.5 -19.5t51 -9t51 9t43.5 19.5t46 19t59.5 8.5q61 0 92.5 -21t72.5 -31q10 -3 17.5 -11t7.5 -18q0 -14 -9.5 -22.5t-21.5 -6.5
q-49 9 -79 30.5t-80 21.5q-28 0 -49.5 -8.5t-42.5 -19t-46.5 -19.5t-61.5 -9t-61.5 9t-46.5 19.5t-42 19t-50 8.5q-50 0 -80 -21.5t-79 -30.5q-12 -2 -21.5 6.5t-9.5 22.5z" />
    <glyph glyph-name="where_to_vote" unicode="WHERE_TO_VOTE" 
d="M438 456q7 0 13.5 2.5t11.5 7.5l138 138q9 9 9 21.5t-9 21.5t-21.5 9t-21.5 -9l-120 -120l-35 34q-9 9 -21 9t-21 -9t-9 -21.5t9 -20.5l52 -53q5 -5 11.5 -7.5t13.5 -2.5zM480 168q124 110 187 210.5t63 173.5q0 114 -72.5 186t-177.5 72t-177.5 -72t-72.5 -186
q0 -73 63 -173.5t187 -210.5zM480 102q-7 0 -14 2t-13 7q-142 129 -212.5 239t-70.5 202q0 145 93.5 231.5t216.5 86.5t216.5 -86.5t93.5 -231.5q0 -92 -70.5 -202t-212.5 -239q-6 -5 -13 -7t-14 -2zM480 552v0v0v0v0v0v0v0v0z" />
    <glyph glyph-name="add_link" unicode="ADD_LINK" 
d="M276 298q-76 0 -129 53.5t-53 128.5t53 128.5t129 53.5h122q13 0 21.5 -9t8.5 -21q0 -13 -8.5 -21.5t-21.5 -8.5h-122q-51 0 -86.5 -36t-35.5 -86t35.5 -86t86.5 -36h122q13 0 21.5 -8.5t8.5 -21.5q0 -12 -8.5 -21t-21.5 -9h-122zM356 450q-13 0 -21.5 8.5t-8.5 21.5
t8.5 21.5t21.5 8.5h240q13 0 21.5 -8.5t8.5 -21.5t-8.5 -21.5t-21.5 -8.5h-240zM857 480h-60q0 50 -35.5 86t-85.5 36h-123q-12 0 -21 8.5t-9 21.5q0 12 9 21t21 9h123q75 0 128 -53.5t53 -128.5zM716 170q-13 0 -21.5 8.5t-8.5 21.5v90h-90q-13 0 -21.5 8.5t-8.5 21.5
t8.5 21.5t21.5 8.5h90v90q0 13 8.5 21.5t21.5 8.5t21.5 -8.5t8.5 -21.5v-90h90q13 0 21.5 -8.5t8.5 -21.5t-8.5 -21.5t-21.5 -8.5h-90v-90q0 -13 -8.5 -21.5t-21.5 -8.5z" />
    <glyph glyph-name="inventory" unicode="INVENTORY" 
d="M620 262l206 205q8 9 20.5 9t21.5 -9q9 -8 9 -20.5t-9 -21.5l-223 -222q-11 -11 -25 -11t-25 11l-110 109q-8 9 -8.5 21.5t8.5 20.5q9 9 21 9t21 -9zM212 140q-30 0 -51 21t-21 51v536q0 30 21 51t51 21h177q8 29 33.5 48.5t57.5 19.5q33 0 58.5 -19.5t33.5 -48.5h176
q30 0 51 -21t21 -51v-158q0 -13 -8.5 -21.5t-21.5 -8.5t-21.5 8.5t-8.5 21.5v158q0 4 -4 8t-8 4h-88v-68q0 -16 -10.5 -26.5t-25.5 -10.5h-288q-15 0 -25.5 10.5t-10.5 26.5v68h-88q-4 0 -8 -4t-4 -8v-536q0 -4 4 -8t8 -4h198q13 0 21.5 -8.5t8.5 -21.5t-8.5 -21.5
t-21.5 -8.5h-198zM480 755q15 0 25.5 10.5t10.5 26.5q0 15 -10.5 25.5t-25.5 10.5t-25.5 -10.5t-10.5 -26.5q0 -15 10.5 -25.5t25.5 -10.5z" />
    <glyph glyph-name="mist" unicode="MIST" 
d="M160 210q-13 0 -21.5 8.5t-8.5 21.5t8.5 21.5t21.5 8.5h400q13 0 21.5 -8.5t8.5 -21.5t-8.5 -21.5t-21.5 -8.5h-400zM720 210q-13 0 -21.5 8.5t-8.5 21.5t8.5 21.5t21.5 8.5h80q13 0 21.5 -8.5t8.5 -21.5t-8.5 -21.5t-21.5 -8.5h-80zM160 370q-13 0 -21.5 8.5t-8.5 21.5
t8.5 21.5t21.5 8.5h80q13 0 21.5 -8.5t8.5 -21.5t-8.5 -21.5t-21.5 -8.5h-80zM400 370q-13 0 -21.5 8.5t-8.5 21.5t8.5 21.5t21.5 8.5h400q13 0 21.5 -8.5t8.5 -21.5t-8.5 -21.5t-21.5 -8.5h-400zM160 530q-13 0 -21.5 8.5t-8.5 21.5t8.5 21.5t21.5 8.5h440q13 0 21.5 -8.5
t8.5 -21.5t-8.5 -21.5t-21.5 -8.5h-440zM760 530q-13 0 -21.5 8.5t-8.5 21.5t8.5 21.5t21.5 8.5h40q13 0 21.5 -8.5t8.5 -21.5t-8.5 -21.5t-21.5 -8.5h-40zM160 690q-13 0 -21.5 8.5t-8.5 21.5t8.5 21.5t21.5 8.5h200q13 0 21.5 -8.5t8.5 -21.5t-8.5 -21.5t-21.5 -8.5h-200z
M520 690q-13 0 -21.5 8.5t-8.5 21.5t8.5 21.5t21.5 8.5h280q13 0 21.5 -8.5t8.5 -21.5t-8.5 -21.5t-21.5 -8.5h-280z" />
    <glyph glyph-name="alarm" unicode="ACCESS_ALARMS" 
d="M510 452v158q0 13 -8.5 21.5t-21.5 8.5t-21.5 -8.5t-8.5 -21.5v-167q0 -7 2.5 -13.5t8.5 -12.5l117 -117q8 -8 20.5 -8.5t21.5 8.5t9 21t-9 21zM480 100q-71 0 -132.5 27t-107.5 73t-73 107.5t-27 132.5t27 132.5t73 107.5t107.5 73t132.5 27t132.5 -27t107.5 -73
t73 -107.5t27 -132.5t-27 -132.5t-73 -107.5t-107.5 -73t-132.5 -27zM480 440v0v0v0v0v0v0v0v0zM97 669q-9 8 -9 20.5t9 21.5l112 112q8 9 21 9t21 -9q9 -8 9 -20.5t-9 -21.5l-112 -112q-9 -9 -21.5 -9t-20.5 9zM863 669q-8 -9 -20.5 -9t-21.5 9l-112 112q-9 9 -9 21.5
t9 20.5q8 9 20.5 9t21.5 -9l112 -112q9 -8 9 -21t-9 -21zM480 160q117 0 198.5 81.5t81.5 198.5t-81.5 198.5t-198.5 81.5t-198.5 -81.5t-81.5 -198.5t81.5 -198.5t198.5 -81.5z" />
    <glyph glyph-name="schedule" unicode="ACCESS_TIME_FILLED" 
d="M510 492v158q0 13 -8.5 21.5t-21.5 8.5t-21.5 -8.5t-8.5 -21.5v-167q0 -7 2.5 -13.5t8.5 -12.5l137 -137q8 -8 20.5 -8.5t21.5 8.5t9 21t-9 21zM480 100q-79 0 -148.5 30t-120.5 81t-81 120.5t-30 148.5t30 148.5t81 120.5t120.5 81t148.5 30t148.5 -30t120.5 -81
t81 -120.5t30 -148.5t-30 -148.5t-81 -120.5t-120.5 -81t-148.5 -30zM480 480v0v0v0v0v0v0v0v0zM480 160q133 0 226.5 93.5t93.5 226.5t-93.5 226.5t-226.5 93.5t-226.5 -93.5t-93.5 -226.5t93.5 -226.5t226.5 -93.5z" />
    <glyph glyph-name="alarm_add" unicode="ADD_ALARM" 
d="M450 410v-90q0 -13 8.5 -21.5t21.5 -8.5t21.5 8.5t8.5 21.5v90h90q13 0 21.5 8.5t8.5 21.5t-8.5 21.5t-21.5 8.5h-90v90q0 13 -8.5 21.5t-21.5 8.5t-21.5 -8.5t-8.5 -21.5v-90h-90q-13 0 -21.5 -8.5t-8.5 -21.5t8.5 -21.5t21.5 -8.5h90zM480 100q-71 0 -132.5 27
t-107.5 73t-73 107.5t-27 132.5t27 132.5t73 107.5t107.5 73t132.5 27t132.5 -27t107.5 -73t73 -107.5t27 -132.5t-27 -132.5t-73 -107.5t-107.5 -73t-132.5 -27zM480 440v0v0v0v0v0v0v0v0zM97 669q-9 8 -9 20.5t9 21.5l112 112q8 9 21 9t21 -9q9 -8 9 -20.5t-9 -21.5
l-112 -112q-9 -9 -21.5 -9t-20.5 9zM863 669q-8 -9 -20.5 -9t-21.5 9l-112 112q-9 9 -9 21.5t9 20.5q8 9 20.5 9t21.5 -9l112 -112q9 -8 9 -21t-9 -21zM480 160q117 0 198.5 81.5t81.5 198.5t-81.5 198.5t-198.5 81.5t-198.5 -81.5t-81.5 -198.5t81.5 -198.5t198.5 -81.5z
" />
    <glyph glyph-name="airplanemode_inactive" unicode="AIRPLANEMODE_INACTIVE" 
d="M826 345l-152 45l-249 249v181q0 21 15 35.5t35 14.5q21 0 35.5 -14.5t14.5 -35.5v-225l323 -190q7 -4 12 -13.5t5 -17.5q0 -17 -11.5 -25.5t-27.5 -3.5zM775 96l-250 250v-146l68 -51q5 -4 8.5 -11t3.5 -14q0 -13 -9 -19.5t-22 -3.5l-99 30l-99 -29q-13 -4 -22 3t-9 20
q0 7 3.5 13.5t8.5 10.5l68 50v234l-301 -88q-16 -5 -27.5 3.5t-11.5 25.5q0 9 5.5 18t12.5 13l228 134l-235 236q-8 8 -8.5 20.5t8.5 21.5t21.5 9t20.5 -9l679 -679q8 -8 8.5 -20.5t-8.5 -21.5q-9 -8 -21.5 -8t-20.5 8z" />
    <glyph glyph-name="airplanemode_active" unicode="AIRPLANEMODE_ACTIVE" 
d="M350 93v47l80 59v234l-340 -100v62l340 200v225q0 21 14.5 35.5t35.5 14.5t35.5 -14.5t14.5 -35.5v-225l340 -200v-62l-340 100v-233l80 -60v-47l-130 38z" />
    <glyph glyph-name="tornado" unicode="TORNADO" 
d="M200 820h560q42 0 62.5 -36t-0.5 -72l-280 -484q-20 -36 -62 -36t-62 36l-280 484q-21 36 -0.5 72t62.5 36zM190 742l64 -112h452l64 112q4 6 0.5 12t-10.5 6h-560q-7 0 -10.5 -6t0.5 -12zM289 570l81 -140h220l81 140h-382zM405 370l64 -112q4 -6 11 -6t11 6l64 112
h-150z" />
    <glyph glyph-name="battery_alert" unicode="BATTERY_ALERT" 
d="M480 403q13 0 21.5 8.5t8.5 21.5v160q0 13 -8.5 21.5t-21.5 8.5t-21.5 -8.5t-8.5 -21.5v-160q0 -13 8.5 -21.5t21.5 -8.5zM480 265q15 0 25 10t10 24q0 15 -10 25t-25 10t-25 -10t-10 -25q0 -14 10 -24t25 -10zM334 104q-16 0 -26 10.5t-10 25.5v607q0 16 10 26t26 10h72
v37q0 15 10.5 25.5t25.5 10.5h76q15 0 25.5 -10.5t10.5 -25.5v-37h72q16 0 26 -10t10 -26v-607q0 -15 -10 -25.5t-26 -10.5h-292zM358 164h244v560h-244v-560zM358 164v0h244v0h-244z" />
    <glyph glyph-name="shop_two" unicode="SHOP_TWO" 
d="M480 408q0 -11 9.5 -16t19.5 1l138 87q8 6 8 16t-8 16l-138 88q-10 5 -19.5 0.5t-9.5 -16.5v-176zM132 116q-30 0 -51 21t-21 51v374q0 12 8.5 21t21.5 9t21.5 -9t8.5 -21v-374q0 -5 3.5 -8.5t8.5 -3.5h608q13 0 21.5 -8.5t8.5 -21.5t-8.5 -21.5t-21.5 -8.5h-608z
M272 256q-30 0 -51 21t-21 51v336q0 30 21 51t51 21h134v72q0 30 21 51t51 21h144q30 0 51 -21t21 -51v-72h134q30 0 51 -21t21 -51v-336q0 -30 -21 -51t-51 -21h-556zM466 736h168v72q0 5 -3.5 8.5t-8.5 3.5h-144q-5 0 -8.5 -3.5t-3.5 -8.5v-72zM272 316h556q5 0 8.5 3.5
t3.5 8.5v336q0 5 -3.5 8.5t-8.5 3.5h-556q-5 0 -8.5 -3.5t-3.5 -8.5v-336q0 -5 3.5 -8.5t8.5 -3.5zM260 316v0v3.5v8.5v336v8.5v3.5v0v-3.5v-8.5v-336v-8.5v-3.5z" />
    <glyph glyph-name="priority" unicode="PRIORITY" 
d="M360 140q-92 0 -156 64t-64 156v240q0 92 64 156t156 64h240q92 0 156 -64t64 -156v-240q0 -92 -64 -156t-156 -64h-240zM440 334l226 226l-42 42l-184 -184l-88 88l-42 -42zM360 200h240q66 0 113 47t47 113v240q0 66 -47 113t-113 47h-240q-66 0 -113 -47t-47 -113
v-240q0 -66 47 -113t113 -47zM480 480v0v0v0v0v0v0v0v0v0v0v0v0z" />
    <glyph glyph-name="workspaces" unicode="WORKSPACES_OUTLINE" 
d="M240 135q-60 0 -102.5 42.5t-42.5 102.5t42.5 102.5t102.5 42.5t102.5 -42.5t42.5 -102.5t-42.5 -102.5t-102.5 -42.5zM720 135q-60 0 -102.5 42.5t-42.5 102.5t42.5 102.5t102.5 42.5t102.5 -42.5t42.5 -102.5t-42.5 -102.5t-102.5 -42.5zM240 195q35 0 60 25t25 60
t-25 60t-60 25t-60 -25t-25 -60t25 -60t60 -25zM720 195q35 0 60 25t25 60t-25 60t-60 25t-60 -25t-25 -60t25 -60t60 -25zM480 535q-60 0 -102.5 42.5t-42.5 102.5t42.5 102.5t102.5 42.5t102.5 -42.5t42.5 -102.5t-42.5 -102.5t-102.5 -42.5zM480 595q35 0 60 25t25 60
t-25 60t-60 25t-60 -25t-25 -60t25 -60t60 -25zM480 680v0v0v0v0v0v0v0v0zM720 280v0v0v0v0v0v0v0v0zM240 280v0v0v0v0v0v0v0v0z" />
    <glyph glyph-name="inventory_2" unicode="INVENTORY_&#x32;" 
d="M212 100q-30 0 -51 21t-21 51v437q-16 8 -28 24.5t-12 38.5v96q0 30 21 51t51 21h616q30 0 51 -21t21 -51v-96q0 -22 -12 -38.5t-28 -24.5v-437q0 -30 -21 -51t-51 -21h-536zM200 600v-428q0 -5 3.5 -8.5t8.5 -3.5h536q5 0 8.5 3.5t3.5 8.5v428h-560zM788 660
q5 0 8.5 3.5t3.5 8.5v96q0 5 -3.5 8.5t-8.5 3.5h-616q-5 0 -8.5 -3.5t-3.5 -8.5v-96q0 -5 3.5 -8.5t8.5 -3.5h616zM398 412h164q13 0 21.5 9t8.5 21q0 13 -8.5 21.5t-21.5 8.5h-164q-13 0 -21.5 -8.5t-8.5 -21.5q0 -12 8.5 -21t21.5 -9zM200 160v0v3.5v8.5v428v0v-428v-8.5
v-3.5z" />
    <glyph glyph-name="battery_full" unicode="BATTERY_FULL" 
d="M325 90q-15 0 -25 10t-10 25v630q0 15 10 25t25 10h81v36q0 16 10.5 26t25.5 10h76q15 0 25.5 -10t10.5 -26v-36h81q15 0 25 -10t10 -25v-630q0 -15 -10 -25t-25 -10h-310z" />
    <glyph glyph-name="battery_unknown" unicode="BATTERY_UNKNOWN" 
d="M325 90q-15 0 -25 10t-10 25v630q0 15 10 25t25 10h81v36q0 16 10.5 26t25.5 10h76q15 0 25.5 -10t10.5 -26v-36h81q15 0 25 -10t10 -25v-630q0 -15 -10 -25t-25 -10h-310zM480 250q14 0 24 10t10 24t-10 24.5t-24 10.5t-24 -10.5t-10 -24.5t10 -24t24 -10zM480 370
q9 0 16.5 6t10.5 17q10 44 45.5 65.5t35.5 69.5q0 49 -30 76t-78 27q-34 0 -58 -15.5t-38 -38.5q-5 -8 -1 -18t14 -14q8 -3 16 0.5t14 11.5q8 11 21 19t32 8q32 0 46 -17t14 -37q0 -21 -11.5 -33.5t-25.5 -25.5t-27.5 -30.5t-17.5 -47.5q-2 -9 5 -16t17 -7z" />
    <glyph glyph-name="bluetooth" unicode="BLUETOOTH" 
d="M450 408l-173 -173q-8 -8 -20.5 -8.5t-21.5 8.5t-9 21t9 21l203 203l-203 203q-8 8 -8.5 20.5t8.5 21.5t21 9t21 -9l173 -173v270q0 13 8 21.5t20 8.5q8 0 15.5 -3.5t13.5 -9.5l162 -162q5 -5 7.5 -11.5t2.5 -13.5t-2.5 -13.5t-7.5 -11.5l-147 -147l147 -147
q5 -5 7.5 -11.5t2.5 -13.5t-2.5 -13.5t-7.5 -11.5l-162 -162q-6 -6 -13.5 -9.5t-15.5 -3.5q-12 0 -20 8.5t-8 21.5v270zM510 552l100 100l-100 99v-199zM510 209l100 99l-100 100v-199z" />
    <glyph glyph-name="bluetooth_connected" unicode="BLUETOOTH_CONNECTED" 
d="M208 432q-20 0 -34 14t-14 34t14 34t34 14q19 0 33 -14t14 -34t-14 -34t-33 -14zM752 432q-19 0 -33 14t-14 34t14 34t33 14q20 0 34 -14t14 -34t-14 -34t-34 -14zM450 408l-173 -173q-8 -8 -20.5 -8.5t-21.5 8.5t-9 21t9 21l203 203l-203 203q-8 8 -8.5 20.5t8.5 21.5
t21 9t21 -9l173 -173v270q0 13 8 21.5t20 8.5q8 0 15.5 -3.5t13.5 -9.5l162 -162q5 -5 7.5 -11.5t2.5 -13.5t-2.5 -13.5t-7.5 -11.5l-147 -147l147 -147q5 -5 7.5 -11.5t2.5 -13.5t-2.5 -13.5t-7.5 -11.5l-162 -162q-6 -6 -13.5 -9.5t-15.5 -3.5q-12 0 -20 8.5t-8 21.5v270z
M510 552l100 100l-100 99v-199zM510 209l100 99l-100 100v-199z" />
    <glyph glyph-name="bluetooth_disabled" unicode="BLUETOOTH_DISABLED" 
d="M796 87l-161 162l-128 -128q-6 -6 -13.5 -9.5t-15.5 -3.5q-12 0 -20 8.5t-8 21.5v270l-173 -173q-8 -8 -20.5 -8.5t-21.5 8.5t-9 21t9 21l186 186l-312 311q-8 8 -8 20.5t8 21.5q9 9 21.5 9t21.5 -9l686 -687q9 -8 9 -20.5t-9 -21.5q-8 -9 -20.5 -9t-21.5 9zM510 209
l81 82l-81 81v-163zM559 516l-43 43l94 93l-100 99v-186l-60 60v197q0 13 8 21.5t20 8.5q8 0 15.5 -3.5t13.5 -9.5l162 -162q5 -5 7.5 -11.5t2.5 -13.5t-2.5 -13.5t-7.5 -11.5z" />
    <glyph glyph-name="brightness_auto" unicode="BRIGHTNESS_AUTO" 
d="M450 659l-118 -306q-5 -12 2 -22.5t20 -10.5q8 0 14 4.5t8 11.5l31 82h148l31 -83q2 -7 8 -11t14 -4q12 0 19 10t3 22l-119 307q-4 10 -12.5 15.5t-18.5 5.5q-9 0 -17.5 -5.5t-12.5 -15.5zM422 460l56 156h4l57 -156h-117zM354 180h-102q-30 0 -51 21t-21 51v102l-74 75
q-21 21 -21 51t21 51l74 75v102q0 30 21 51t51 21h102l75 74q21 21 51 21t51 -21l75 -74h102q30 0 51 -21t21 -51v-102l74 -75q21 -21 21 -51t-21 -51l-74 -75v-102q0 -30 -21 -51t-51 -21h-102l-75 -74q-21 -21 -51 -21t-51 21zM480 480v0v0v0v0v0v0v0v0v0v0v0v0v0v0v0v0z
M480 140l100 100h140v140l100 100l-100 100v140h-140l-100 100l-100 -100h-140v-140l-100 -100l100 -100v-140h140z" />
    <glyph glyph-name="brightness_high" unicode="BRIGHTNESS_HIGH" 
d="M354 180h-102q-30 0 -51 21t-21 51v102l-74 75q-21 21 -21 51t21 51l74 75v102q0 30 21 51t51 21h102l75 74q21 21 51 21t51 -21l75 -74h102q30 0 51 -21t21 -51v-102l74 -75q21 -21 21 -51t-21 -51l-74 -75v-102q0 -30 -21 -51t-51 -21h-102l-75 -74q-21 -21 -51 -21
t-51 21zM480 295q77 0 131 54t54 131t-54 131t-131 54t-131 -54t-54 -131t54 -131t131 -54zM480 480v0v0v0v0v0v0v0v0v0v0v0v0v0v0v0v0zM480 355q52 0 88.5 36.5t36.5 88.5t-36.5 88.5t-88.5 36.5t-88.5 -36.5t-36.5 -88.5t36.5 -88.5t88.5 -36.5zM480 140l100 100h140v140
l100 100l-100 100v140h-140l-100 100l-100 -100h-140v-140l-100 -100l100 -100v-140h140zM480 355q52 0 88.5 36.5t36.5 88.5t-36.5 88.5t-88.5 36.5t-88.5 -36.5t-36.5 -88.5t36.5 -88.5t88.5 -36.5z" />
    <glyph glyph-name="brightness_low" unicode="BRIGHTNESS_LOW" 
d="M354 180h-102q-30 0 -51 21t-21 51v102l-74 75q-21 21 -21 51t21 51l74 75v102q0 30 21 51t51 21h102l75 74q21 21 51 21t51 -21l75 -74h102q30 0 51 -21t21 -51v-102l74 -75q21 -21 21 -51t-21 -51l-74 -75v-102q0 -30 -21 -51t-51 -21h-102l-75 -74q-21 -21 -51 -21
t-51 21zM480 295q-77 0 -131 54t-54 131t54 131t131 54t131 -54t54 -131t-54 -131t-131 -54zM480 355q52 0 88.5 36.5t36.5 88.5t-36.5 88.5t-88.5 36.5t-88.5 -36.5t-36.5 -88.5t36.5 -88.5t88.5 -36.5zM480 140l100 100h140v140l100 100l-100 100v140h-140l-100 100
l-100 -100h-140v-140l-100 -100l100 -100v-140h140zM480 480v0v0v0v0v0v0v0v0z" />
    <glyph glyph-name="brightness_medium" unicode="BRIGHTNESS_MEDIUM" 
d="M354 180h-102q-30 0 -51 21t-21 51v102l-74 75q-21 21 -21 51t21 51l74 75v102q0 30 21 51t51 21h102l75 74q21 21 51 21t51 -21l75 -74h102q30 0 51 -21t21 -51v-102l74 -75q21 -21 21 -51t-21 -51l-74 -75v-102q0 -30 -21 -51t-51 -21h-102l-75 -74q-21 -21 -51 -21
t-51 21zM480 480v0v0v0v0v0v0v0v0v0v0v0v0v0v0v0v0zM480 295q76 0 130.5 54t54.5 131t-54 131t-131 54v-370zM480 140l100 100h140v140l100 100l-100 100v140h-140l-100 100l-100 -100h-140v-140l-100 -100l100 -100v-140h140z" />
    <glyph glyph-name="data_usage" unicode="DATA_SAVER_OFF" 
d="M480 100q-79 0 -148 30t-120.5 81.5t-81.5 120.5t-30 148q0 147 97 255t243 123v-85q-111 -14 -183 -97.5t-72 -195.5q0 -124 85.5 -209.5t209.5 -85.5q69 0 130 29t104 83l73 -43q-55 -73 -135 -113.5t-172 -40.5zM828 328l-73 42q11 27 15.5 54.5t4.5 55.5
q0 112 -72 195.5t-183 97.5v85q146 -14 243 -122.5t97 -255.5q0 -39 -7 -77.5t-25 -74.5z" />
    <glyph glyph-name="developer_mode" unicode="DEVELOPER_MODE" 
d="M260 480l105 -105q9 -9 9 -21t-9 -21t-21 -9.5t-22 8.5l-122 123q-11 11 -11 25t11 25l122 123q9 9 21.5 8.5t21.5 -9.5t9 -21t-9 -21zM220 280h60v-50h400v50h60v-148q0 -30 -21 -51t-51 -21h-376q-30 0 -51 21t-21 51v148zM280 680h-60v148q0 30 21 51t51 21h376
q30 0 51 -21t21 -51v-148h-60v50h-400v-50zM280 170v-38q0 -4 4 -8t8 -4h376q4 0 8 4t4 8v38h-400zM280 790h400v38q0 4 -4 8t-8 4h-376q-4 0 -8 -4t-4 -8v-38zM700 480l-105 105q-9 9 -9 21t9 21t21 9.5t22 -8.5l122 -123q11 -11 11 -25t-11 -25l-122 -123
q-9 -9 -21.5 -8.5t-21.5 9.5t-9 21t9 21zM280 790v38v8v4v0v-4v-8v-38v0zM280 170v0v-38v-8v-4v0v4v8v38z" />
    <glyph glyph-name="devices" unicode="DEVICES" 
d="M180 275v433q0 31 21 52t51 21h548q12 0 21 -8.5t9 -21.5t-9 -21.5t-21 -8.5h-548q-5 0 -8.5 -3.5t-3.5 -9.5v-433h185q18 0 31.5 -13.5t13.5 -31.5q0 -19 -13.5 -32t-31.5 -13h-280q-19 0 -32 13t-13 32q0 18 13 31.5t32 13.5h35zM616 185q-15 0 -25.5 10t-10.5 25v370
q0 15 10.5 25t25.5 10h209q15 0 25 -10t10 -25v-370q0 -15 -10 -25t-25 -10h-209zM640 275h160v290h-160v-290z" />
    <glyph glyph-name="dvr" unicode="DVR" 
d="M280 408q14 0 23 9t9 23t-9 23t-23 9t-23 -9t-9 -23t9 -23t23 -9zM280 568q14 0 23 9t9 23t-9 23t-23 9t-23 -9t-9 -23t9 -23t23 -9zM392 410h288q13 0 21.5 8.5t8.5 21.5t-8.5 21.5t-21.5 8.5h-288q-12 0 -21 -8.5t-9 -21.5t9 -21.5t21 -8.5zM392 570h288q13 0 21.5 8.5
t8.5 21.5t-8.5 21.5t-21.5 8.5h-288q-12 0 -21 -8.5t-9 -21.5t9 -21.5t21 -8.5zM172 220q-30 0 -51 21t-21 51v456q0 30 21 51t51 21h616q30 0 51 -21t21 -51v-456q0 -30 -21 -51t-51 -21h-168v-44q0 -15 -10.5 -25.5t-25.5 -10.5h-208q-15 0 -25.5 10.5t-10.5 25.5v44h-168
zM172 280h616q4 0 8 4t4 8v456q0 4 -4 8t-8 4h-616q-4 0 -8 -4t-4 -8v-456q0 -4 4 -8t8 -4zM160 280v4v8v456v8v4v0v-4v-8v-456v-8v-4v0z" />
    <glyph glyph-name="location_searching" unicode="GPS_NOT_FIXED" 
d="M480 72q-13 0 -21.5 8.5t-8.5 21.5v39q-125 13 -210.5 98.5t-98.5 210.5h-39q-13 0 -21.5 8.5t-8.5 21.5t8.5 21.5t21.5 8.5h39q13 125 98.5 210.5t210.5 98.5v39q0 13 8.5 21.5t21.5 8.5t21.5 -8.5t8.5 -21.5v-39q125 -13 210.5 -98.5t98.5 -210.5h39q13 0 21.5 -8.5
t8.5 -21.5t-8.5 -21.5t-21.5 -8.5h-39q-13 -125 -98.5 -210.5t-210.5 -98.5v-39q0 -13 -8.5 -21.5t-21.5 -8.5zM480 200q116 0 198 82t82 198t-82 198t-198 82t-198 -82t-82 -198t82 -198t198 -82z" />
    <glyph glyph-name="location_disabled" unicode="GPS_OFF" 
d="M768 300l-44 43q17 30 26.5 65.5t9.5 71.5q0 116 -82 198t-198 82q-36 0 -71 -9.5t-65 -26.5l-44 44q35 21 71.5 33.5t78.5 17.5v39q0 13 8.5 21.5t21.5 8.5t21.5 -8.5t8.5 -21.5v-39q125 -13 210.5 -98.5t98.5 -210.5h39q13 0 21.5 -8.5t8.5 -21.5t-8.5 -21.5
t-21.5 -8.5h-39q-5 -42 -17.5 -78.5t-33.5 -71.5zM480 72q-13 0 -21.5 8.5t-8.5 21.5v39q-125 13 -210.5 98.5t-98.5 210.5h-39q-13 0 -21.5 8.5t-8.5 21.5t8.5 21.5t21.5 8.5h39q5 47 20.5 88t39.5 76l-93 94q-8 8 -8.5 20.5t8.5 21.5t21 9t21 -9l659 -659q9 -9 9 -21
t-9 -21t-21.5 -9t-21.5 9l-92 92q-35 -24 -76 -39.5t-88 -20.5v-39q0 -13 -8.5 -21.5t-21.5 -8.5zM480 200q41 0 81 12.5t70 32.5l-386 386q-20 -30 -32.5 -69.5t-12.5 -81.5q0 -116 82 -198t198 -82z" />
    <glyph glyph-name="graphic_eq" unicode="GRAPHIC_EQ" 
d="M320 250q-13 0 -21.5 8.5t-8.5 21.5v400q0 13 8.5 21.5t21.5 8.5t21.5 -8.5t8.5 -21.5v-400q0 -13 -8.5 -21.5t-21.5 -8.5zM480 90q-13 0 -21.5 8.5t-8.5 21.5v720q0 13 8.5 21.5t21.5 8.5t21.5 -8.5t8.5 -21.5v-720q0 -13 -8.5 -21.5t-21.5 -8.5zM160 410
q-13 0 -21.5 8.5t-8.5 21.5v80q0 13 8.5 21.5t21.5 8.5t21.5 -8.5t8.5 -21.5v-80q0 -13 -8.5 -21.5t-21.5 -8.5zM640 250q-13 0 -21.5 8.5t-8.5 21.5v400q0 13 8.5 21.5t21.5 8.5t21.5 -8.5t8.5 -21.5v-400q0 -13 -8.5 -21.5t-21.5 -8.5zM800 410q-13 0 -21.5 8.5t-8.5 21.5
v80q0 13 8.5 21.5t21.5 8.5t21.5 -8.5t8.5 -21.5v-80q0 -13 -8.5 -21.5t-21.5 -8.5z" />
    <glyph glyph-name="network_cell" unicode="NETWORK_CELL" 
d="M202 100q-25 0 -34 22t8 39l608 609q17 17 39.5 7.5t22.5 -33.5v-608q0 -15 -10.5 -25.5t-25.5 -10.5h-608zM666 160h120v527l-120 -120v-407z" />
    <glyph glyph-name="network_wifi" unicode="NETWORK_WIFI" 
d="M480 164q-7 0 -13.5 2t-11.5 8l-402 401q-10 11 -9.5 25.5t11.5 23.5q88 77 196.5 116.5t228.5 39.5t228.5 -39.5t196.5 -116.5q11 -9 11.5 -23.5t-9.5 -25.5l-402 -401q-5 -6 -11.5 -8t-13.5 -2zM174 540q65 47 142.5 73.5t163.5 26.5t163.5 -26.5t142.5 -73.5l58 58
q-78 59 -170.5 90.5t-193.5 31.5t-193.5 -31.5t-170.5 -90.5z" />
    <glyph glyph-name="nfc" unicode="NFC" 
d="M624 300q15 0 25.5 10.5t10.5 25.5v288q0 15 -10.5 25.5t-25.5 10.5h-114q-25 0 -42.5 -17.5t-17.5 -42.5v-67q-15 -8 -23.5 -21t-8.5 -32q0 -26 18 -44t44 -18q25 0 43.5 18t18.5 44q0 19 -9.5 32t-22.5 21v67h90v-240h-240v240h10q13 0 21.5 8.5t8.5 21.5t-8.5 21.5
t-21.5 8.5h-34q-15 0 -25.5 -10.5t-10.5 -25.5v-288q0 -15 10.5 -25.5t25.5 -10.5h288zM212 140q-30 0 -51 21t-21 51v536q0 30 21 51t51 21h536q30 0 51 -21t21 -51v-536q0 -30 -21 -51t-51 -21h-536zM212 200h536q4 0 8 4t4 8v536q0 4 -4 8t-8 4h-536q-4 0 -8 -4t-4 -8
v-536q0 -4 4 -8t8 -4zM200 760v0v-3.5v-8.5v-536v-8.5v-3.5v0v3.5v8.5v536v8.5v3.5z" />
    <glyph glyph-name="wallpaper" unicode="WALLPAPER" 
d="M212 140q-30 0 -51 21t-21 51v198q0 13 8.5 21.5t21.5 8.5t21.5 -8.5t8.5 -21.5v-198q0 -4 4 -8t8 -4h198q13 0 21.5 -8.5t8.5 -21.5t-8.5 -21.5t-21.5 -8.5h-198zM748 140h-198q-13 0 -21.5 8.5t-8.5 21.5t8.5 21.5t21.5 8.5h198q4 0 8 4t4 8v198q0 13 8.5 21.5
t21.5 8.5t21.5 -8.5t8.5 -21.5v-198q0 -30 -21 -51t-51 -21zM449 319l98 128q6 7 14.5 7t14.5 -7l95 -128q7 -9 2 -19t-16 -10h-351q-11 0 -16 10t2 19l63 84q6 7 14.5 7t14.5 -7zM140 748q0 30 21 51t51 21h198q13 0 21.5 -8.5t8.5 -21.5t-8.5 -21.5t-21.5 -8.5h-198
q-4 0 -8 -4t-4 -8v-198q0 -13 -8.5 -21.5t-21.5 -8.5t-21.5 8.5t-8.5 21.5v198zM820 748v-198q0 -13 -8.5 -21.5t-21.5 -8.5t-21.5 8.5t-8.5 21.5v198q0 4 -4 8t-8 4h-198q-13 0 -21.5 8.5t-8.5 21.5t8.5 21.5t21.5 8.5h198q30 0 51 -21t21 -51zM616 564q-22 0 -37 15
t-15 37q0 23 15 37.5t37 14.5q23 0 37.5 -14.5t14.5 -37.5q0 -22 -14.5 -37t-37.5 -15z" />
    <glyph glyph-name="widgets" unicode="WIDGETS" 
d="M659 476q-7 0 -13.5 2t-11.5 8l-147 147q-6 6 -8 12t-2 13q0 8 2 14t8 12l147 147q5 5 11.5 7.5t13.5 2.5t13.5 -2.5t11.5 -7.5l147 -147q6 -6 8.5 -12.5t2.5 -13.5t-2.5 -13t-8.5 -12l-147 -147q-5 -6 -11.5 -8t-13.5 -2zM188 528q-15 0 -25.5 10t-10.5 26v208
q0 15 10.5 25.5t25.5 10.5h208q16 0 26 -10.5t10 -25.5v-208q0 -16 -10 -26t-26 -10h-208zM564 152q-16 0 -26 10.5t-10 25.5v208q0 16 10 26t26 10h208q15 0 25.5 -10t10.5 -26v-208q0 -15 -10.5 -25.5t-25.5 -10.5h-208zM188 152q-15 0 -25.5 10.5t-10.5 25.5v208
q0 16 10.5 26t25.5 10h208q16 0 26 -10t10 -26v-208q0 -15 -10 -25.5t-26 -10.5h-208zM212 588h160v160h-160v-160zM660 544l113 113l-113 113l-113 -113zM588 212h160v160h-160v-160zM212 212h160v160h-160v-160zM372 588v0v0v0v0zM547 657v0v0v0v0zM372 372v0v0v0v0z
M588 372v0v0v0v0z" />
    <glyph glyph-name="screen_lock_landscape" unicode="SCREEN_LOCK_LANDSCAPE" 
d="M399 327q-14 0 -24 10t-10 25v121q0 14 10 24.5t24 10.5h6v40q0 31 22 53t53 22q32 0 54 -22t22 -53v-40h5q14 0 24 -10.5t10 -24.5v-121q0 -15 -10 -25t-24 -10h-162zM440 518h80v40q0 17 -11.5 28.5t-28.5 11.5t-28.5 -11.5t-11.5 -28.5v-40zM132 220q-30 0 -51 21
t-21 51v376q0 30 21 51t51 21h696q30 0 51 -21t21 -51v-376q0 -30 -21 -51t-51 -21h-696zM170 280v400h-38q-4 0 -8 -4t-4 -8v-376q0 -4 4 -8t8 -4h38zM230 280h500v400h-500v-400zM790 280h38q4 0 8 4t4 8v376q0 4 -4 8t-8 4h-38v-400zM170 680h-38h-8h-4v0h4h8h38v0z
M790 680v0h38h8h4v0h-4h-8h-38z" />
    <glyph glyph-name="screen_lock_portrait" unicode="SCREEN_LOCK_PORTRAIT" 
d="M399 327q-14 0 -24 10t-10 25v121q0 14 10 24.5t24 10.5h6v40q0 31 22 53t53 22q32 0 54 -22t22 -53v-40h5q14 0 24 -10.5t10 -24.5v-121q0 -15 -10 -25t-24 -10h-162zM440 518h80v40q0 17 -11.5 28.5t-28.5 11.5t-28.5 -11.5t-11.5 -28.5v-40zM292 60q-30 0 -51 21
t-21 51v696q0 30 21 51t51 21h376q30 0 51 -21t21 -51v-696q0 -30 -21 -51t-51 -21h-376zM280 170v-38q0 -4 4 -8t8 -4h376q4 0 8 4t4 8v38h-400zM280 230h400v500h-400v-500zM280 790h400v38q0 4 -4 8t-8 4h-376q-4 0 -8 -4t-4 -8v-38zM280 790v38v8v4v0v-4v-8v-38v0z
M280 170v0v-38v-8v-4v0v4v8v38z" />
    <glyph glyph-name="screen_lock_rotation" unicode="SCREEN_LOCK_ROTATION" 
d="M635 600q-14 0 -24.5 10.5t-10.5 24.5v121q0 14 10.5 24.5t24.5 10.5h5v40q0 31 22 53t54 22q31 0 53 -22t22 -53v-40h6q14 0 24 -10.5t10 -24.5v-121q0 -14 -10.5 -24.5t-24.5 -10.5h-161zM676 791h80v40q0 17 -11.5 28.5t-28.5 11.5t-28.5 -11.5t-11.5 -28.5v-40z
M470 123l-101 101q-8 8 -8 20.5t8 21.5q9 9 21.5 9t21.5 -9l164 -165q11 -10 6.5 -23.5t-19.5 -15.5q-11 -2 -22 -2.5t-23 -0.5q-94 0 -178 36t-146.5 98.5t-99 146.5t-36.5 179q0 13 9 21.5t21 8.5q13 0 21.5 -8.5t8.5 -21.5q0 -76 27.5 -144t75 -121t111.5 -87.5
t138 -43.5zM708 495l42 42l43 -43q20 -20 20 -49t-20 -50l-151 -150q-20 -21 -49 -21t-50 21l-299 299q-21 21 -21 50t21 50l150 150q20 21 49.5 21t49.5 -21l44 -44l-41 -44l-44 44q-3 4 -8.5 4t-8.5 -4l-148 -147q-4 -4 -4 -9t4 -9l297 -297q3 -3 8.5 -3t9.5 3l147 148
q4 3 4 8.5t-4 9.5zM518 519v0v0v0v0v0v0v0v0v0v0v0v0v0v0v0v0v0z" />
    <glyph glyph-name="screen_rotation" unicode="SCREEN_ROTATION" 
d="M504 206l-299 299q-21 21 -21 50t21 50l150 150q21 21 50 21t50 -21l299 -299q21 -22 21 -50.5t-21 -49.5l-150 -150q-21 -21 -49.5 -21t-50.5 21zM545 249q4 -3 9.5 -3t8.5 3l148 148q3 3 3 8.5t-3 9.5l-297 297q-4 3 -9 3t-9 -3l-148 -148q-3 -4 -3 -9t3 -9zM480 480v0
v0v0v0v0v0v0v0v0v0v0v0zM529 876l100 -101q8 -8 8.5 -20.5t-8.5 -21.5t-21 -9t-21 9l-165 165q-11 11 -6 24t19 15q12 2 22.5 2.5t22.5 0.5q95 0 178.5 -36t146.5 -99t99 -146.5t36 -178.5q0 -13 -8.5 -21.5t-21.5 -8.5t-21.5 8.5t-8.5 21.5q0 76 -27 144t-74 120.5t-111 87
t-139 44.5zM431 84l-100 101q-8 8 -8.5 20.5t8.5 21.5t21 9t21 -9l165 -165q11 -11 6 -24t-19 -15q-12 -2 -22.5 -2.5t-22.5 -0.5q-95 0 -179 36t-146.5 98.5t-98.5 146.5t-36 179q0 13 8.5 21.5t21.5 8.5t21.5 -8.5t8.5 -21.5q0 -76 27 -144t74 -120.5t111 -87t139 -44.5z
" />
    <glyph glyph-name="sd_card" unicode="SD_STORAGE" 
d="M402 525q12 0 21 8.5t9 21.5v88q0 13 -9 21.5t-21 8.5q-13 0 -21.5 -8.5t-8.5 -21.5v-88q0 -13 8.5 -21.5t21.5 -8.5zM518 525q12 0 21 8.5t9 21.5v88q0 13 -9 21.5t-21 8.5q-13 0 -21.5 -8.5t-8.5 -21.5v-88q0 -13 8.5 -21.5t21.5 -8.5zM634 525q13 0 21.5 8.5t8.5 21.5
v88q0 13 -8.5 21.5t-21.5 8.5t-21.5 -8.5t-8.5 -21.5v-88q0 -13 8.5 -21.5t21.5 -8.5zM252 100q-30 0 -51 21t-21 51v430q0 14 5.5 27.5t15.5 23.5l186 186q10 10 23.5 15.5t27.5 5.5h270q30 0 51 -21t21 -51v-616q0 -30 -21 -51t-51 -21h-456zM252 160h456q4 0 8 4t4 8v616
q0 4 -4 8t-8 4h-274l-194 -194v-434q0 -4 4 -8t8 -4zM252 160h-8h-4v0h194h274h8h4v0h-4h-8h-456z" />
    <glyph glyph-name="settings_system_daydream" unicode="SETTINGS_SYSTEM_DAYDREAM" 
d="M363 342h260q34 0 57 23t23 57q0 33 -23 56.5t-57 23.5h-11q-5 50 -38.5 85t-82.5 35q-41 0 -74.5 -21.5t-47.5 -58.5h-13q-40 0 -66.5 -29.5t-26.5 -70.5q0 -42 29 -71t71 -29zM363 402q-17 0 -28.5 11.5t-11.5 28.5t11.5 28.5t28.5 11.5h51v10q0 29 21 49.5t52 20.5
t51.5 -23.5t20.5 -55.5v-41h64q8 0 14 -6t6 -14t-6 -14t-14 -6h-260zM172 180q-30 0 -51 21t-21 51v456q0 30 21 51t51 21h616q30 0 51 -21t21 -51v-456q0 -30 -21 -51t-51 -21h-616zM172 240h616q4 0 8 4t4 8v456q0 4 -4 8t-8 4h-616q-4 0 -8 -4t-4 -8v-456q0 -4 4 -8t8 -4
zM160 240v4v8v456v8v4v0v-4v-8v-456v-8v-4v0z" />
    <glyph glyph-name="edit_location_alt" unicode="EDIT_LOCATION_ALT" 
d="M458 538h59l230 229l-60 60l-229 -230v-59zM775 795l25 25q9 9 9.5 21t-8.5 21l-19 19q-9 9 -21 8.5t-21 -9.5l-25 -25zM480 102q-7 0 -14 2t-13 7q-142 129 -212.5 239t-70.5 202q0 145 93.5 231.5t216.5 86.5q30 0 59 -6t56 -16l-48 -49q-16 6 -32.5 8.5t-34.5 2.5
q-105 0 -177.5 -72t-72.5 -186q0 -73 63 -173.5t187 -210.5q124 110 187 210.5t63 173.5q0 20 -3 38.5t-9 34.5l49 49q11 -28 17 -58.5t6 -63.5q0 -92 -70.5 -202t-212.5 -239q-6 -5 -13 -7t-14 -2zM480 489v0v0v0v0v0v0v0v0v0v0v0v0v0v0v0v0v0v0v0v0z" />
    <glyph glyph-name="wb_twilight" unicode="WB_TWILIGHT" 
d="M783 661q8 -9 8 -21.5t-8 -20.5l-35 -35q-9 -9 -21 -9t-22 9q-9 9 -8.5 21t9.5 22l35 34q9 9 21 8.5t21 -8.5zM120 170q-13 0 -21.5 8.5t-8.5 21.5t8.5 21.5t21.5 8.5h720q13 0 21.5 -8.5t8.5 -21.5t-8.5 -21.5t-21.5 -8.5h-720zM480 783q13 0 21.5 -8.5t8.5 -21.5v-48
q0 -12 -8.5 -21t-21.5 -9t-21.5 9t-8.5 21v48q0 13 8.5 21.5t21.5 8.5zM178 662q9 9 21.5 9t21.5 -9l34 -35q9 -9 9.5 -21t-9.5 -22q-9 -8 -21.5 -8t-20.5 9l-35 35q-8 9 -8 21t8 21zM297 400h366q-23 54 -72 87t-111 33t-111 -33t-72 -87zM222 340q7 102 81 171t177 69
t177 -69t81 -171h-516zM480 400v0v0v0v0v0z" />
    <glyph glyph-name="signal_cellular_4_bar" unicode="SIGNAL_CELLULAR_&#x34;_BAR" 
d="M202 100q-25 0 -34 22t8 39l608 609q17 17 39.5 7.5t22.5 -33.5v-608q0 -15 -10.5 -25.5t-25.5 -10.5h-608z" />
    <glyph glyph-name="outbound" unicode="OUTBOUND" 
d="M570 528v-74q0 -13 8.5 -21.5t21.5 -8.5t21.5 8.5t8.5 21.5v140q0 15 -10.5 25.5t-25.5 10.5h-140q-13 0 -21.5 -8.5t-8.5 -21.5t8.5 -21.5t21.5 -8.5h73l-192 -192q-8 -9 -8 -21t8 -21q9 -9 21.5 -9t21.5 9zM480 100q-79 0 -148.5 30t-120.5 81t-81 120.5t-30 148.5
t30 148.5t81 120.5t120.5 81t148.5 30t148.5 -30t120.5 -81t81 -120.5t30 -148.5t-30 -148.5t-81 -120.5t-120.5 -81t-148.5 -30zM480 160q134 0 227 93t93 227t-93 227t-227 93t-227 -93t-93 -227t93 -227t227 -93zM480 480v0v0v0v0v0v0v0v0z" />
    <glyph glyph-name="social_distance" unicode="SOCIAL_DISTANCE" 
d="M245 682q-29 0 -49.5 20.5t-20.5 49.5t20.5 49.5t49.5 20.5q30 0 50 -20.5t20 -49.5t-20 -49.5t-50 -20.5zM95 530v15q0 20 11.5 37t31.5 26q25 11 52 16.5t55 5.5q29 0 56 -5.5t52 -16.5q19 -9 30.5 -26t11.5 -37v-15h-300zM715 682q-30 0 -50 20.5t-20 49.5t20 49.5
t50 20.5q29 0 49.5 -20.5t20.5 -49.5t-20.5 -49.5t-49.5 -20.5zM565 530v15q0 20 11.5 37t30.5 26q25 11 52 16.5t56 5.5q28 0 55 -5.5t52 -16.5q20 -9 31.5 -26t11.5 -37v-15h-300zM223 163l-100 99q-5 6 -7.5 12t-2.5 14q0 7 2.5 13t7.5 12l101 100q8 9 20 9t21 -9
q8 -9 8 -21.5t-8 -20.5l-53 -53h536l-54 54q-8 8 -8 19.5t9 21.5q9 8 21.5 8t20.5 -8l100 -100q5 -6 7.5 -12t2.5 -13q0 -8 -2.5 -14t-7.5 -12l-101 -100q-8 -8 -19.5 -8t-21.5 9q-8 8 -8 20.5t8 21.5l53 53h-536l54 -54q8 -9 8 -20.5t-9 -20.5q-8 -8 -21 -8t-21 8z" />
    <glyph glyph-name="safety_divider" unicode="SAFETY_DIVIDER" 
d="M480 210q-13 0 -21.5 8.5t-8.5 21.5v480q0 13 8.5 21.5t21.5 8.5t21.5 -8.5t8.5 -21.5v-480q0 -13 -8.5 -21.5t-21.5 -8.5zM200 490q-29 0 -49.5 20.5t-20.5 49.5t20.5 49.5t49.5 20.5t49.5 -20.5t20.5 -49.5t-20.5 -49.5t-49.5 -20.5zM50 330v15q0 20 11.5 37t31.5 26
q25 11 51.5 16.5t55.5 5.5t55.5 -5.5t51.5 -16.5q20 -9 31.5 -26t11.5 -37v-15h-300zM760 490q-29 0 -49.5 20.5t-20.5 49.5t20.5 49.5t49.5 20.5t49.5 -20.5t20.5 -49.5t-20.5 -49.5t-49.5 -20.5zM610 330v15q0 20 11.5 37t31.5 26q25 11 51.5 16.5t55.5 5.5t55.5 -5.5
t51.5 -16.5q20 -9 31.5 -26t11.5 -37v-15h-300z" />
    <glyph glyph-name="signal_cellular_connected_no_internet_4_bar" unicode="SIGNAL_CELLULAR_CONNECTED_NO_INTERNET_&#x34;_BAR" 
d="M815 237q-13 0 -21.5 8.5t-8.5 21.5v241q0 13 8.5 21.5t21.5 8.5q12 0 21 -8.5t9 -21.5v-241q0 -13 -9 -21.5t-21 -8.5zM815 98q-14 0 -23.5 9t-9.5 23t9.5 23t23.5 9t23 -9t9 -23t-9.5 -23t-22.5 -9zM200 100q-24 0 -33.5 22t8.5 39l608 609q17 17 39.5 7.5t22.5 -33.5
v-131h-63q-30 0 -51 -21t-21 -51v-441h-510z" />
    <glyph glyph-name="signal_cellular_null" unicode="SIGNAL_CELLULAR_NULL" 
d="M259 160h526v526zM202 100q-25 0 -34 22t8 39l608 608q17 18 39 8.5t22 -33.5v-608q0 -15 -10.5 -25.5t-25.5 -10.5h-607z" />
    <glyph glyph-name="signal_cellular_off" unicode="SIGNAL_CELLULAR_OFF" 
d="M245 160h470l-235 235zM814 61l-39 39h-595q-22 0 -30.5 20.5t6.5 35.5l282 282l-296 295q-9 8 -9 20.5t9 21.5t21.5 9t21.5 -9l672 -672q9 -9 9 -21t-10 -21q-9 -9 -21 -9t-21 9zM860 213l-60 60v442l-221 -221l-43 42l268 268q15 15 35.5 6.5t20.5 -30.5v-567zM690 384
v0v0v0zM598 278v0v0v0z" />
    </font>
</defs>
</svg>
