<?xml version="1.0" encoding="utf-8"?>
<svg
  version="1.1"
  xmlns="http://www.w3.org/2000/svg"
  xmlns:xlink="http://www.w3.org/1999/xlink"
  x="0px"
  y="0px"
  viewBox="0 0 1024 1024"
  xml:space="preserve"
>
  <path d="M229.7,325.2" />
  <path
    d="M229.4,357h243v168c0,189.3-300,189.3-300,0h59.4c0,115.6,180.6,118,180.6,0c0-14.7,0-97,0-107.9h-183L229.4,357z"
  />
  <path
    d="M522.7,556c-7.5,0-14.1-1.6-19.8-4.8c-5.7-3.2-10.1-7.6-13.3-13.2c-3.2-5.6-4.8-11.9-4.8-19v-54.8h20.2v55.8c0,3.7,0.8,6.8,2.4,9.5c1.6,2.6,3.7,4.7,6.3,6c2.6,1.4,5.6,2,9,2c3.2,0,6.2-0.7,8.8-2c2.6-1.4,4.6-3.4,6.1-6c1.5-2.6,2.2-5.8,2.2-9.3v-55.9h20.4v54.9c0,7.1-1.6,13.4-4.7,18.9c-3.2,5.5-7.6,9.9-13.2,13.1C536.6,554.4,530.1,556,522.7,556z"
  />
  <path
    d="M602.2,556c-7.5,0-13.9-1.2-19.3-3.6c-5.3-2.4-10.2-6.1-14.5-11l13.1-13.1c2.9,3.3,6.1,5.9,9.7,7.7c3.5,1.8,7.7,2.8,12.4,2.8c4.2,0,7.4-0.8,9.8-2.4c2.3-1.6,3.5-3.7,3.5-6.5c0-2.4-0.7-4.4-2.2-5.9c-1.5-1.5-3.5-2.9-6.1-4c-2.6-1.1-5.3-2.2-8.3-3.1c-3-1-6-2.2-9-3.5c-3-1.4-5.8-3-8.3-5c-2.5-2-4.5-4.5-6.1-7.6c-1.5-3.1-2.3-6.9-2.3-11.4c0-5.6,1.3-10.5,4-14.5c2.7-4,6.5-7.1,11.3-9.2c4.9-2.1,10.4-3.1,16.5-3.1c6.4,0,12.2,1.1,17.4,3.3c5.2,2.2,9.5,5.2,12.9,9l-13.2,13.2c-2.7-2.8-5.5-4.9-8.3-6.3c-2.8-1.4-5.9-2-9.3-2c-3.5,0-6.3,0.7-8.3,2c-2,1.3-3.1,3.2-3.1,5.7c0,2.2,0.8,4,2.3,5.4c1.5,1.4,3.6,2.6,6.1,3.6c2.5,1,5.3,2,8.3,3.1c3,1,6.1,2.2,9.1,3.5c3,1.3,5.8,3.1,8.3,5.2c2.5,2.1,4.5,4.8,6.1,7.9c1.6,3.2,2.4,7.1,2.4,11.9c0,8.6-3.1,15.4-9.2,20.3C621.7,553.6,613.1,556,602.2,556z"
  />
  <path d="M645.1,481.9v-17.7h76.8v17.7H645.1z M673.4,554.6v-89.2h20.4v89.2H673.4z" />
  <path d="M733,554.6v-90.4h20.2v90.4H733z" />
  <path
    d="M763.8,554.6l33.4-48.4l15.6,8.7l-25.9,39.7H763.8z M827.9,554.6l-25.1-40.2h-2.6l-34.8-50.2h24.1l24.8,37.9h2.4l34.8,52.5 H827.9z M817.5,512l-15.5-8.7l25-39h23L817.5,512z"
  />
</svg>
